<svg xmlns="http://www.w3.org/2000/svg" xmlns:xlink="http://www.w3.org/1999/xlink" viewBox="0 0 1550.47 1550.38"><defs><style>.cls-1{isolation:isolate;}.cls-2{fill:#e5a326;}.cls-14,.cls-3{fill:#feda80;}.cls-4{fill:#ce8429;}.cls-5{fill:none;}.cls-6{fill:#ffc842;}.cls-7{fill:#8c5522;}.cls-8{fill:#131313;stroke:#131313;stroke-width:5px;}.cls-10,.cls-11,.cls-8,.cls-9{stroke-miterlimit:10;}.cls-9{fill:url(#linear-gradient);stroke:url(#linear-gradient-2);}.cls-10{fill:url(#linear-gradient-3);stroke:url(#linear-gradient-4);}.cls-11{fill:url(#linear-gradient-5);stroke:url(#linear-gradient-6);}.cls-12{fill:#282828;}.cls-13{fill:#fee8b3;}.cls-14,.cls-15{mix-blend-mode:soft-light;}.cls-15,.cls-16{fill:#fee8b2;}</style><linearGradient id="linear-gradient" x1="782.59" y1="927.02" x2="782.59" y2="936.62" gradientUnits="userSpaceOnUse"><stop offset="0.55" stop-color="#fcd981"/><stop offset="0.55" stop-color="#fbd77f"/><stop offset="0.55" stop-color="#f7d178"/><stop offset="0.55" stop-color="#f1c56d"/><stop offset="0.55" stop-color="#e8b55c"/><stop offset="0.55" stop-color="#dda046"/><stop offset="0.55" stop-color="#cf862b"/><stop offset="0.55" stop-color="#ce8429"/></linearGradient><linearGradient id="linear-gradient-2" x1="757.27" y1="931.81" x2="807.91" y2="931.81" xlink:href="#linear-gradient"/><linearGradient id="linear-gradient-3" x1="645.18" y1="902.4" x2="645.18" y2="1000.63" xlink:href="#linear-gradient"/><linearGradient id="linear-gradient-4" x1="562.54" y1="951.46" x2="727.87" y2="951.46" xlink:href="#linear-gradient"/><linearGradient id="linear-gradient-5" x1="919.98" y1="900.59" x2="919.98" y2="1000.63" xlink:href="#linear-gradient"/><linearGradient id="linear-gradient-6" x1="837.27" y1="950.55" x2="1002.64" y2="950.55" xlink:href="#linear-gradient"/></defs><title>logo</title><g class="cls-1"><g id="Layer_2" data-name="Layer 2"><g id="gold"><path class="cls-2" d="M1445.41,761.34c0,366.07-296.76,662.82-662.82,662.82S119.76,1127.41,119.76,761.34,416.52,98.51,782.59,98.51,1445.41,395.26,1445.41,761.34Z"/><path class="cls-3" d="M157,775.19h47.69a567.49,567.49,0,0,0,83.41,297.14q9,14.88,19,29.08a573,573,0,0,0,163.15,156q4.83,3.06,9.65,6,23.49,14.28,48.45,26.27a564.1,564.1,0,0,0,111.12,39.76l6.75,1.63a571.42,571.42,0,0,0,115.28,14.49c2.45.09,4.94.09,7.39.13,2.13,0,4.25,0,6.39,0,2.44,0,4.89,0,7.37,0,4.85,0,9.69-.18,14.54-.36,2.44-.09,4.85-.22,7.24-.31,15.22-.77,30.21-2.13,45.06-4.08l0,0c280-36.37,496.3-275.82,496.3-565.72h47.68c0,325.9-252.22,592.93-572.09,616.52q-22.83,1.69-46.14,1.72a618.09,618.09,0,0,1-157.45-20.24q-5.51-1.43-11-3a615.66,615.66,0,0,1-111.44-43.65q-22.62-11.41-44.15-24.77c-3.21-2-6.43-4-9.6-6a621.43,621.43,0,0,1-167.09-157.9q-10.12-13.93-19.47-28.49A614.78,614.78,0,0,1,157,775.19Z"/><path class="cls-4" d="M157,775.19C157,433.76,433.81,157,775.29,157a616.66,616.66,0,0,1,413.33,158.49,618.44,618.44,0,0,1,133.9,171.89,615,615,0,0,1,71,287.86h-47.68A568.62,568.62,0,0,0,1242.06,447,569.64,569.64,0,0,0,775.29,204.63c-315.13,0-570.56,255.49-570.56,570.56Z"/><path class="cls-3" d="M1550.47,775.19h-59.82c0-320.38-210.56-591.57-500.91-682.68A714,714,0,0,0,783.89,59.82c-2.86,0-5.76,0-8.65,0C380.1,59.77,59.82,380.1,59.82,775.19H0C0,347,347.09,0,775.24,0Q796,0,816.4,1.09a771.92,771.92,0,0,1,208.12,39.85C1330.35,144.72,1550.47,434.26,1550.47,775.19Z"/><circle class="cls-5" cx="775.25" cy="775.19" r="594.69" transform="translate(-321.07 775.23) rotate(-45)"/><path class="cls-6" d="M775.25,59.77C380.12,59.77,59.84,380.1,59.84,775.19S380.12,1490.6,775.25,1490.6s715.42-320.32,715.42-715.41S1170.38,59.77,775.25,59.77Zm0,1310.11c-328.43,0-594.69-266.26-594.69-594.69s266.26-594.7,594.69-594.7,594.69,266.26,594.69,594.7S1103.69,1369.88,775.25,1369.88Z"/><path class="cls-4" d="M1550.47,775.19c0,428.14-347.09,775.19-775.23,775.19-234.52,0-444.72-104.15-586.91-268.7-16.84-19.52-32.79-39.9-47.64-61A771.47,771.47,0,0,1,0,775.19H59.82a714.79,714.79,0,0,0,163.24,455C354.33,1389.22,553,1490.6,775.24,1490.6c395.13,0,715.41-320.32,715.41-715.41Z"/><path class="cls-7" d="M475,859.9v98c0,113.78,92.06,212.46,223.88,240a350.88,350.88,0,0,0,71.84,7.37c50.38,0,100.05-10.77,143.73-31.17.34-.18.68-.36,1-.53,93.09-43.81,150.92-126.43,150.92-215.64v-98A965.1,965.1,0,0,1,770.63,906,965,965,0,0,1,475,859.9Z"/><path class="cls-8" d="M1083,695.72c-.32-.13-.61-.31-.92-.45a17.2,17.2,0,0,1-1.7-.9c-.35-.23-.67-.49-1-.73s-.91-.69-1.33-1.08-.58-.59-.86-.9-.75-.85-1.1-1.31-.46-.68-.67-1a16.56,16.56,0,0,1-.83-1.5c-.18-.38-.35-.78-.5-1.19a13.19,13.19,0,0,1-.5-1.54c-.12-.47-.23-.94-.32-1.42,0-.24-.12-.46-.15-.7l-.08-.67c-.08-.52-.16-1-.22-1.58-14.6-99.21-32.8-222.6-98.87-301.49-34.56-41.29-72.52-45.12-119.46-12.07a140.19,140.19,0,0,1-71.59,24.91c-24.71,1.41-48.22-2.87-68-12.41a145.77,145.77,0,0,1-21-12.51c-47-33-84.94-29.21-119.49,12.07-66.12,79-84.45,203.68-99.18,303.86,0,.1-.06.19-.07.3a16.35,16.35,0,0,1-.56,2.19c-.09.3-.16.59-.27.87a15,15,0,0,1-.91,1.9c-.16.29-.3.6-.48.88a15.86,15.86,0,0,1-1.21,1.62c-.22.26-.42.54-.65.78a15,15,0,0,1-1.5,1.36c-.26.21-.51.44-.78.64a14.48,14.48,0,0,1-1.65,1c-.35.19-.68.4-1.05.56a29.65,29.65,0,0,1-3,1c-.17,0-.33.12-.5.15l-186.89,36c148.19,93,318.5,142,495,142,177.58,0,348.73-49.53,497.49-143.55L1086,696.59A16.26,16.26,0,0,1,1083,695.72Z"/><path class="cls-9" d="M807.32,936.62c-.52-3.17-1-6.37-1.19-9.6-16,.48-31.45.54-47.1.22-.25,3.14-.66,6.28-1.17,9.38Z"/><path class="cls-10" d="M727.32,926c-4.59-.25-9.08-.54-13.52-.86h-.21c-7.75-.52-15.86-1.19-24.81-2-16.78-1.63-33.31-3.69-49.17-6.12-25.19-3.82-50.36-8.71-75-14.59a82.62,82.62,0,0,0,19.62,71c.1.12.21.22.32.34a84.3,84.3,0,0,0,9.64,9c.21.14.41.29.61.44A81.78,81.78,0,0,0,628,998.75c.31.06.61.14.91.22a84.15,84.15,0,0,0,16.49,1.65c38.29,0,72.08-27.08,80.34-64.38A80.19,80.19,0,0,0,727.32,926Z"/><path class="cls-11" d="M1000.19,900.59c-8,2-16.46,3.95-25.56,5.93a915.67,915.67,0,0,1-90.56,14.93c-15.37,1.75-30.88,3.12-46.26,4.1a80.55,80.55,0,0,0,1.66,10.65,77.46,77.46,0,0,0,5.32,15.93,82.11,82.11,0,0,0,14.1,21.56,4.81,4.81,0,0,1,.42.48,89.9,89.9,0,0,0,9.3,8.58l.61.45a81.14,81.14,0,0,0,33.16,15.56l.57.13a84.31,84.31,0,0,0,16.87,1.73,82.42,82.42,0,0,0,82.32-82.33,81.33,81.33,0,0,0-1.86-17.27Z"/><path class="cls-12" d="M1031.27,894.38a108.68,108.68,0,0,0-5.76-18.76c0-.14-.11-.28-.17-.43l0-.07a15.83,15.83,0,0,0-20.16-9,15.5,15.5,0,0,0-2.23,1c-10.7,2.83-22.19,5.58-35,8.38A885.13,885.13,0,0,1,880.49,890c-19.66,2.24-39.51,3.83-59,4.75l-.49,0c-26.12,1.23-51.51,1.32-76.81.36l-.85-.06c-9.68-.37-18.66-.86-27.45-1.51l-.38,0c-7.37-.49-15.12-1.13-23.64-1.93-16.17-1.59-32.11-3.58-47.44-5.93A877.76,877.76,0,0,1,557.65,868a15.47,15.47,0,0,0-2.79-.46h0c-.37,0-.75,0-1.12,0h-.11a15.63,15.63,0,0,0-7.66,2,15.89,15.89,0,0,0-7.08,8.13,113.56,113.56,0,0,0,2.58,87.55,113.39,113.39,0,0,0,19,29.27,18.51,18.51,0,0,0,1.41,1.52,116.51,116.51,0,0,0,13.25,12.14l.63.46a113.59,113.59,0,0,0,44.54,20.93q.55.15,1.11.27a116.35,116.35,0,0,0,23.92,2.52c43.93,0,83.52-25.79,102.34-64h69.75a113.83,113.83,0,0,0,17.49,26.13c.24.29.49.59.74.86a119.31,119.31,0,0,0,13.92,12.81c.22.17.44.34.68.5a112.36,112.36,0,0,0,44.68,21c.41.12.84.21,1.26.29a116,116,0,0,0,23.6,2.45,114.15,114.15,0,0,0,114-114A112.17,112.17,0,0,0,1031.27,894.38ZM806.13,927c.24,3.23.67,6.43,1.19,9.6H757.86c.51-3.1.92-6.24,1.17-9.38C774.68,927.56,790.18,927.5,806.13,927Zm-160.77,73.6A84.15,84.15,0,0,1,628.87,999c-.3-.08-.6-.16-.91-.22a81.78,81.78,0,0,1-33.19-15.55c-.2-.15-.4-.3-.61-.44a84.3,84.3,0,0,1-9.64-9c-.11-.12-.22-.22-.32-.34a82.47,82.47,0,0,1-19.62-71c24.67,5.88,49.84,10.77,75,14.59,15.86,2.43,32.39,4.49,49.17,6.12,9,.85,17.06,1.52,24.81,2h.21c4.44.32,8.93.61,13.52.86a80.19,80.19,0,0,1-1.62,10.22C717.44,973.54,683.65,1000.62,645.36,1000.62Zm274.46,0A84.31,84.31,0,0,1,903,998.89l-.57-.13a81.14,81.14,0,0,1-33.16-15.56l-.61-.45a89.9,89.9,0,0,1-9.3-8.58,4.81,4.81,0,0,0-.42-.48,82.11,82.11,0,0,1-14.1-21.56,77.46,77.46,0,0,1-5.32-15.93,80.55,80.55,0,0,1-1.66-10.65c15.38-1,30.89-2.35,46.26-4.1a915.67,915.67,0,0,0,90.56-14.93c9.1-2,17.56-3.94,25.56-5.93l.09.43a81.33,81.33,0,0,1,1.86,17.27A82.42,82.42,0,0,1,919.82,1000.62Z"/><path class="cls-12" d="M781.55,1080.74l-8.34-30.59c21.47-5.84,26.71-12.17,26.86-13.41.56-4.75-13.58-18.88-30.26-28l15.12-27.86c8.41,4.56,50.17,28.83,46.63,59.47C828.36,1068,793.13,1077.59,781.55,1080.74Z"/><path class="cls-12" d="M778.11,1141.16q-5.7,0-11.42-.5c-68.71-5.92-110.07-63.64-111.8-66.09l25.92-18.24-13,9.11,12.93-9.15c.35.48,35,48.32,88.91,52.82,37.69,3.16,76.87-15.31,116.43-54.87l22.41,22.41C865.69,1119.5,821.86,1141.16,778.11,1141.16Z"/><path class="cls-5" d="M276.86,732.31l150.43-28.94-47.1,85c-2.21-1-4.43-2-6.65-3.13-.14,0-.28-.13-.41-.18L370.82,784c-1.95-1-3.9-1.85-5.85-2.8-2.62-1.27-5.24-2.59-7.87-3.89l-5.16-2.59c-2.81-1.4-5.62-2.81-8.38-4.3q-6.1-3.12-12.14-6.39c-.09,0-.13-.08-.22-.08-3.53-1.91-7.11-3.86-10.6-5.8-.72-.36-1.4-.77-2.13-1.18-3.8-2.08-7.56-4.21-11.32-6.38-3.17-1.86-6.34-3.72-9.51-5.62-2.76-1.58-5.48-3.21-8.2-4.89C285.24,737.52,281,734.93,276.86,732.31Z"/><path class="cls-5" d="M771.87,773.8c110.06,0,213.92-35.32,300.85-102-14.35-97.28-33.35-215.84-97.52-292.51-34.56-41.3-72.54-45.14-119.49-12.07a140.22,140.22,0,0,1-71.59,24.91c-24.63,1.44-48.16-2.86-68-12.44a149.75,149.75,0,0,1-21-12.47c-47-33.07-84.93-29.23-119.5,12.07C510.88,456.53,492,577.48,477.38,676.47,563.05,740.12,664.63,773.8,771.87,773.8Z"/><path class="cls-5" d="M506.53,1067.21q-4.41-7.34-8.06-14.93C501,1057.34,503.68,1062.32,506.53,1067.21Z"/><path class="cls-5" d="M592.61,1154.74c6.93,4.4,14.13,8.61,21.56,12.5Q603,1161.4,592.61,1154.74Z"/><path class="cls-12" d="M1326.46,720.9a13.37,13.37,0,0,0-.22-1.77,10.53,10.53,0,0,0-.51-1.68,13.06,13.06,0,0,0-.4-1.26,16.24,16.24,0,0,0-1.54-2.72v-.05c-.18-.22-.37-.4-.54-.63a19.42,19.42,0,0,0-1.45-1.72c-.37-.36-.82-.64-1.22-1s-.78-.63-1.19-.9a13.45,13.45,0,0,0-1.63-.86c-.36-.18-.72-.41-1.13-.59a15.92,15.92,0,0,0-2.44-.73,1.76,1.76,0,0,1-.5-.13h-.14l-209.43-39.31c-.49-3.48-1-7-1.54-10.59-14.17-95-33.78-206.76-94.19-286.78-2.8-3.84-5.79-7.6-8.87-11.27-45.42-54.25-101.43-60.36-162.06-17.66a102.83,102.83,0,0,1-23.73,12.45,107.8,107.8,0,0,1-31.48,6.75c-19,1.08-37.58-2.22-52.39-9.37a113.65,113.65,0,0,1-16.57-9.83c-24.18-17-47.64-26.31-70-27.81-33.64-2.35-64.8,12.86-92.06,45.47-69.37,82.86-89.52,206.4-104.6,308.42L232.48,708.58s-.09,0-.09,0a16.59,16.59,0,0,0-2.22.63c-.27.09-.59.18-.81.27a15.86,15.86,0,0,0-1.41.77,15.68,15.68,0,0,0-8.29,14.18,16.22,16.22,0,0,0,.19,2.12c0,.18,0,.36,0,.55s.14.4.18.63c.09.41.23.82.36,1.27s.41,1.13.64,1.63a11.39,11.39,0,0,0,.63,1.26,8.07,8.07,0,0,0,.73,1.14c.18.27.36.5.54.77s.59.72.86,1,.5.45.72.68c.55.5,1.09.95,1.68,1.4.23.14.41.32.68.5a958,958,0,0,0,137.89,78.7q39.32,18.41,80,33.06a17.45,17.45,0,0,0-.32,3.12V957.86c0,43.65,11.73,85.31,33,122.49C507,1132.06,554.8,1175.12,614.94,1203a364.3,364.3,0,0,0,78.65,25.91,385.76,385.76,0,0,0,78.34,8c55.38,0,110.13-12,158.26-34.64a8.89,8.89,0,0,0,1-.59c103.69-49.22,168-142.55,168-243.8V852.35a13.82,13.82,0,0,0-.32-3.12,960.94,960.94,0,0,0,220.79-113.75,4.66,4.66,0,0,1,.46-.37c.5-.4,1-.81,1.44-1.26a4,4,0,0,0,.77-.77,17.49,17.49,0,0,0,1.23-1.5,7.6,7.6,0,0,0,.54-.81,12.21,12.21,0,0,0,1.09-2.13,1.91,1.91,0,0,0,.23-.5,14,14,0,0,0,.81-2.76v0a18.26,18.26,0,0,0,.27-3.12C1326.59,721.76,1326.5,721.35,1326.46,720.9ZM492.36,585.5s0-.14,0-.18c.45-2.22.86-4.44,1.32-6.61s.86-4.44,1.35-6.66.95-4.71,1.5-7.06c1-4.71,2-9.42,3.17-14.13.54-2.35,1.08-4.71,1.67-7.06q1.23-5.16,2.59-10.33a1.26,1.26,0,0,1,.09-.41.61.61,0,0,0,0-.27c.64-2.35,1.27-4.71,1.9-7.06,1.18-4.48,2.45-8.92,3.76-13.36q1.5-5.16,3.12-10.32c.64-2,1.28-4.08,2-6.07.14-.5.27-1,.46-1.49.67-2,1.31-4,2-6,.18-.45.32-.95.49-1.41.6-1.67,1.14-3.35,1.77-5s1.18-3.3,1.81-5c1.36-3.76,2.81-7.52,4.3-11.23s3-7.24,4.49-10.82a2.1,2.1,0,0,0,.13-.32c1.32-3,2.68-6.11,4.08-9.1.23-.54.45-1.09.72-1.63,1.23-2.58,2.45-5.16,3.72-7.7,1.08-2.17,2.22-4.39,3.39-6.56,1-1.9,2-3.81,3-5.66,2.17-4,4.48-8,6.83-11.87.82-1.4,1.68-2.76,2.54-4.08.68-1.17,1.4-2.3,2.17-3.39.87-1.36,1.72-2.67,2.63-4,.27-.4.5-.77.77-1.17,1.22-1.82,2.49-3.62,3.76-5.39,1.63-2.27,3.26-4.53,5-6.7q3.2-4.21,6.61-8.29c1.22-1.45,2.4-2.81,3.62-4.16s2.31-2.54,3.53-3.72c0,0,0,0,0,0s0-.1.09-.1A.7.7,0,0,1,583,371c.77-.77,1.49-1.54,2.26-2.26s1.5-1.45,2.27-2.13a92.75,92.75,0,0,1,10.77-8.74c.86-.63,1.72-1.22,2.58-1.76a9.94,9.94,0,0,1,1-.59c1.13-.73,2.22-1.36,3.35-2a25.88,25.88,0,0,1,2.31-1.23,45.06,45.06,0,0,1,4.25-2c.59-.27,1.13-.5,1.72-.72l.27-.14c1-.41,2.09-.82,3.13-1.13a19.48,19.48,0,0,1,2.76-.86l.5-.14a7.74,7.74,0,0,1,1.54-.4,16.55,16.55,0,0,1,2.63-.64,8.36,8.36,0,0,1,1-.23,63.43,63.43,0,0,1,7.65-.95c1.36-.09,2.77-.14,4.12-.14,17.89,0,37.05,7.39,58,22.15a148.85,148.85,0,0,0,21.06,12.5c19.88,9.55,43.38,13.86,68,12.45,1.31-.09,2.63-.18,3.94-.32,1-.09,2.13-.18,3.17-.31.18,0,.36-.05.54-.05L795,391l3.44-.54c1.45-.23,2.9-.5,4.3-.77.14-.05.27-.05.41-.09,1.31-.27,2.63-.54,3.94-.86.59-.13,1.18-.32,1.77-.45.9-.18,1.85-.41,2.76-.68s1.49-.41,2.26-.64c1-.27,2-.58,3.08-.9s2-.63,3.08-1,1.9-.63,2.81-.95c.13,0,.22-.09.36-.14,1.31-.45,2.58-.95,3.85-1.45,1-.4,2.08-.85,3.12-1.26l3.13-1.36c.91-.41,1.81-.82,2.67-1.27,1.36-.63,2.67-1.27,4-2,.81-.41,1.58-.82,2.35-1.27a1.71,1.71,0,0,1,.23-.13c1.13-.55,2.17-1.18,3.26-1.82.77-.4,1.54-.85,2.26-1.31,2.63-1.58,5.16-3.26,7.66-5,46.95-33,84.94-29.21,119.49,12.09,1.68,2,3.35,4.08,5,6.16,1.91,2.45,3.81,4.94,5.61,7.47.83,1.13,1.64,2.31,2.46,3.44.08.14.22.32.31.46s.37.49.54.77c1.27,1.8,2.5,3.66,3.76,5.52.77,1.17,1.54,2.4,2.31,3.62,1,1.59,2,3.17,3,4.76,1.18,1.9,2.31,3.8,3.44,5.7.41.73.87,1.5,1.27,2.22,1.08,1.9,2.17,3.81,3.21,5.75s2.09,3.85,3.08,5.8,2.05,3.94,3,5.93,1.94,3.94,2.9,5.93c1.26,2.72,2.53,5.48,3.76,8.2s2.39,5.52,3.57,8.33,2.22,5.39,3.31,8.1c.08.19.14.37.23.55a.7.7,0,0,1,.08.27c.54,1.27,1,2.58,1.5,3.85s1.09,2.76,1.58,4.17c1.09,2.85,2.13,5.74,3.12,8.6s2,5.79,3,8.74,1.9,5.84,2.82,8.78c1.13,3.67,2.26,7.39,3.35,11.1l1.9,6.66q1.29,4.47,2.44,9,2.37,9,4.53,18.07c.18.81.41,1.63.59,2.44.54,2.36,1.09,4.71,1.63,7,.32,1.54.68,3.08,1,4.62.4,1.72.77,3.49,1.13,5.21,3.8,17.84,7.11,35.68,10,53.25,0,.36.14.72.18,1.09.77,4.57,1.5,9.1,2.22,13.63.05.4.13.81.18,1.22.68,4.35,1.36,8.65,2,12.9.18,1,.31,1.86.45,2.81,1,6.89,2,13.72,3,20.42-87,66.71-190.82,102-300.86,102-3.8,0-7.65,0-11.45-.14-2.85,0-5.71-.13-8.56-.27-3.35-.14-6.66-.28-10-.5s-6.52-.41-9.73-.68q-10.93-.81-21.74-2.17a5.47,5.47,0,0,0-.86-.09c-2-.28-3.94-.5-5.88-.77-2.27-.32-4.53-.64-6.75-1-1.95-.27-3.9-.59-5.8-.91-2.72-.4-5.39-.9-8.1-1.4l-2.22-.4c-2-.37-4-.77-6-1.18-1.49-.28-3-.55-4.43-.91-2.72-.54-5.39-1.13-8.11-1.72l-8-1.9-.59-.14c-2.17-.54-4.3-1-6.43-1.63-.14,0-.23,0-.37-.09-1.76-.45-3.53-.9-5.29-1.4a2.66,2.66,0,0,0-.59-.18c-1.85-.5-3.71-1-5.57-1.54,0,0,0,0-.09,0-3.13-.86-6.29-1.76-9.37-2.76-2.59-.77-5.17-1.63-7.75-2.49-.9-.27-1.76-.54-2.67-.86-2.67-.86-5.3-1.77-7.93-2.72a5.33,5.33,0,0,1-.68-.27c-.35-.14-.77-.27-1.13-.41-.18,0-.41-.13-.58-.18-2.36-.81-4.67-1.67-7-2.58-3.17-1.18-6.3-2.4-9.42-3.62-1.72-.68-3.44-1.41-5.12-2.13-2.72-1.09-5.44-2.22-8.11-3.44a18.15,18.15,0,0,1-1.9-.82c-1.94-.86-3.84-1.67-5.75-2.58s-3.89-1.72-5.79-2.63l0,0c-3.44-1.63-6.88-3.26-10.32-5-.91-.45-1.82-.91-2.72-1.41-2.44-1.17-4.85-2.44-7.24-3.71-1-.49-2-1-2.9-1.54a6,6,0,0,1-.82-.45c-1.13-.63-2.26-1.22-3.39-1.86s-2.27-1.22-3.4-1.9c-3.17-1.76-6.25-3.53-9.37-5.38l-1.63-1c-3.35-2-6.66-4-10-6.07a0,0,0,0,0,0,0c-1.59-.95-3.13-1.95-4.66-2.95-.28-.17-.55-.35-.82-.54-2.35-1.49-4.67-3-7-4.57-2.49-1.63-5-3.35-7.42-5.07a4.22,4.22,0,0,1-.54-.36c-4.17-2.9-8.34-5.89-12.41-8.93.86-5.7,1.72-11.5,2.58-17.34,1.49-10,3.08-20.15,4.71-30.43,1-6,2-12,3.08-18.07q2.1-12.15,4.48-24.45C492.27,586,492.31,585.73,492.36,585.5Zm575.22,372.36c0,89.21-57.83,171.85-150.93,215.63-.31.18-.68.37-1,.54-43.7,20.38-93.38,31.16-143.73,31.16a354.54,354.54,0,0,1-71.87-7.33c-2.07-.41-4.11-.87-6.15-1.36s-4-.9-6.07-1.45c-3.26-.82-6.52-1.63-9.69-2.54l-2.31-.63c-2-.59-4-1.13-5.93-1.77-1.13-.32-2.22-.68-3.35-1s-2.27-.68-3.35-1.09-2.27-.77-3.35-1.13c-2.45-.81-4.85-1.67-7.25-2.53a3.21,3.21,0,0,1-.45-.19c-2.54-.94-5.07-1.9-7.57-2.89s-4.84-2-7.24-3a1.57,1.57,0,0,0-.23-.09c-7.88-3.36-15.53-7-23-10.92-1.86-1-3.71-1.94-5.53-3-3.67-2-7.24-4.12-10.77-6.25-1.77-1.09-3.54-2.18-5.26-3.27s-3.49-2.21-5.16-3.35-3.39-2.31-5.07-3.48c-.86-.54-1.68-1.18-2.49-1.76s-1.63-1.19-2.49-1.77c-1.63-1.18-3.21-2.41-4.85-3.63s-3.21-2.44-4.75-3.71-3.13-2.53-4.67-3.8-3.08-2.59-4.57-3.9a1.18,1.18,0,0,1-.18-.13c-2.22-2-4.44-3.94-6.57-5.93-1.9-1.73-3.71-3.53-5.52-5.3l-1-1c-1.4-1.39-2.8-2.8-4.16-4.25s-2.53-2.63-3.76-4-2.63-2.9-3.89-4.35-2.58-3-3.8-4.44c-2.5-3-4.89-6-7.25-9l-3.39-4.62c-1-1.41-2-2.76-3-4.17-.32-.4-.59-.85-.9-1.26-2-2.9-3.9-5.85-5.76-8.84l0,0c-.95-1.58-1.95-3.21-2.9-4.85-2.85-4.89-5.57-9.87-8.06-14.93-1.54-3.08-3-6.17-4.3-9.25-.68-1.54-1.36-3.12-2-4.7s-1.32-3.12-1.91-4.72c-.9-2.44-1.81-4.89-2.62-7.33-.78-2.13-1.45-4.25-2.08-6.38-.41-1.32-.82-2.59-1.18-3.89-.09-.37-.23-.73-.32-1.09-.64-2.22-1.22-4.49-1.77-6.75-.63-2.63-1.22-5.25-1.76-7.92s-1-5.3-1.5-8-.86-5.4-1.17-8.07c-.23-1.72-.46-3.48-.59-5.2-.14-1.27-.28-2.58-.36-3.86s-.23-2.44-.28-3.66c-.18-2.45-.27-4.93-.36-7.43,0-2-.09-4.12-.09-6.2V859.92c5.75,1.85,11.55,3.62,17.3,5.38s11.59,3.4,17.39,5c2.12.59,4.21,1.18,6.38,1.76h0c3.67,1,7.33,2,11,2.95s7.2,1.86,10.83,2.71c2.94.77,5.89,1.5,8.83,2.18,1.13.27,2.22.54,3.35.77.4.09.86.18,1.27.31,4.26,1,8.55,2,12.86,2.91,1.18.26,2.35.49,3.53.77,5.07,1.08,10.19,2.16,15.3,3.16.59.09,1.19.23,1.77.32a9.78,9.78,0,0,0,1.18.22c4.71,1,9.46,1.82,14.22,2.68l2.58.45c4.3.77,8.6,1.5,12.95,2.18.5.09,1,.13,1.45.22,2.71.45,5.38.86,8.1,1.26,3.45.51,6.89,1.05,10.37,1.5,2.95.41,5.85.82,8.79,1.18l9.6,1.22c3.21.37,6.43.77,9.6,1.09,2.58.32,5.12.59,7.65.82,3,.31,6,.58,9,.85,3.81.37,7.57.73,11.37,1,3.4.27,6.79.54,10.19.77s6.79.5,10.19.68,6.48.37,9.73.54c3.63.19,7.25.37,10.87.5.59,0,1.14,0,1.72,0,3.94.14,7.84.28,11.78.37s8.15.18,12.22.22,8.2.09,12.27.09c1.91,0,3.76,0,5.66,0s3.76,0,5.67,0c2.08,0,4.17,0,6.24-.08s4.4,0,6.57-.14,4.39-.09,6.57-.18q6.18-.19,12.36-.45c4.62-.19,9.23-.45,13.81-.68,6.29-.41,12.59-.82,18.84-1.32,3.39-.27,6.79-.54,10.14-.86,4.76-.41,9.46-.86,14.22-1.35,2.31-.23,4.57-.46,6.88-.73l7.25-.81c3.89-.46,7.74-1,11.59-1.45,10.46-1.36,20.92-2.9,31.29-4.63q3.74-.54,7.47-1.22c2.27-.4,4.48-.77,6.7-1.17q6.2-1.1,12.32-2.31c1.95-.37,3.93-.73,5.89-1.13a.15.15,0,0,0,.13-.05c.59-.14,1.18-.23,1.77-.36,4.75-.91,9.51-1.9,14.21-2.95A2.26,2.26,0,0,0,978,884c4.7-1,9.42-2.09,14.12-3.22l2.27-.55c.81-.13,1.62-.36,2.45-.54q7.53-1.83,15.07-3.71c1.23-.32,2.49-.64,3.76-1,5.07-1.31,10.18-2.67,15.26-4.07l1.35-.41c.87-.23,1.68-.45,2.54-.72,5-1.41,10-2.86,15-4.35,5.94-1.77,11.86-3.62,17.8-5.52Zm193.17-221.7c-2.71,1.67-5.43,3.35-8.15,5-3.76,2.31-7.52,4.53-11.32,6.75-5,2.94-10.09,5.79-15.17,8.69-4.34,2.4-8.74,4.8-13.13,7.15-.22.14-.45.23-.63.37-4.76,2.58-9.56,5.07-14.31,7.51-3.72,1.95-7.47,3.81-11.19,5.67-.32.17-.68.31-1,.49l-5,2.45-1.36.68c-3.35,1.67-6.7,3.26-10,4.84q-15.9,7.47-32,14.35c-4.53,1.91-9.06,3.81-13.63,5.66l-1.41.6c-4.57,1.85-9.14,3.66-13.76,5.43-4.89,1.9-9.83,3.76-14.76,5.57a5.46,5.46,0,0,1-.86.32q-14.54,5.36-29.34,10.19a18.18,18.18,0,0,1-2.09.67c-4.39,1.45-8.78,2.85-13.22,4.22-1.18.4-2.36.77-3.53,1.08-4.44,1.41-8.93,2.72-13.41,4-5.2,1.55-10.45,3-15.71,4.4-3.71,1-7.47,2-11.23,2.94-.81.18-1.58.41-2.4.59a.58.58,0,0,1-.27.09c-1.45.41-2.9.77-4.4,1.09-.62.18-1.22.31-1.85.45-.27.09-.59.14-.86.23-2.54.68-5.07,1.27-7.61,1.85H987c-.5.14-1,.23-1.53.37-1.45.36-3,.72-4.44,1-3.44.77-6.84,1.54-10.33,2.26l-4.39,1c-3.76.82-7.56,1.59-11.37,2.36l-1.4.27c-2.35.5-4.71.95-7.11,1.36-4,.77-8,1.49-12,2.21q-6.87,1.23-13.81,2.32c-.64.09-1.32.22-1.95.31-1,.18-2.08.32-3.12.46-4.76.76-9.56,1.44-14.31,2.12-1.27.18-2.54.37-3.8.5-.78.09-1.59.23-2.36.32l-3.12.41c-2.5.31-5,.63-7.48.9h-.13c-2.49.32-4.89.64-7.39.86-.31,0-.68,0-1,.09-2.26.32-4.53.55-6.79.77-4.39.5-8.83.91-13.23,1.27-.86.09-1.76.18-2.62.23a10,10,0,0,1-1.09.09c-.14,0-.22,0-.36,0-2.62.28-5.25.45-7.88.63-.32,0-.59,0-.9,0-.82.09-1.59.14-2.41.18-1.35.14-2.75.23-4.16.32l-4.12.27c-2.58.18-5.12.32-7.7.45-3.22.23-6.43.37-9.69.46-.54,0-1.09.09-1.63.09-1.63.09-3.26.18-4.89.22-.64,0-1.22,0-1.86,0l-3.39.13c-.32,0-.68.05-1,.05-3.8.14-7.61.23-11.45.32H790c-1.63,0-3.22,0-4.84.09-4.45,0-8.88.09-13.28.09s-8.78-.05-13.17-.09c-1.59,0-3.22,0-4.8-.09a9.88,9.88,0,0,1-1.22,0c-3.63,0-7.2-.13-10.78-.27l-3.72-.13c-2.21-.05-4.48-.14-6.7-.28s-4.39-.13-6.61-.27-4.34-.22-6.56-.36a15.14,15.14,0,0,1-2.13-.14q-6.18-.27-12.37-.81c-.31,0-.67,0-1,0-2.31-.13-4.67-.36-6.93-.54a1.08,1.08,0,0,0-.36,0h0q-5.36-.35-10.73-1c-1.9-.09-3.75-.27-5.66-.54-4.16-.36-8.33-.77-12.45-1.31-1,0-2-.18-3-.32-5.3-.59-10.55-1.23-15.76-2a10.77,10.77,0,0,1-1.32-.18l-4-.54c-1.36-.18-2.67-.36-4-.59l-1.31-.14a1.14,1.14,0,0,0-.36,0c-.23,0-.41,0-.64-.09s-.36-.05-.54-.09c-1.36-.23-2.72-.41-4.07-.64h-.09c-1-.13-2.09-.27-3.13-.49a2.05,2.05,0,0,1-.54-.1c-1.36-.18-2.67-.4-4-.58-3.07-.5-6.2-1-9.27-1.54-1.09-.14-2.18-.37-3.27-.55-5.61-1-11.23-2-16.84-3.08-1.72-.31-3.4-.68-5.12-1-2.54-.5-5.07-1-7.56-1.54-1.18-.27-2.4-.5-3.58-.77l-4.44-1c-2.4-.5-4.79-1-7.15-1.59-1.54-.32-3.08-.63-4.62-1-2.12-.5-4.3-1-6.48-1.55L555,849c-4.12-1-8.24-2-12.32-3-5.38-1.36-10.72-2.76-16.07-4.21l-3.44-.95c-2.31-.64-4.67-1.27-6.93-2a1,1,0,0,1-.36-.09c-2.44-.68-4.89-1.4-7.29-2.13-2.67-.77-5.34-1.58-8-2.35s-5.3-1.68-8-2.49l-.95-.27-1.63-.55c-4.21-1.31-8.42-2.67-12.59-4.07s-8.24-2.76-12.36-4.22c-2.63-.85-5.21-1.8-7.84-2.76l-.31-.13q-3.81-1.29-7.61-2.72c-4.17-1.54-8.33-3.08-12.5-4.71-3.44-1.31-6.88-2.67-10.28-4-.27-.09-.54-.23-.82-.31-4.88-2-9.73-3.94-14.57-6-.5-.18-1-.36-1.45-.58-5.3-2.27-10.6-4.53-15.9-6.89-4.57-2-9.1-4.12-13.63-6.2-2.21-1-4.43-2-6.65-3.13-.14,0-.28-.13-.41-.18L370.82,784c-1.95-1-3.9-1.85-5.85-2.8-2.62-1.27-5.24-2.59-7.87-3.89l-5.16-2.59c-2.81-1.4-5.62-2.81-8.38-4.3q-6.1-3.12-12.14-6.39c-.09,0-.13-.08-.22-.08-3.53-1.91-7.11-3.86-10.6-5.8-.72-.36-1.4-.77-2.13-1.18-3.8-2.08-7.56-4.21-11.32-6.38-3.17-1.86-6.34-3.72-9.51-5.62-2.76-1.58-5.48-3.21-8.2-4.89-4.2-2.53-8.41-5.12-12.58-7.74l150.43-28.94,26.3-5.07c3,2.26,6,4.53,9.06,6.75,1.68,1.22,3.35,2.44,5.07,3.62,1.95,1.4,3.9,2.76,5.84,4.12,1.18.82,2.36,1.63,3.58,2.45l.82.54a.28.28,0,0,0,.18.09c2,1.41,4,2.76,6.11,4.08,1.59,1,3.17,2.08,4.8,3.12q4.08,2.65,8.15,5.16c2.45,1.45,4.85,2.94,7.29,4.35,2,1.22,4,2.4,6.07,3.53.41.27.81.5,1.22.72,2.58,1.5,5.21,2.95,7.84,4.4.68.41,1.4.77,2.13,1.13,2.31,1.27,4.61,2.54,7,3.71a9.29,9.29,0,0,0,.95.55c1.35.72,2.67,1.4,4,2.08,3.44,1.72,6.89,3.44,10.37,5.12,2.13,1,4.25,2,6.39,3,3.3,1.53,6.56,3,9.87,4.48a2.7,2.7,0,0,0,.45.22c3.3,1.46,6.66,2.9,10,4.26,2.26,1,4.53,1.86,6.79,2.76s4.53,1.82,6.79,2.67c5.16,2,10.37,3.86,15.62,5.66l6.43,2.18c2.45.81,4.94,1.63,7.43,2.4s4.85,1.54,7.29,2.22c1.58.5,3.22,1,4.85,1.45,6.11,1.76,12.27,3.39,18.47,4.93,3.26.82,6.56,1.59,9.87,2.36a1.89,1.89,0,0,0,.45.09c2.81.63,5.66,1.27,8.52,1.85l5.39,1.09c3.21.63,6.38,1.27,9.6,1.81s6.16,1.09,9.28,1.59c.09,0,.23,0,.32,0,2.35.37,4.66.73,7,1l4.76.67c2,.32,4.08.55,6.06.82.92.09,1.77.18,2.68.31,3.17.37,6.38.73,9.56,1s6.24.59,9.37.86c1.72.18,3.53.32,5.25.4h.09c2.22.18,4.48.32,6.75.46,5.79.36,11.64.63,17.48.77.09,0,.13,0,.22,0,2,.09,4.12.14,6.16.14,2.86.08,5.75.08,8.6.08,3.36,0,6.75,0,10.1-.08,1,0,2,0,3.08-.1,2.9,0,5.8-.13,8.65-.27,3.62-.13,7.25-.32,10.87-.54s7.24-.46,10.82-.77c2.63-.18,5.21-.41,7.84-.68a6.23,6.23,0,0,0,.9-.09l4.17-.41c2.71-.27,5.43-.59,8.1-.95l1.18-.13c3.35-.41,6.66-.82,10-1.32l1-.14c3.21-.45,6.43-1,9.6-1.49s6.16-1,9.24-1.58c1.08-.18,2.17-.41,3.21-.59,2.13-.41,4.26-.82,6.38-1.27,2.5-.5,4.94-1,7.39-1.54s4.89-1,7.33-1.63c4.89-1.13,9.78-2.35,14.63-3.62,2.71-.73,5.39-1.45,8.11-2.22s5.39-1.5,8.06-2.31c5.34-1.59,10.68-3.26,16-5,2.35-.77,4.66-1.58,7-2.4.63-.23,1.22-.41,1.85-.63.32-.09.59-.23.91-.32,2-.72,4.08-1.45,6.07-2.22,5.25-1.95,10.46-3.94,15.62-6.06.91-.37,1.85-.78,2.76-1.14,1.76-.72,3.53-1.45,5.3-2.22.22-.09.45-.22.68-.31,1.22-.5,2.4-1,3.58-1.54,2.35-1,4.66-2,7-3.13s4.58-2.08,6.84-3.17c.13,0,.27-.13.41-.18.36-.18.72-.36,1-.5,1.05-.5,2.09-1,3.09-1.49,3-1.45,5.93-2.9,8.87-4.39s6-3.08,9-4.67c4-2.17,8-4.34,12-6.61a4,4,0,0,1,.41-.22c2.85-1.64,5.7-3.26,8.51-5,1.72-1,3.39-2,5.07-3,0,0,.09,0,.13-.09,2.68-1.59,5.35-3.26,8-4.93,1.86-1.19,3.72-2.36,5.58-3.58,2.26-1.5,4.57-3,6.83-4.53q3.94-2.65,7.88-5.44,9.38-6.51,18.52-13.54l178,33.42C1266.5,732.62,1263.65,734.39,1260.75,736.16Z"/><path class="cls-3" d="M518,1311.52l-16.3,18.24-66.84,74.85a715.52,715.52,0,0,1-131.41-91.55l58.42-78.12,14.17-19A594.87,594.87,0,0,0,518,1311.52Z"/><path class="cls-13" d="M614.17,1167.24c7.42,3.9,15.07,7.56,23,10.92L614.94,1203c-60.14-27.85-108-70.91-137.48-122.62l21-28.07c2.49,5.06,5.21,10,8.06,14.93,1,1.64,2,3.27,2.9,4.85l0,0c1.86,3,3.8,5.94,5.76,8.84.31.41.58.86.9,1.26,1,1.41,2,2.76,3,4.17l3.39,4.62c2.36,3,4.75,6.06,7.25,9,1.22,1.49,2.49,3,3.8,4.44s2.58,2.9,3.89,4.35,2.45,2.67,3.76,4,2.76,2.86,4.16,4.25l1,1c1.81,1.77,3.62,3.57,5.52,5.3,2.13,2,4.35,4,6.57,5.93a1.18,1.18,0,0,0,.18.13c1.49,1.31,3,2.63,4.57,3.9s3.08,2.53,4.67,3.8,3.12,2.49,4.75,3.71,3.22,2.45,4.85,3.63c.86.58,1.68,1.18,2.49,1.77s1.63,1.22,2.49,1.76c1.68,1.17,3.35,2.31,5.07,3.48s3.4,2.27,5.16,3.35C599.54,1159.14,606.74,1163.35,614.17,1167.24Z"/><path class="cls-14" d="M915.57,863.36c1-.14,2.08-.28,3.12-.46l-32.6,36.46-7.25.81c-2.31.27-4.57.5-6.88.73-4.76.49-9.46.94-14.22,1.35-3.35.32-6.75.59-10.14.86-6.25.5-12.55.91-18.84,1.32-4.58.23-9.19.49-13.81.68q-6.18.25-12.36.45c-2.18.09-4.4.13-6.57.18s-4.39.09-6.57.14-4.16.08-6.24.08c-1.91,0-3.76,0-5.67,0s-3.75,0-5.66,0c-4.07,0-8.15,0-12.27-.09s-8.15-.13-12.22-.22-7.84-.23-11.78-.37c-.58,0-1.13,0-1.72,0-3.62-.13-7.24-.31-10.87-.5-3.25-.17-6.47-.36-9.73-.54s-6.8-.4-10.19-.68-6.79-.5-10.19-.77c-3.8-.27-7.56-.63-11.37-1-3-.27-6-.54-9-.85-2.53-.23-5.07-.5-7.65-.82-3.17-.32-6.39-.72-9.6-1.09l-9.6-1.22c-2.94-.36-5.84-.77-8.79-1.18-3.48-.45-6.92-1-10.37-1.5-2.72-.4-5.39-.81-8.1-1.26-.5-.09-1-.13-1.45-.22l21.51-28.81,0,0c1.32.23,2.63.41,4,.59l4,.54a10.77,10.77,0,0,0,1.32.18c5.21.72,10.46,1.36,15.76,2,1,.14,2,.27,3,.32,4.12.54,8.29,1,12.45,1.31,1.91.27,3.76.45,5.66.54q5.37.62,10.73,1h0a1.08,1.08,0,0,1,.36,0c2.26.18,4.62.41,6.93.54.32,0,.68,0,1,0q6.2.54,12.37.81a15.14,15.14,0,0,0,2.13.14c2.22.14,4.39.27,6.56.36s4.44.23,6.61.27,4.49.23,6.7.28l3.72.13c3.58.14,7.15.23,10.78.27a9.88,9.88,0,0,0,1.22,0c1.58,0,3.21,0,4.8.09,4.39,0,8.78.09,13.17.09s8.83-.05,13.28-.09c1.62,0,3.21,0,4.84-.09h.82c3.84-.09,7.65-.18,11.45-.32.32,0,.68-.05,1-.05l3.39-.13c.64,0,1.22,0,1.86,0,1.63,0,3.26-.13,4.89-.22.54,0,1.09,0,1.63-.09,3.26-.09,6.47-.23,9.69-.46,2.58-.13,5.12-.27,7.7-.45l4.12-.27c1.41-.09,2.81-.18,4.16-.32.82,0,1.59-.09,2.41-.18.31,0,.58,0,.9,0,2.63-.18,5.26-.4,7.88-.63.14,0,.22,0,.36,0a10,10,0,0,0,1.09-.09c.86-.05,1.76-.14,2.62-.23,4.4-.36,8.84-.77,13.23-1.27,2.26-.22,4.53-.45,6.79-.77.31,0,.68,0,1-.09,2.5-.22,4.9-.54,7.39-.86h.13c2.5-.27,5-.59,7.48-.9l3.12-.41c.77-.09,1.58-.23,2.36-.32,1.26-.13,2.53-.32,3.8-.5C906,864.8,910.81,864.12,915.57,863.36Z"/><path class="cls-3" d="M1362.28,366.16l-.68.77L1295.44,441l-16.3,18.25a597.64,597.64,0,0,0-194-191.72l14.13-18.93,58-77.61.36-.5A718.81,718.81,0,0,1,1362.28,366.16Z"/><path class="cls-3" d="M294.11,1124.73l-14,20.78-57.06,84.63a718,718,0,0,1-49.81-68.28L228,1063.05l13.72-24.81A591.93,591.93,0,0,0,294.11,1124.73Z"/><path class="cls-13" d="M490.05,831l1.63.55-47.19,70V852.35a17.45,17.45,0,0,1,.32-3.12q-40.68-14.67-80-33.06l15.39-27.8c4.53,2.08,9.06,4.16,13.63,6.2,5.3,2.36,10.6,4.62,15.9,6.89.49.22.95.4,1.45.58,4.84,2.09,9.69,4.08,14.57,6,.28.08.55.22.82.31,3.4,1.36,6.84,2.72,10.28,4,4.17,1.63,8.33,3.17,12.5,4.71q3.8,1.43,7.61,2.72l.31.13c2.63,1,5.21,1.91,7.84,2.76q6.18,2.19,12.36,4.22C481.63,828.35,485.84,829.71,490.05,831Z"/><path class="cls-3" d="M989.74,92.51l-57,84.68-14,20.74a600.15,600.15,0,0,0-203.32-14.45l13.72-24.81,54.8-98.85A714,714,0,0,1,989.74,92.51Z"/><path class="cls-15" d="M303.48,1313.06a715.52,715.52,0,0,0,131.41,91.55l-40.84,45.74-126.43-89.21-.05,0Z"/><path class="cls-4" d="M534.78,1292.77,518,1311.52a594.87,594.87,0,0,1-142-95.55l14.49-19.38A572,572,0,0,0,534.78,1292.77Z"/><path class="cls-13" d="M1279.14,459.25l-.72.82-16,18q-9-14.88-19-29.07a573.14,573.14,0,0,0-163.15-156c-3.22-2-6.43-4-9.65-6l14.13-18.89.41-.54A597.64,597.64,0,0,1,1279.14,459.25Z"/><path class="cls-16" d="M1403.12,320.42l-40.84,45.74a718.81,718.81,0,0,0-204.59-195.67l35.91-48.05A779.72,779.72,0,0,1,1403.12,320.42Z"/><path class="cls-15" d="M173.25,1161.86a718,718,0,0,0,49.81,68.28l-34.73,51.54c-16.84-19.52-32.79-39.9-47.64-61Z"/><path class="cls-4" d="M308.46,1103.39l-14.35,21.34a591.93,591.93,0,0,1-52.39-86.49l14.4-26A570.15,570.15,0,0,0,308.46,1103.39Z"/><path class="cls-13" d="M775.24,180.5a594.7,594.7,0,0,1,143.45,17.43l-14.4,21.37A571.43,571.43,0,0,0,789,204.81c-2.44-.09-4.93-.09-7.38-.13-2.13-.05-4.26-.05-6.38-.05-2.45,0-4.89,0-7.38.05-4.85,0-9.7.18-14.54.36-2.44.09-4.85.23-7.25.31q-22.82,1.16-45.05,4.08l14.35-26A595.56,595.56,0,0,1,775.24,180.5Z"/><path class="cls-16" d="M1024.52,40.94,989.74,92.51A714,714,0,0,0,783.89,59.82L816.4,1.09A771.92,771.92,0,0,1,1024.52,40.94Z"/></g></g></g></svg>