<svg xmlns="http://www.w3.org/2000/svg" viewBox="0 0 918.17 972.44"><defs><style>.cls-1{fill:#23f0c7;}.cls-2{fill:#b48764;}.cls-3{fill:#966d50;}.cls-4{fill:#5d5360;}.cls-5{fill:#6f6571;}.cls-6{fill:#c39772;}.cls-7{fill:#dbd9dc;}.cls-8{fill:#fff;}.cls-9{fill:#707384;}.cls-10{fill:#63afdb;}.cls-11{fill:#468cbe;}.cls-12{fill:#464655;}.cls-13{fill:#ff6469;}.cls-14{fill:#00dccd;}.cls-15{fill:#ffdc69;}.cls-16{fill:#ffa055;}.cls-17{fill:#a0d778;}.cls-18{fill:#ff4f19;}.cls-19{fill:#5c546a;}.cls-20{fill:#b9bbc1;}.cls-21{fill:#ffd200;}.cls-22{fill:#53dcff;}.cls-23{fill:#e9001e;}.cls-24{fill:#8b8996;}.cls-25{font-size:17.87px;font-family:Futura-Medium, Futura;}.cls-26{letter-spacing:0.04em;}.cls-27{letter-spacing:-0.02em;}.cls-28{letter-spacing:0.01em;}.cls-29{letter-spacing:0.01em;}.cls-30{letter-spacing:-0.01em;}.cls-31{letter-spacing:0.02em;}.cls-32{letter-spacing:-0.02em;}.cls-33{letter-spacing:-0.02em;}.cls-34{fill:#7d7abc;}.cls-35{letter-spacing:0.02em;}.cls-36{letter-spacing:0.01em;}.cls-37{letter-spacing:-0.02em;}.cls-38{letter-spacing:0.02em;}.cls-39{letter-spacing:0em;}.cls-40{letter-spacing:0.01em;}.cls-41{letter-spacing:0.01em;}.cls-42{letter-spacing:0.02em;}.cls-43{letter-spacing:-0.06em;}.cls-44{fill:#e6ffff;}.cls-45{fill:#f591b9;}.cls-46{fill:#63c3e6;}.cls-47{fill:#6e6e6e;}.cls-48{fill:#7383bf;}.cls-49{fill:#434c6d;}.cls-50{fill:#edebda;}.cls-51{fill:#a4e869;}.cls-52{fill:#cec9ae;}.cls-53{fill:#cae8f9;}.cls-54{fill:#b7e0f6;}.cls-55{fill:#17ace8;}.cls-56{fill:#1689fc;}.cls-57{fill:#56b48c;}.cls-58{fill:#ffe347;}.cls-59{letter-spacing:0.01em;}.cls-60{letter-spacing:0.04em;}.cls-61{letter-spacing:-0.01em;}.cls-62{letter-spacing:0.01em;}.cls-63{letter-spacing:-0.05em;}.cls-64{letter-spacing:-0.01em;}.cls-65{letter-spacing:-0.02em;}.cls-66{fill:#ef767a;}.cls-67{letter-spacing:-0.02em;}.cls-68{fill:#3a556a;}.cls-69{fill:#d15241;}.cls-70{fill:#e56353;}.cls-71{fill:#ce412d;}.cls-72{fill:#e1e6e9;}.cls-73{fill:#31978c;}.cls-74{fill:#3ea69b;}.cls-75{fill:#44c4a1;}.cls-76{fill:#ebf0f3;}.cls-77{fill:#64798a;}.cls-78{fill:#27a2db;}.cls-79{fill:#1c75a1;}</style></defs><title>Asset 2</title><g id="Layer_2" data-name="Layer 2"><g id="Layer_1-2" data-name="Layer 1"><circle class="cls-1" cx="221.29" cy="189.02" r="149.17"/><rect class="cls-2" x="205.63" y="95.8" width="31.32" height="23.64"/><path class="cls-3" d="M205.63,103.15a29.65,29.65,0,0,0,31.31,0V95.8H205.63Z"/><path class="cls-4" d="M266.49,166.71,268.25,128c.23-5-3.22-9.68-8.58-11.5l-20.36-6.15a1.91,1.91,0,0,0-2.18.72c-3,5-9,8.41-15.84,8.41S208.45,116,205.45,111a1.91,1.91,0,0,0-2.18-.72l-20.36,6.15c-5.36,1.82-8.81,6.45-8.58,11.5l1.76,38.76Z"/><path class="cls-5" d="M194.45,137.14l-18.11-15.86a10.75,10.75,0,0,0-2,6.67l1.76,38.76h18.36Z"/><path class="cls-5" d="M248.13,137.14l18.11-15.86a10.75,10.75,0,0,1,2,6.67l-1.76,38.76H248.13V137.14Z"/><path class="cls-6" d="M245.89,76.1V70.19c0-12-11-21.67-24.6-21.67s-24.61,9.7-24.61,21.67V76.1h-.08a5,5,0,0,0-.75.07,4.29,4.29,0,0,0-3.64,4.16v1.42a4.24,4.24,0,0,0,3.45,4.09,4.91,4.91,0,0,0,1.36.1,2.13,2.13,0,0,1,2.29,1.6c1.9,9.17,11,16.14,22,16.14s20.07-7,22-16.14A2.11,2.11,0,0,1,245.43,86h.46A4.24,4.24,0,0,0,250.37,82V80A4.24,4.24,0,0,0,245.89,76.1Z"/><path class="cls-2" d="M207.87,84V68.22c0-8.73,5.87-16.22,14.3-19.66-.29,0-.58,0-.88,0-13.59,0-24.61,9.7-24.61,21.67V76.1h-.08a5,5,0,0,0-.75.07,4.29,4.29,0,0,0-3.64,4.16v1.42a4.24,4.24,0,0,0,3.45,4.09,4.91,4.91,0,0,0,1.36.1,2.13,2.13,0,0,1,2.29,1.6c1.9,9.17,11,16.14,22,16.14.3,0,.59,0,.89,0C213.74,100.21,207.87,92.71,207.87,84Z"/><path class="cls-6" d="M269.38,168.68H171a2,2,0,1,1,0-3.94h98.42a2,2,0,1,1,0,3.94Z"/><path class="cls-7" d="M245,164.74H195.31a4.28,4.28,0,0,1-4.47-3.71l-1.71-25.61c-.15-2.26,1.9-4.17,4.47-4.17h53.14c2.58,0,4.62,1.91,4.47,4.17L249.5,161A4.28,4.28,0,0,1,245,164.74Z"/><ellipse class="cls-8" cx="220.17" cy="148.98" rx="5.59" ry="4.92"/><path class="cls-5" d="M198.47,111.75c3.64,8,12.47,13.59,22.82,13.59s19.18-5.63,22.82-13.59l-4.8-1.45a1.91,1.91,0,0,0-2.18.72c-3,5-9,8.41-15.84,8.41S208.45,116,205.45,111a1.91,1.91,0,0,0-2.18-.72Z"/><path class="cls-2" d="M221.29,48.52c-13.59,0-24.61,9.7-24.61,21.67V76.1h3a2.25,2.25,0,0,0,2.08-1.24l2.79-6.13a4.5,4.5,0,0,1,4.15-2.48h25.26a4.5,4.5,0,0,1,4.15,2.48l2.79,6.13a2.25,2.25,0,0,0,2.08,1.24h2.95V70.19C245.89,58.22,234.88,48.52,221.29,48.52Z"/><path class="cls-3" d="M196.68,70.19V76.1h3a2.25,2.25,0,0,0,2.08-1.24l2.79-6.13A4.39,4.39,0,0,1,208,66.34c.77-7.91,6.38-14.59,14.2-17.78-.29,0-.58,0-.88,0C207.7,48.52,196.68,58.22,196.68,70.19Z"/><path class="cls-9" d="M173.29,194.92H125.22c-3.31,0-6,1.91-6,4.27v74c0,2.36,2.69,4.27,6,4.27h48.07c3.32,0,6-1.91,6-4.27v-74C179.3,196.83,176.61,194.92,173.29,194.92Zm-32,5.69c0-.79.89-1.42,2-1.42h12c1.1,0,2,.63,2,1.42h0c0,.78-.9,1.42-2,1.42h-12c-1.11,0-2-.64-2-1.42Zm-6-1.42c1.1,0,2,.63,2,1.42s-.9,1.42-2,1.42-2-.64-2-1.42S134.13,199.19,135.24,199.19Zm14,75.41c-2.21,0-4-1.28-4-2.85s1.8-2.85,4-2.85,4,1.28,4,2.85S151.47,274.6,149.26,274.6Zm26-25.62v17.08H123.22V206.3h52.07V249Z"/><path class="cls-10" d="M123.22,249h16c0-.78.9-1.42,2-1.42s2,.64,2,1.42h4c0-.78.9-1.42,2-1.42s2,.64,2,1.42h4c0-.78.89-1.42,2-1.42s2,.64,2,1.42h16V206.3H123.22Zm36.05-35.57c0-.78.9-1.42,2-1.42h8c1.11,0,2,.64,2,1.42v5.7c0,.78-.9,1.42-2,1.42h-8c-1.1,0-2-.64-2-1.42Zm0,11.39c0-.79.9-1.43,2-1.43h8c1.11,0,2,.64,2,1.43v5.69c0,.78-.9,1.42-2,1.42h-8c-1.1,0-2-.64-2-1.42Zm0,11.38c0-.79.9-1.42,2-1.42h8c1.11,0,2,.63,2,1.42v5.69c0,.79-.9,1.42-2,1.42h-8c-1.1,0-2-.63-2-1.42Zm-16-22.77c0-.78.9-1.42,2-1.42h8c1.11,0,2,.64,2,1.42v5.7c0,.78-.9,1.42-2,1.42h-8c-1.1,0-2-.64-2-1.42Zm0,11.39c0-.79.9-1.43,2-1.43h8c1.11,0,2,.64,2,1.43v5.69c0,.78-.9,1.42-2,1.42h-8c-1.1,0-2-.64-2-1.42Zm0,11.38c0-.79.9-1.42,2-1.42h8c1.11,0,2,.63,2,1.42v5.69c0,.79-.9,1.42-2,1.42h-8c-1.1,0-2-.63-2-1.42Zm-16-22.77c0-.78.89-1.42,2-1.42h8c1.11,0,2,.64,2,1.42v5.7c0,.78-.89,1.42-2,1.42h-8c-1.11,0-2-.64-2-1.42Zm0,11.39c0-.79.89-1.43,2-1.43h8c1.11,0,2,.64,2,1.43v5.69c0,.78-.89,1.42-2,1.42h-8c-1.11,0-2-.64-2-1.42Zm0,11.38c0-.79.89-1.42,2-1.42h8c1.11,0,2,.63,2,1.42v5.69c0,.79-.89,1.42-2,1.42h-8c-1.11,0-2-.63-2-1.42Z"/><path class="cls-11" d="M157.27,250.41c-1.11,0-2-.64-2-1.43h-4c0,.79-.9,1.43-2,1.43s-2-.64-2-1.43h-4c0,.79-.9,1.43-2,1.43s-2-.64-2-1.43h-16v17.08h52.07V249h-16C159.27,249.77,158.37,250.41,157.27,250.41Zm-18,10c0,.78-.89,1.42-2,1.42h-8c-1.11,0-2-.64-2-1.42v-5.69c0-.79.89-1.43,2-1.43h8c1.11,0,2,.64,2,1.43Zm16,0c0,.78-.9,1.42-2,1.42h-8c-1.1,0-2-.64-2-1.42v-5.69c0-.79.9-1.43,2-1.43h8c1.11,0,2,.64,2,1.43Zm6-7.12h8c1.11,0,2,.64,2,1.43v5.69c0,.78-.9,1.42-2,1.42h-8c-1.1,0-2-.64-2-1.42v-5.69C159.27,253.89,160.17,253.25,161.27,253.25Z"/><path class="cls-12" d="M143.25,202h12c1.1,0,2-.64,2-1.42h0c0-.79-.9-1.42-2-1.42h-12c-1.11,0-2,.63-2,1.42h0C141.25,201.39,142.14,202,143.25,202Z"/><ellipse class="cls-12" cx="135.24" cy="200.61" rx="2" ry="1.42"/><ellipse class="cls-12" cx="149.26" cy="271.75" rx="4.01" ry="2.85"/><path class="cls-10" d="M153.26,253.25h-8c-1.1,0-2,.64-2,1.43v5.69c0,.78.9,1.42,2,1.42h8c1.11,0,2-.64,2-1.42v-5.69C155.27,253.89,154.37,253.25,153.26,253.25Zm-4,7.12c-2.21,0-4-1.28-4-2.85s1.8-2.84,4-2.84,4,1.27,4,2.84S151.47,260.37,149.26,260.37Z"/><path class="cls-13" d="M159.27,260.37c0,.78.9,1.42,2,1.42h8c1.11,0,2-.64,2-1.42v-5.69c0-.79-.9-1.43-2-1.43h-8c-1.1,0-2,.64-2,1.43Z"/><path class="cls-14" d="M137.24,253.25h-8c-1.11,0-2,.64-2,1.43v5.69c0,.78.89,1.42,2,1.42h8c1.11,0,2-.64,2-1.42v-5.69C139.24,253.89,138.35,253.25,137.24,253.25Z"/><path class="cls-15" d="M145.25,243.29h8c1.11,0,2-.63,2-1.42v-5.69c0-.79-.9-1.42-2-1.42h-8c-1.1,0-2,.63-2,1.42v5.69C143.25,242.66,144.15,243.29,145.25,243.29Z"/><path class="cls-8" d="M161.27,243.29h8c1.11,0,2-.63,2-1.42v-5.69c0-.79-.9-1.42-2-1.42h-8c-1.1,0-2,.63-2,1.42v5.69C159.27,242.66,160.17,243.29,161.27,243.29Zm0-4.27c0-.78.9-1.42,2-1.42h4c1.11,0,2,.64,2,1.42h0c0,.79-.89,1.43-2,1.43h-4c-1.11,0-2-.64-2-1.43Z"/><path class="cls-11" d="M129.23,243.29h8c1.11,0,2-.63,2-1.42v-5.69c0-.79-.89-1.42-2-1.42h-8c-1.11,0-2,.63-2,1.42v5.69C127.23,242.66,128.12,243.29,129.23,243.29Zm0-4.27c0-.78.9-1.42,2-1.42h4c1.1,0,2,.64,2,1.42h0c0,.79-.9,1.43-2,1.43h-4c-1.1,0-2-.64-2-1.43Z"/><path class="cls-12" d="M145.25,231.91h8c1.11,0,2-.64,2-1.42V224.8c0-.79-.9-1.43-2-1.43h-8c-1.1,0-2,.64-2,1.43v5.69C143.25,231.27,144.15,231.91,145.25,231.91Zm0-4.27c0-.78.9-1.42,2-1.42h4c1.11,0,2,.64,2,1.42h0c0,.79-.89,1.43-2,1.43h-4c-1.1,0-2-.64-2-1.43Z"/><path class="cls-16" d="M161.27,231.91h8c1.11,0,2-.64,2-1.42V224.8c0-.79-.9-1.43-2-1.43h-8c-1.1,0-2,.64-2,1.43v5.69C159.27,231.27,160.17,231.91,161.27,231.91Z"/><path class="cls-17" d="M129.23,231.91h8c1.11,0,2-.64,2-1.42V224.8c0-.79-.89-1.43-2-1.43h-8c-1.11,0-2,.64-2,1.43v5.69C127.23,231.27,128.12,231.91,129.23,231.91Zm4-7.11c2.21,0,4,1.27,4,2.84s-1.79,2.85-4,2.85-4-1.28-4-2.85S131,224.8,133.24,224.8Z"/><path class="cls-13" d="M145.25,220.53h8c1.11,0,2-.64,2-1.42v-5.7c0-.78-.9-1.42-2-1.42h-8c-1.1,0-2,.64-2,1.42v5.7C143.25,219.89,144.15,220.53,145.25,220.53Z"/><path class="cls-14" d="M161.27,220.53h8c1.11,0,2-.64,2-1.42v-5.7c0-.78-.9-1.42-2-1.42h-8c-1.1,0-2,.64-2,1.42v5.7C159.27,219.89,160.17,220.53,161.27,220.53Zm4-7.12c2.21,0,4,1.28,4,2.85s-1.79,2.85-4,2.85-4-1.28-4-2.85S163.07,213.41,165.28,213.41Z"/><path class="cls-15" d="M129.23,220.53h8c1.11,0,2-.64,2-1.42v-5.7c0-.78-.89-1.42-2-1.42h-8c-1.11,0-2,.64-2,1.42v5.7C127.23,219.89,128.12,220.53,129.23,220.53Z"/><ellipse class="cls-15" cx="133.24" cy="227.64" rx="4.01" ry="2.85"/><ellipse class="cls-15" cx="149.26" cy="257.52" rx="4.01" ry="2.85"/><ellipse class="cls-13" cx="165.28" cy="216.26" rx="4.01" ry="2.85"/><path class="cls-11" d="M147.25,229.07h4c1.11,0,2-.64,2-1.43h0c0-.78-.89-1.42-2-1.42h-4c-1.1,0-2,.64-2,1.42h0C145.25,228.43,146.15,229.07,147.25,229.07Z"/><path class="cls-13" d="M163.28,240.45h4c1.11,0,2-.64,2-1.43h0c0-.78-.89-1.42-2-1.42h-4c-1.11,0-2,.64-2,1.42h0C161.27,239.81,162.17,240.45,163.28,240.45Z"/><path class="cls-8" d="M131.23,240.45h4c1.1,0,2-.64,2-1.43h0c0-.78-.9-1.42-2-1.42h-4c-1.1,0-2,.64-2,1.42h0C129.23,239.81,130.13,240.45,131.23,240.45Z"/><ellipse class="cls-12" cx="141.25" cy="248.98" rx="2" ry="1.42"/><ellipse class="cls-8" cx="149.26" cy="248.98" rx="2" ry="1.42"/><ellipse class="cls-8" cx="157.27" cy="248.98" rx="2" ry="1.42"/><rect class="cls-8" x="240.01" y="200.82" width="88.57" height="52.62"/><rect class="cls-18" x="240.01" y="200.82" width="88.57" height="13.16"/><path class="cls-19" d="M327.54,194.24H241a7.72,7.72,0,0,0-7.85,7.56v59.86a1.68,1.68,0,0,0,1.71,1.65h98.78a1.68,1.68,0,0,0,1.71-1.65V201.8A7.72,7.72,0,0,0,327.54,194.24ZM240,251.8V202.47a1.68,1.68,0,0,1,1.7-1.65h85.16a1.68,1.68,0,0,1,1.7,1.65V251.8a1.67,1.67,0,0,1-1.7,1.64H241.71A1.67,1.67,0,0,1,240,251.8Z"/><path class="cls-20" d="M337.09,260H231.49a1.67,1.67,0,0,0-1.7,1.64h0a6.71,6.71,0,0,0,6.82,6.59H332a6.71,6.71,0,0,0,6.82-6.59h0A1.67,1.67,0,0,0,337.09,260Z"/><path class="cls-21" d="M260.44,209H248.52a1.65,1.65,0,1,1,0-3.29h11.92a1.65,1.65,0,1,1,0,3.29Z"/><path class="cls-8" d="M291.1,209h-1.7a1.65,1.65,0,1,1,0-3.29h1.7a1.65,1.65,0,1,1,0,3.29Z"/><path class="cls-8" d="M299.62,209h-1.7a1.65,1.65,0,1,1,0-3.29h1.7a1.65,1.65,0,1,1,0,3.29Z"/><path class="cls-8" d="M308.14,209h-1.71a1.65,1.65,0,1,1,0-3.29h1.71a1.65,1.65,0,1,1,0,3.29Z"/><path class="cls-8" d="M316.65,209H315a1.65,1.65,0,1,1,0-3.29h1.7a1.65,1.65,0,1,1,0,3.29Z"/><path class="cls-22" d="M277.48,248.51h-29a1.68,1.68,0,0,1-1.7-1.65V220.55a1.67,1.67,0,0,1,1.7-1.64h29a1.67,1.67,0,0,1,1.7,1.64v26.31A1.68,1.68,0,0,1,277.48,248.51Z"/><path class="cls-18" d="M318.35,222.2H286a1.65,1.65,0,1,1,0-3.29h32.36a1.65,1.65,0,1,1,0,3.29Z"/><path class="cls-20" d="M299.62,235.35H286a1.64,1.64,0,1,1,0-3.28h13.63a1.64,1.64,0,1,1,0,3.28Z"/><path class="cls-20" d="M299.62,241.93H286a1.65,1.65,0,1,1,0-3.29h13.63a1.65,1.65,0,1,1,0,3.29Z"/><path class="cls-20" d="M299.62,248.51H286a1.65,1.65,0,1,1,0-3.29h13.63a1.65,1.65,0,1,1,0,3.29Z"/><path class="cls-20" d="M320.06,235.35H306.43a1.64,1.64,0,1,1,0-3.28h13.63a1.64,1.64,0,1,1,0,3.28Z"/><path class="cls-20" d="M320.06,241.93H306.43a1.65,1.65,0,1,1,0-3.29h13.63a1.65,1.65,0,1,1,0,3.29Z"/><path class="cls-20" d="M320.06,248.51H306.43a1.65,1.65,0,1,1,0-3.29h13.63a1.65,1.65,0,1,1,0,3.29Z"/><path class="cls-23" d="M308.14,228.78H286a1.65,1.65,0,1,1,0-3.29h22.15a1.65,1.65,0,1,1,0,3.29Z"/><path class="cls-24" d="M277.48,263.31H291.1a3.35,3.35,0,0,0,3.41-3.29H274.07A3.35,3.35,0,0,0,277.48,263.31Z"/><text class="cls-25" transform="translate(68.2 366.81)">Matt uses Multi-Sig-C<tspan class="cls-26" x="169.36" y="0">r</tspan><tspan x="176.83" y="0">ytpo </tspan><tspan class="cls-27" x="218.39" y="0">w</tspan><tspan x="231.94" y="0">ebsi</tspan><tspan class="cls-28" x="264.24" y="0">t</tspan><tspan x="269.28" y="0">es </tspan><tspan class="cls-29" x="0" y="21.44">t</tspan><tspan x="5.01" y="21.44">o c</tspan><tspan class="cls-30" x="29.77" y="21.44">r</tspan><tspan x="36.33" y="21.44">ea</tspan><tspan class="cls-28" x="56.93" y="21.44">t</tspan><tspan x="61.97" y="21.44">e 2 p</tspan><tspan class="cls-31" x="104.62" y="21.44">r</tspan><tspan x="111.57" y="21.44">i</tspan><tspan class="cls-32" x="116.02" y="21.44">v</tspan><tspan x="124.69" y="21.44">a</tspan><tspan class="cls-28" x="135.41" y="21.44">t</tspan><tspan x="140.45" y="21.44">e</tspan><tspan class="cls-33" x="150.33" y="21.44">k</tspan><tspan class="cls-32" x="158.94" y="21.44">e</tspan><tspan x="168.52" y="21.44">ys, one on his </tspan><tspan x="0" y="42.88">lab</tspan><tspan class="cls-29" x="25.87" y="42.88">t</tspan><tspan x="30.88" y="42.88">op and one on his cellphone. </tspan></text><circle class="cls-34" cx="694.73" cy="189.02" r="149.17"/><text class="cls-25" transform="translate(489.21 373.61)">Matt goes <tspan class="cls-29" x="87.25" y="0">t</tspan><tspan x="92.26" y="0">o his public liab</tspan><tspan class="cls-26" x="219.93" y="0">r</tspan><tspan x="227.4" y="0">y </tspan><tspan class="cls-29" x="242.62" y="0">t</tspan><tspan x="247.63" y="0">o use Multi-sig-C</tspan><tspan class="cls-26" x="379.65" y="0">r</tspan><tspan x="387.12" y="0">y</tspan><tspan class="cls-28" x="396.83" y="0">p</tspan><tspan class="cls-29" x="407.7" y="0">t</tspan><tspan x="412.71" y="0">o </tspan><tspan class="cls-29" x="0" y="21.44">t</tspan><tspan x="5.01" y="21.44">o combine his 2 p</tspan><tspan class="cls-35" x="149.26" y="21.44">r</tspan><tspan x="156.21" y="21.44">i</tspan><tspan class="cls-32" x="160.66" y="21.44">v</tspan><tspan x="169.33" y="21.44">a</tspan><tspan class="cls-36" x="180.05" y="21.44">t</tspan><tspan x="185.09" y="21.44">e </tspan><tspan class="cls-33" x="200.49" y="21.44">k</tspan><tspan class="cls-37" x="209.1" y="21.44">e</tspan><tspan x="218.68" y="21.44">ys </tspan><tspan class="cls-38" x="241.15" y="21.44">t</tspan><tspan x="246.39" y="21.44">hat he made ea</tspan><tspan class="cls-35" x="374.04" y="21.44">r</tspan><tspan x="381" y="21.44">lier </tspan><tspan x="0" y="42.88">in</tspan><tspan class="cls-29" x="14.25" y="42.88">t</tspan><tspan x="19.25" y="42.88">o a mulitsignaut</tspan><tspan class="cls-30" x="146.91" y="42.88">r</tspan><tspan x="153.47" y="42.88">e c</tspan><tspan class="cls-26" x="177.38" y="42.88">r</tspan><tspan class="cls-39" x="184.84" y="42.88">y</tspan><tspan class="cls-40" x="194.55" y="42.88">p</tspan><tspan class="cls-29" x="205.42" y="42.88">t</tspan><tspan x="210.43" y="42.88">o add</tspan><tspan class="cls-30" x="258.82" y="42.88">r</tspan><tspan x="265.38" y="42.88">ess along wi</tspan><tspan class="cls-38" x="365.46" y="42.88">t</tspan><tspan x="370.7" y="42.88">h an</tspan><tspan x="406.52" y="42.88">-</tspan><tspan class="cls-41" x="0" y="64.32">o</tspan><tspan class="cls-42" x="10.84" y="64.32">t</tspan><tspan x="16.09" y="64.32">her </tspan><tspan class="cls-33" x="47.96" y="64.32">k</tspan><tspan class="cls-32" x="56.57" y="64.32">e</tspan><tspan x="66.15" y="64.32">y c</tspan><tspan class="cls-30" x="89.89" y="64.32">r</tspan><tspan x="96.45" y="64.32">ea</tspan><tspan class="cls-36" x="117.04" y="64.32">t</tspan><tspan x="122.09" y="64.32">ed at </tspan><tspan class="cls-38" x="169.31" y="64.32">t</tspan><tspan x="174.55" y="64.32">he liba</tspan><tspan class="cls-26" x="230.07" y="64.32">r</tspan><tspan class="cls-43" x="237.54" y="64.32">y</tspan><tspan x="246.19" y="64.32" xml:space="preserve">.  He </tspan><tspan class="cls-38" x="291.23" y="64.32">t</tspan><tspan x="296.47" y="64.32">hen p</tspan><tspan class="cls-35" x="342.18" y="64.32">r</tspan><tspan x="349.13" y="64.32">ints out </tspan><tspan x="0" y="85.76">his paper </tspan><tspan class="cls-33" x="81.23" y="85.76">w</tspan><tspan x="94.76" y="85.76">all</tspan><tspan class="cls-28" x="114.38" y="85.76">e</tspan><tspan x="124.42" y="85.76">t at </tspan><tspan class="cls-38" x="155.93" y="85.76">t</tspan><tspan x="161.17" y="85.76">he liarba</tspan><tspan class="cls-26" x="234.08" y="85.76">r</tspan><tspan class="cls-43" x="241.55" y="85.76">y</tspan><tspan x="250.2" y="85.76">.</tspan></text><rect class="cls-44" x="595.05" y="87.27" width="66.17" height="19.07"/><path class="cls-45" d="M595.05,106.34V183h66.17V106.34Z"/><rect class="cls-46" x="602.84" y="114.13" width="11.68" height="11.68"/><rect class="cls-46" x="622.3" y="114.13" width="11.68" height="11.68"/><rect class="cls-46" x="641.76" y="114.13" width="11.68" height="11.68"/><rect class="cls-46" x="602.84" y="133.59" width="11.68" height="11.68"/><rect class="cls-46" x="622.3" y="133.59" width="11.68" height="11.68"/><rect class="cls-46" x="641.76" y="133.59" width="11.68" height="11.68"/><rect class="cls-46" x="602.84" y="155" width="31.14" height="15.57"/><rect class="cls-47" x="641.76" y="155" width="11.68" height="28.03"/><path d="M676,181.08H663.17V87.27a2,2,0,0,0-1.95-2H595.05a2,2,0,0,0-1.95,2v93.81H588a1.95,1.95,0,0,0,0,3.89h88a1.95,1.95,0,1,0,0-3.89ZM597,89.21h62.28v15.18H597Zm46.71,91.87V156.94h7.78v24.14Zm11.67,0V155a1.94,1.94,0,0,0-1.94-1.95H641.76a2,2,0,0,0-2,1.95v26.08H597V108.29h62.28v72.79Z"/><path d="M607.48,99.94h-2.84V93.11c0-.47-.61-.59-1-.59s-1,.12-1,.59V101c0,.43.49.6.85.6h3.93c.43,0,.57-.51.57-.85S607.91,99.94,607.48,99.94Z"/><path d="M611.42,92.68a1.47,1.47,0,0,0-.68-.16c-.37,0-1,.12-1,.59V101c0,.47.61.6,1,.6s1-.14,1-.6V93.11A.48.48,0,0,0,611.42,92.68Z"/><path d="M618.82,96.7a1.9,1.9,0,0,0,1.06-2q0-2.22-2.49-2.22h-2.56c-.34,0-.84.16-.84.6V101c0,.42.5.59.84.59h2.77A2.41,2.41,0,0,0,620.1,99v-.26A1.94,1.94,0,0,0,618.82,96.7Zm-2.9-2.48h1.31a.81.81,0,0,1,.71.87.78.78,0,0,1-.71.86h-1.31V94.22Zm2.26,4.57a1.07,1.07,0,0,1-1,1.15h-1.24v-2.5h1.24A1.15,1.15,0,0,1,618.18,98.79Z"/><path d="M626.78,97.72a2.42,2.42,0,0,0,1.51-2.53c0-1.78-1-2.67-3.07-2.67h-2.58a.6.6,0,0,0-.59.59V101c0,.47.61.6,1,.6s1-.13,1-.6V98h.82s1.69,3.29,1.71,3.31c.29.57,1.06.36,1.45,0,.21-.17.54-.61.33-.91ZM626,96.23a1.09,1.09,0,0,1-.8.3H624V94.22h1.23a1,1,0,0,1,1.12,1.16A1.15,1.15,0,0,1,626,96.23Z"/><path d="M634.51,93.1c-.15-.51-.81-.65-1.27-.65s-1.1.14-1.27.65c0,0-2.31,7.59-2.31,7.6-.25.82,1.62,1.42,1.85.57l.43-1.56h2.62l.43,1.56c.24.89,2.09.19,1.85-.57C636.84,100.7,634.52,93.11,634.51,93.1Zm-2.18,5.12.91-3.34.91,3.34Z"/><path d="M643.26,97.72a2.42,2.42,0,0,0,1.51-2.53c0-1.78-1-2.67-3.07-2.67h-2.58a.61.61,0,0,0-.6.59V101c0,.46.62.6,1,.6s1-.13,1-.6V98h.82l1.71,3.31c.29.56,1.06.36,1.45,0,.23-.19.55-.6.33-.91Zm-.73-1.45a1.17,1.17,0,0,1-.83.26h-1.23V94.22h1.23a1.18,1.18,0,0,1,.88.31,1.49,1.49,0,0,1,0,1.72Z"/><path d="M652.81,92.76c-.43-.23-1.16-.42-1.44.13l-1.73,3.2-1.75-3.2c-.3-.55-1-.37-1.44-.13-.22.12-.56.4-.41.7l2.57,4.27a.27.27,0,0,1,0,.18V101c0,.46.61.6,1,.6s1-.12,1-.6V97.91a.27.27,0,0,1,0-.18l2.56-4.27C653.39,93.17,653,92.87,652.81,92.76Z"/><path d="M602.84,127.75h11.67a2,2,0,0,0,2-2V114.13a2,2,0,0,0-2-1.95H602.84a2,2,0,0,0-2,1.95V125.8A2,2,0,0,0,602.84,127.75Zm1.94-11.68h7.79v7.79h-7.79Z"/><path d="M634,112.18H622.3a2,2,0,0,0-1.95,1.95V125.8a2,2,0,0,0,1.95,2H634a1.94,1.94,0,0,0,1.94-2V114.13A1.94,1.94,0,0,0,634,112.18Zm-2,11.68h-7.79v-7.79H632Z"/><path d="M653.44,112.18H641.76a2,2,0,0,0-2,1.95V125.8a2,2,0,0,0,2,2h11.68a1.94,1.94,0,0,0,1.94-2V114.13A1.94,1.94,0,0,0,653.44,112.18Zm-2,11.68h-7.78v-7.79h7.78Z"/><path d="M602.84,147.21h11.67a1.94,1.94,0,0,0,2-1.94V133.59a2,2,0,0,0-2-2H602.84a2,2,0,0,0-2,2v11.68A1.94,1.94,0,0,0,602.84,147.21Zm1.94-11.67h7.79v7.78h-7.79Z"/><path d="M634,131.64H622.3a2,2,0,0,0-1.95,2v11.68a1.94,1.94,0,0,0,1.95,1.94H634a1.94,1.94,0,0,0,1.94-1.94V133.59A1.94,1.94,0,0,0,634,131.64Zm-2,11.68h-7.79v-7.78H632Z"/><path d="M653.44,131.64H641.76a2,2,0,0,0-2,2v11.68a2,2,0,0,0,2,1.94h11.68a1.94,1.94,0,0,0,1.94-1.94V133.59A1.94,1.94,0,0,0,653.44,131.64Zm-2,11.68h-7.78v-7.78h7.78Z"/><path d="M634,153.05H602.84a2,2,0,0,0-2,1.95v15.57a1.94,1.94,0,0,0,2,1.94H634a1.94,1.94,0,0,0,1.94-1.94V155A1.94,1.94,0,0,0,634,153.05Zm-2,15.57H604.78V156.94H632Z"/><path class="cls-48" d="M809.75,115.35H717a3.44,3.44,0,0,0-3.44,3.44V177.2a3.44,3.44,0,0,0,3.44,3.44h13.74l3.44-17.18h58.41L796,180.64h13.74a3.44,3.44,0,0,0,3.44-3.44V118.79a3.44,3.44,0,0,0-3.44-3.44"/><path class="cls-49" d="M713.54,156.59V177.2a3.44,3.44,0,0,0,3.44,3.44h13.74l3.44-17.18h58.41L796,180.64h13.74a3.44,3.44,0,0,0,3.44-3.44V156.59Z"/><path class="cls-49" d="M789.14,141.12H737.59a6.87,6.87,0,0,1-6.87-6.87v-18.9H796v18.9a6.87,6.87,0,0,1-6.87,6.87"/><path class="cls-50" d="M797.35,197.82h-68a1.71,1.71,0,0,1-1.68-2l6.46-32.31h58.41L799,195.77a1.71,1.71,0,0,1-1.68,2"/><path class="cls-50" d="M790.85,115.35h-55V99.89a1.71,1.71,0,0,1,1.71-1.72h51.55a1.72,1.72,0,0,1,1.71,1.72v15.46Z"/><polygon class="cls-51" points="768.52 134.25 789.14 134.25 789.14 123.94 768.52 123.94 768.52 134.25"/><path class="cls-52" d="M777.11,173.77H749.62a1.72,1.72,0,0,1,0-3.44h27.49a1.72,1.72,0,1,1,0,3.44"/><path class="cls-52" d="M782.26,182.36H744.47a1.72,1.72,0,0,1,0-3.44h37.79a1.72,1.72,0,1,1,0,3.44"/><path class="cls-52" d="M787.42,191H739.31a1.72,1.72,0,1,1,0-3.44h48.11a1.72,1.72,0,1,1,0,3.44"/><path class="cls-53" d="M729.72,227.71h-14.6V213.12a2.89,2.89,0,0,0-2.92-2.92H665.59a8.74,8.74,0,0,0-8.76,8.75v82.14a8.74,8.74,0,0,0,8.76,8.75h58.29a8.74,8.74,0,0,0,8.76-8.75V230.63A2.9,2.9,0,0,0,729.72,227.71Z"/><path class="cls-54" d="M732.64,230.63v70.46a8.74,8.74,0,0,1-8.76,8.75H694.69V210.2H712.2a2.89,2.89,0,0,1,2.92,2.92v14.59h14.6A2.9,2.9,0,0,1,732.64,230.63Z"/><path class="cls-53" d="M732.64,233.55H712.2a2.92,2.92,0,0,1-2.92-2.92V210.2h6.37a8.76,8.76,0,0,1,6.15,2.55l8.29,8.29a8.8,8.8,0,0,1,2.55,6.15v6.36Z"/><path class="cls-55" d="M712.2,245.23H671.43c-3.86,0-3.86-5.84,0-5.84H712.2C716.06,239.39,716.06,245.23,712.2,245.23Z"/><path class="cls-55" d="M700.52,256.91H671.43c-3.86,0-3.86-5.84,0-5.84h29.09C704.38,251.07,704.38,256.91,700.52,256.91Z"/><path class="cls-55" d="M700.52,268.58H671.43c-3.86,0-3.86-5.84,0-5.84h29.09C704.38,262.74,704.38,268.58,700.52,268.58Z"/><path class="cls-55" d="M700.52,280.26H671.43c-3.86,0-3.86-5.84,0-5.84h29.09C704.38,274.42,704.38,280.26,700.52,280.26Z"/><path class="cls-55" d="M712.2,298.17H694.69c-3.86,0-3.86-5.84,0-5.84H712.2C716.06,292.33,716.06,298.17,712.2,298.17Z"/><path class="cls-56" d="M700.52,280.26h-5.83v-5.84h5.83C704.38,274.42,704.38,280.26,700.52,280.26Z"/><path class="cls-56" d="M700.52,268.58h-5.83v-5.84h5.83C704.38,262.74,704.38,268.58,700.52,268.58Z"/><path class="cls-56" d="M700.52,256.91h-5.83v-5.84h5.83C704.38,251.07,704.38,256.91,700.52,256.91Z"/><path class="cls-56" d="M712.2,298.17H694.69v-5.84H712.2C716.06,292.33,716.06,298.17,712.2,298.17Z"/><path class="cls-56" d="M712.2,245.23H694.69v-5.84H712.2C716.06,239.39,716.06,245.23,712.2,245.23Z"/><path class="cls-57" d="M57,0a33.3,33.3,0,1,0,33.3,33.3A33.3,33.3,0,0,0,57,0Z"/><path class="cls-8" d="M61.15,19.52a2,2,0,0,0-1.67-.81,1.69,1.69,0,0,0-1.26.36c-.22.23-.7.86-1.44,1.88a15.43,15.43,0,0,1-2.52,2.77,16.16,16.16,0,0,1-3.81,2.36,14.56,14.56,0,0,0-2.22,1.22,1.74,1.74,0,0,0-.63,1.48,2.11,2.11,0,0,0,.64,1.52,2,2,0,0,0,1.47.66q1.73,0,6.72-3.83V45a3.43,3.43,0,0,0,.73,2.38,2.47,2.47,0,0,0,1.92.8c1.8,0,2.7-1.31,2.7-4V21.74A3.53,3.53,0,0,0,61.15,19.52Z"/><path class="cls-57" d="M526.59,14.3a33.3,33.3,0,1,0,33.29,33.3A33.3,33.3,0,0,0,526.59,14.3Z"/><path class="cls-8" d="M536.21,58a3.75,3.75,0,0,0-2.34-.63H523.61a12.52,12.52,0,0,1,1-1.28,32.19,32.19,0,0,1,4.06-3.75c2-1.61,3.38-2.8,4.22-3.55a13.82,13.82,0,0,0,2.47-3.13,8.45,8.45,0,0,0,1.21-4.43,8.1,8.1,0,0,0-2.21-5.55A7.79,7.79,0,0,0,531.91,34a12.79,12.79,0,0,0-5.14-.94,11.79,11.79,0,0,0-4.35.74,9.15,9.15,0,0,0-3.07,1.93,8.33,8.33,0,0,0-1.82,2.68,7.52,7.52,0,0,0-.61,2.83,2.39,2.39,0,0,0,.65,1.77,2.25,2.25,0,0,0,1.64.65,2.09,2.09,0,0,0,1.7-.71,7,7,0,0,0,1-2,10.35,10.35,0,0,1,.66-1.62,4.6,4.6,0,0,1,4-2.26,4.8,4.8,0,0,1,2.25.55,4.12,4.12,0,0,1,1.63,1.55,4.25,4.25,0,0,1,.6,2.25,5.69,5.69,0,0,1-.56,2.37A9.28,9.28,0,0,1,529,46.08a17.81,17.81,0,0,1-2.69,2.29,30.14,30.14,0,0,0-3,2.54q-2.12,1.94-4.72,4.65a6.7,6.7,0,0,0-1.16,1.84,4.79,4.79,0,0,0-.53,1.88,2.59,2.59,0,0,0,.82,1.91A3.11,3.11,0,0,0,520,62h14.47a2.55,2.55,0,0,0,1.94-.67,2.29,2.29,0,0,0,.64-1.63A2.05,2.05,0,0,0,536.21,58Z"/><circle class="cls-58" cx="705.47" cy="681.87" r="149.17"/><path class="cls-9" d="M657.47,687.77H609.41c-3.32,0-6,1.91-6,4.26v74c0,2.36,2.69,4.27,6,4.27h48.06c3.32,0,6-1.91,6-4.27V692C663.48,689.68,660.79,687.77,657.47,687.77Zm-32,5.69c0-.79.9-1.43,2-1.43h12c1.1,0,2,.64,2,1.43h0c0,.78-.9,1.42-2,1.42h-12c-1.1,0-2-.64-2-1.42Zm-6-1.43c1.11,0,2,.64,2,1.43s-.89,1.42-2,1.42-2-.64-2-1.42S618.32,692,619.42,692Zm14,75.41c-2.21,0-4-1.27-4-2.84s1.8-2.85,4-2.85,4,1.28,4,2.85S635.65,767.44,633.44,767.44Zm26-25.61v17.08H607.4V699.15h52.08v42.68Z"/><path class="cls-10" d="M607.4,741.83h16c0-.78.89-1.42,2-1.42s2,.64,2,1.42h4c0-.78.89-1.42,2-1.42s2,.64,2,1.42h4c0-.78.9-1.42,2-1.42s2,.64,2,1.42h16V699.15H607.4Zm36.05-35.57c0-.78.9-1.42,2-1.42h8c1.1,0,2,.64,2,1.42V712c0,.79-.9,1.43-2,1.43h-8c-1.11,0-2-.64-2-1.43Zm0,11.39c0-.79.9-1.43,2-1.43h8c1.1,0,2,.64,2,1.43v5.69c0,.78-.9,1.42-2,1.42h-8c-1.11,0-2-.64-2-1.42Zm0,11.38c0-.79.9-1.42,2-1.42h8c1.1,0,2,.63,2,1.42v5.69c0,.79-.9,1.42-2,1.42h-8c-1.11,0-2-.63-2-1.42Zm-16-22.77c0-.78.9-1.42,2-1.42h8c1.1,0,2,.64,2,1.42V712c0,.79-.9,1.43-2,1.43h-8c-1.1,0-2-.64-2-1.43Zm0,11.39c0-.79.9-1.43,2-1.43h8c1.1,0,2,.64,2,1.43v5.69c0,.78-.9,1.42-2,1.42h-8c-1.1,0-2-.64-2-1.42Zm0,11.38c0-.79.9-1.42,2-1.42h8c1.1,0,2,.63,2,1.42v5.69c0,.79-.9,1.42-2,1.42h-8c-1.1,0-2-.63-2-1.42Zm-16-22.77c0-.78.9-1.42,2-1.42h8c1.11,0,2,.64,2,1.42V712c0,.79-.9,1.43-2,1.43h-8c-1.1,0-2-.64-2-1.43Zm0,11.39c0-.79.9-1.43,2-1.43h8c1.11,0,2,.64,2,1.43v5.69c0,.78-.9,1.42-2,1.42h-8c-1.1,0-2-.64-2-1.42Zm0,11.38c0-.79.9-1.42,2-1.42h8c1.11,0,2,.63,2,1.42v5.69c0,.79-.9,1.42-2,1.42h-8c-1.1,0-2-.63-2-1.42Z"/><path class="cls-11" d="M641.45,743.26c-1.1,0-2-.64-2-1.43h-4c0,.79-.89,1.43-2,1.43s-2-.64-2-1.43h-4c0,.79-.9,1.43-2,1.43s-2-.64-2-1.43h-16v17.08h52.08V741.83h-16C643.45,742.62,642.56,743.26,641.45,743.26Zm-18,10c0,.78-.9,1.42-2,1.42h-8c-1.1,0-2-.64-2-1.42v-5.7c0-.78.9-1.42,2-1.42h8c1.11,0,2,.64,2,1.42Zm16,0c0,.78-.9,1.42-2,1.42h-8c-1.1,0-2-.64-2-1.42v-5.7c0-.78.9-1.42,2-1.42h8c1.1,0,2,.64,2,1.42Zm6-7.12h8c1.1,0,2,.64,2,1.42v5.7c0,.78-.9,1.42-2,1.42h-8c-1.11,0-2-.64-2-1.42v-5.7C643.45,746.74,644.35,746.1,645.46,746.1Z"/><path class="cls-12" d="M627.43,694.88h12c1.1,0,2-.64,2-1.42h0c0-.79-.9-1.43-2-1.43h-12c-1.1,0-2,.64-2,1.43h0C625.43,694.24,626.33,694.88,627.43,694.88Z"/><ellipse class="cls-12" cx="619.42" cy="693.46" rx="2" ry="1.42"/><ellipse class="cls-12" cx="633.44" cy="764.6" rx="4.01" ry="2.85"/><path class="cls-10" d="M637.45,746.1h-8c-1.1,0-2,.64-2,1.42v5.7c0,.78.9,1.42,2,1.42h8c1.1,0,2-.64,2-1.42v-5.7C639.45,746.74,638.55,746.1,637.45,746.1Zm-4,7.12c-2.21,0-4-1.28-4-2.85s1.8-2.85,4-2.85,4,1.28,4,2.85S635.65,753.22,633.44,753.22Z"/><path class="cls-13" d="M643.45,753.22c0,.78.9,1.42,2,1.42h8c1.1,0,2-.64,2-1.42v-5.7c0-.78-.9-1.42-2-1.42h-8c-1.11,0-2,.64-2,1.42Z"/><path class="cls-14" d="M621.42,746.1h-8c-1.1,0-2,.64-2,1.42v5.7c0,.78.9,1.42,2,1.42h8c1.11,0,2-.64,2-1.42v-5.7C623.43,746.74,622.53,746.1,621.42,746.1Z"/><path class="cls-15" d="M629.43,736.14h8c1.1,0,2-.63,2-1.42V729c0-.79-.9-1.42-2-1.42h-8c-1.1,0-2,.63-2,1.42v5.69C627.43,735.51,628.33,736.14,629.43,736.14Z"/><path class="cls-8" d="M645.46,736.14h8c1.1,0,2-.63,2-1.42V729c0-.79-.9-1.42-2-1.42h-8c-1.11,0-2,.63-2,1.42v5.69C643.45,735.51,644.35,736.14,645.46,736.14Zm0-4.27c0-.78.89-1.42,2-1.42h4c1.11,0,2,.64,2,1.42h0c0,.79-.9,1.43-2,1.43h-4c-1.11,0-2-.64-2-1.43Z"/><path class="cls-11" d="M613.41,736.14h8c1.11,0,2-.63,2-1.42V729c0-.79-.9-1.42-2-1.42h-8c-1.1,0-2,.63-2,1.42v5.69C611.41,735.51,612.31,736.14,613.41,736.14Zm0-4.27c0-.78.9-1.42,2-1.42h4c1.11,0,2,.64,2,1.42h0c0,.79-.89,1.43-2,1.43h-4c-1.11,0-2-.64-2-1.43Z"/><path class="cls-12" d="M629.43,724.76h8c1.1,0,2-.64,2-1.42v-5.69c0-.79-.9-1.43-2-1.43h-8c-1.1,0-2,.64-2,1.43v5.69C627.43,724.12,628.33,724.76,629.43,724.76Zm0-4.27c0-.78.9-1.42,2-1.42h4c1.11,0,2,.64,2,1.42h0c0,.79-.9,1.42-2,1.42h-4c-1.11,0-2-.63-2-1.42Z"/><path class="cls-16" d="M645.46,724.76h8c1.1,0,2-.64,2-1.42v-5.69c0-.79-.9-1.43-2-1.43h-8c-1.11,0-2,.64-2,1.43v5.69C643.45,724.12,644.35,724.76,645.46,724.76Z"/><path class="cls-17" d="M613.41,724.76h8c1.11,0,2-.64,2-1.42v-5.69c0-.79-.9-1.43-2-1.43h-8c-1.1,0-2,.64-2,1.43v5.69C611.41,724.12,612.31,724.76,613.41,724.76Zm4-7.11c2.21,0,4,1.27,4,2.84s-1.79,2.85-4,2.85-4-1.28-4-2.85S615.21,717.65,617.42,717.65Z"/><path class="cls-13" d="M629.43,713.38h8c1.1,0,2-.64,2-1.43v-5.69c0-.78-.9-1.42-2-1.42h-8c-1.1,0-2,.64-2,1.42V712C627.43,712.74,628.33,713.38,629.43,713.38Z"/><path class="cls-14" d="M645.46,713.38h8c1.1,0,2-.64,2-1.43v-5.69c0-.78-.9-1.42-2-1.42h-8c-1.11,0-2,.64-2,1.42V712C643.45,712.74,644.35,713.38,645.46,713.38Zm4-7.12c2.21,0,4,1.28,4,2.85s-1.8,2.84-4,2.84-4-1.27-4-2.84S647.25,706.26,649.46,706.26Z"/><path class="cls-15" d="M613.41,713.38h8c1.11,0,2-.64,2-1.43v-5.69c0-.78-.9-1.42-2-1.42h-8c-1.1,0-2,.64-2,1.42V712C611.41,712.74,612.31,713.38,613.41,713.38Z"/><ellipse class="cls-15" cx="617.42" cy="720.49" rx="4.01" ry="2.85"/><ellipse class="cls-15" cx="633.44" cy="750.37" rx="4.01" ry="2.85"/><ellipse class="cls-13" cx="649.46" cy="709.11" rx="4.01" ry="2.85"/><path class="cls-11" d="M631.44,721.91h4c1.11,0,2-.63,2-1.42h0c0-.78-.9-1.42-2-1.42h-4c-1.11,0-2,.64-2,1.42h0C629.43,721.28,630.33,721.91,631.44,721.91Z"/><path class="cls-13" d="M647.46,733.3h4c1.11,0,2-.64,2-1.43h0c0-.78-.9-1.42-2-1.42h-4c-1.11,0-2,.64-2,1.42h0C645.46,732.66,646.35,733.3,647.46,733.3Z"/><path class="cls-8" d="M615.42,733.3h4c1.11,0,2-.64,2-1.43h0c0-.78-.89-1.42-2-1.42h-4c-1.11,0-2,.64-2,1.42h0C613.41,732.66,614.31,733.3,615.42,733.3Z"/><ellipse class="cls-12" cx="625.43" cy="741.83" rx="2" ry="1.42"/><ellipse class="cls-8" cx="633.44" cy="741.83" rx="2" ry="1.42"/><ellipse class="cls-8" cx="641.45" cy="741.83" rx="2" ry="1.42"/><rect class="cls-8" x="724.19" y="693.67" width="88.57" height="52.62"/><rect class="cls-18" x="724.19" y="693.67" width="88.57" height="13.16"/><path class="cls-19" d="M811.72,687.09h-86.5a7.71,7.71,0,0,0-7.84,7.56v59.86a1.68,1.68,0,0,0,1.7,1.65h98.79a1.68,1.68,0,0,0,1.7-1.65V694.65A7.72,7.72,0,0,0,811.72,687.09Zm-87.53,57.56V695.31a1.67,1.67,0,0,1,1.7-1.64h85.16a1.68,1.68,0,0,1,1.71,1.64v49.34a1.68,1.68,0,0,1-1.71,1.64H725.89A1.67,1.67,0,0,1,724.19,744.65Z"/><path class="cls-20" d="M821.27,752.87H715.67a1.67,1.67,0,0,0-1.7,1.64h0a6.72,6.72,0,0,0,6.82,6.59h95.37a6.72,6.72,0,0,0,6.82-6.59h0A1.67,1.67,0,0,0,821.27,752.87Z"/><path class="cls-21" d="M744.63,701.89H732.7a1.65,1.65,0,1,1,0-3.29h11.93a1.65,1.65,0,1,1,0,3.29Z"/><path class="cls-8" d="M775.29,701.89h-1.71a1.65,1.65,0,1,1,0-3.29h1.71a1.65,1.65,0,1,1,0,3.29Z"/><path class="cls-8" d="M783.8,701.89h-1.7a1.65,1.65,0,1,1,0-3.29h1.7a1.65,1.65,0,1,1,0,3.29Z"/><path class="cls-8" d="M792.32,701.89h-1.7a1.65,1.65,0,1,1,0-3.29h1.7a1.65,1.65,0,1,1,0,3.29Z"/><path class="cls-8" d="M800.83,701.89h-1.7a1.65,1.65,0,1,1,0-3.29h1.7a1.65,1.65,0,1,1,0,3.29Z"/><path class="cls-22" d="M761.66,741.36h-29a1.68,1.68,0,0,1-1.7-1.65V713.4a1.67,1.67,0,0,1,1.7-1.64h29a1.67,1.67,0,0,1,1.7,1.64v26.31A1.68,1.68,0,0,1,761.66,741.36Z"/><path class="cls-18" d="M802.54,715.05H770.18a1.65,1.65,0,1,1,0-3.29h32.36a1.65,1.65,0,1,1,0,3.29Z"/><path class="cls-20" d="M783.8,728.2H770.18a1.65,1.65,0,1,1,0-3.29H783.8a1.65,1.65,0,1,1,0,3.29Z"/><path class="cls-20" d="M783.8,734.78H770.18a1.65,1.65,0,1,1,0-3.29H783.8a1.65,1.65,0,1,1,0,3.29Z"/><path class="cls-20" d="M783.8,741.36H770.18a1.65,1.65,0,1,1,0-3.29H783.8a1.65,1.65,0,1,1,0,3.29Z"/><path class="cls-20" d="M804.24,728.2H790.62a1.65,1.65,0,1,1,0-3.29h13.62a1.65,1.65,0,1,1,0,3.29Z"/><path class="cls-20" d="M804.24,734.78H790.62a1.65,1.65,0,1,1,0-3.29h13.62a1.65,1.65,0,1,1,0,3.29Z"/><path class="cls-20" d="M804.24,741.36H790.62a1.65,1.65,0,1,1,0-3.29h13.62a1.65,1.65,0,1,1,0,3.29Z"/><path class="cls-23" d="M792.32,721.62H770.18a1.64,1.64,0,1,1,0-3.28h22.14a1.64,1.64,0,1,1,0,3.28Z"/><path class="cls-24" d="M761.66,756.16h13.63a3.34,3.34,0,0,0,3.4-3.29H758.25A3.35,3.35,0,0,0,761.66,756.16Z"/><text class="cls-25" transform="translate(497.38 859.66)">When Matt <tspan class="cls-33" x="97.11" y="0">w</tspan><tspan x="110.65" y="0">ants </tspan><tspan class="cls-59" x="148.81" y="0">t</tspan><tspan x="153.82" y="0">o send his c</tspan><tspan class="cls-60" x="248.75" y="0">r</tspan><tspan x="256.21" y="0">y</tspan><tspan class="cls-28" x="265.92" y="0">p</tspan><tspan class="cls-29" x="276.79" y="0">t</tspan><tspan x="281.8" y="0">o, he uses </tspan><tspan x="0" y="21.44">Multi-Sig-C</tspan><tspan class="cls-26" x="86.56" y="21.44">r</tspan><tspan x="94.02" y="21.44">y</tspan><tspan class="cls-28" x="103.73" y="21.44">p</tspan><tspan class="cls-29" x="114.6" y="21.44">t</tspan><tspan x="119.61" y="21.44">o </tspan><tspan class="cls-29" x="135.86" y="21.44">t</tspan><tspan x="140.87" y="21.44">o sign </tspan><tspan class="cls-38" x="194.83" y="21.44">t</tspan><tspan x="200.07" y="21.44">he sending t</tspan><tspan class="cls-30" x="298.24" y="21.44">r</tspan><tspan x="304.8" y="21.44">ansaction </tspan><tspan x="0" y="42.88">independent</tspan><tspan class="cls-28" x="100.51" y="42.88">l</tspan><tspan x="105.12" y="42.88">y f</tspan><tspan class="cls-61" x="125.65" y="42.88">r</tspan><tspan x="132.17" y="42.88">om his cell, lab</tspan><tspan class="cls-29" x="253.76" y="42.88">t</tspan><tspan x="258.77" y="42.88">op, and </tspan><tspan class="cls-42" x="327.98" y="42.88">t</tspan><tspan x="333.22" y="42.88">he public </tspan><tspan x="0" y="64.32">lib</tspan><tspan class="cls-30" x="19.61" y="64.32">r</tspan><tspan x="26.17" y="64.32">aies co</tspan><tspan class="cls-62" x="83.23" y="64.32">m</tspan><tspan x="97.58" y="64.32">pu</tspan><tspan class="cls-36" x="118.03" y="64.32">t</tspan><tspan x="123.07" y="64.32">e</tspan><tspan class="cls-63" x="132.96" y="64.32">r</tspan><tspan x="138.69" y="64.32">.The signed trsactions a</tspan><tspan class="cls-30" x="327.7" y="64.32">r</tspan><tspan x="334.26" y="64.32">e t</tspan><tspan class="cls-30" x="354.54" y="64.32">r</tspan><tspan x="361.1" y="64.32">as</tspan><tspan class="cls-31" x="379.07" y="64.32">f</tspan><tspan x="384.64" y="64.32">e</tspan><tspan class="cls-30" x="394.52" y="64.32">r</tspan><tspan x="401.08" y="64.32">d </tspan><tspan x="0" y="85.76">via QR codes. Once signed, </tspan><tspan class="cls-42" x="233.5" y="85.76">t</tspan><tspan x="238.74" y="85.76">he t</tspan><tspan class="cls-64" x="268.82" y="85.76">r</tspan><tspan x="275.38" y="85.76">ansaction is </tspan><tspan x="0" y="107.2">b</tspan><tspan class="cls-61" x="10.71" y="107.2">r</tspan><tspan x="17.24" y="107.2">oadcast </tspan><tspan class="cls-59" x="86.28" y="107.2">t</tspan><tspan x="91.28" y="107.2">o </tspan><tspan class="cls-38" x="107.54" y="107.2">t</tspan><tspan x="112.78" y="107.2">he n</tspan><tspan class="cls-28" x="147.77" y="107.2">e</tspan><tspan x="157.81" y="107.2">t</tspan><tspan class="cls-65" x="162.69" y="107.2">w</tspan><tspan x="176.2" y="107.2">o</tspan><tspan class="cls-31" x="186.94" y="107.2">rk</tspan><tspan x="203.06" y="107.2">.</tspan></text><path class="cls-57" d="M512.32,488.14a33.51,33.51,0,1,0,33.51,33.51A33.51,33.51,0,0,0,512.32,488.14Z"/><path class="cls-8" d="M522.71,525.94a6.13,6.13,0,0,0-2.44-.41h-.85V510.21c0-2.29-1-3.44-3-3.44a2.25,2.25,0,0,0-1.59.62,16.18,16.18,0,0,0-1.7,2l-10.48,14-.74,1c-.19.27-.39.54-.57.82a5.27,5.27,0,0,0-.42.81,2.31,2.31,0,0,0-.13.77,3,3,0,0,0,.94,2.31,4,4,0,0,0,2.82.85h9.93v3.68a3.31,3.31,0,0,0,.68,2.25,2.29,2.29,0,0,0,1.79.76,2.31,2.31,0,0,0,1.8-.74,3.29,3.29,0,0,0,.68-2.27V530h1.2a4,4,0,0,0,2.26-.52,1.9,1.9,0,0,0,.75-1.67A1.8,1.8,0,0,0,522.71,525.94Zm-8.24-.41H506l8.51-11.5Z"/><rect class="cls-44" x="669.74" y="562.53" width="66.17" height="19.07"/><path class="cls-45" d="M669.74,581.61v76.68h66.17V581.61Z"/><rect class="cls-46" x="677.52" y="589.39" width="11.68" height="11.68"/><rect class="cls-46" x="696.98" y="589.39" width="11.68" height="11.68"/><rect class="cls-46" x="716.45" y="589.39" width="11.68" height="11.68"/><rect class="cls-46" x="677.52" y="608.86" width="11.68" height="11.68"/><rect class="cls-46" x="696.98" y="608.86" width="11.68" height="11.68"/><rect class="cls-46" x="716.45" y="608.86" width="11.68" height="11.68"/><rect class="cls-46" x="677.52" y="630.26" width="31.14" height="15.57"/><rect class="cls-47" x="716.45" y="630.26" width="11.68" height="28.03"/><path d="M750.7,656.34H737.86V562.53a1.94,1.94,0,0,0-2-1.94H669.74a1.94,1.94,0,0,0-2,1.94v93.81h-5.06a2,2,0,1,0,0,3.9h88a1.95,1.95,0,0,0,0-3.9Zm-79-91.86H734v15.18H671.68Zm46.71,91.86V632.21h7.79v24.13Zm11.68,0V630.26a1.94,1.94,0,0,0-1.94-1.94H716.45a1.94,1.94,0,0,0-2,1.94v26.08H671.68V583.55H734v72.79Z"/><path d="M682.17,575.2h-2.84v-6.82c0-.48-.61-.59-1-.59s-1,.12-1,.59v7.92c0,.42.49.6.85.6h3.93c.43,0,.56-.51.56-.85S682.59,575.2,682.17,575.2Z"/><path d="M686.11,567.94a1.6,1.6,0,0,0-.69-.15c-.36,0-1,.12-1,.59v7.92c0,.46.61.6,1,.6s1-.14,1-.6v-7.92A.49.49,0,0,0,686.11,567.94Z"/><path d="M693.51,572a1.9,1.9,0,0,0,1.06-2c0-1.48-.84-2.22-2.5-2.22h-2.55c-.35,0-.85.16-.85.6v7.92c0,.42.51.59.85.59h2.77a2.41,2.41,0,0,0,2.5-2.68V574A2,2,0,0,0,693.51,572Zm-2.91-2.48h1.31a.81.81,0,0,1,.71.88.78.78,0,0,1-.71.86H690.6v-1.74Zm2.27,4.58a1.07,1.07,0,0,1-1,1.14H690.6v-2.49h1.25C692.55,572.71,692.9,573.4,692.87,574.06Z"/><path d="M701.47,573a2.41,2.41,0,0,0,1.5-2.52q0-2.67-3.06-2.67h-2.58a.6.6,0,0,0-.6.59v7.92c0,.46.61.6,1,.6s1-.13,1-.6v-3h.82l1.7,3.31c.3.57,1.07.36,1.46,0,.21-.18.54-.61.33-.91Zm-.76-1.48a1.11,1.11,0,0,1-.8.3h-1.23v-2.32h1.23a1,1,0,0,1,1.12,1.16A1.17,1.17,0,0,1,700.71,571.5Z"/><path d="M709.2,568.36c-.15-.5-.81-.64-1.27-.64s-1.11.14-1.27.64l-2.32,7.6c-.25.82,1.63,1.42,1.86.57l.42-1.55h2.63l.42,1.56c.25.89,2.1.19,1.86-.58ZM707,573.48l.91-3.34.91,3.34Z"/><path d="M718,573a2.41,2.41,0,0,0,1.5-2.52q0-2.67-3.06-2.67h-2.58a.6.6,0,0,0-.6.59v7.92c0,.46.61.6,1,.6s1-.14,1-.6v-3H716l1.7,3.31c.29.56,1.07.36,1.45,0s.55-.6.33-.91Zm-.73-1.45a1.17,1.17,0,0,1-.83.27h-1.24v-2.32h1.24a1.19,1.19,0,0,1,.88.32,1.47,1.47,0,0,1,0,1.72Z"/><path d="M727.49,568c-.43-.23-1.15-.42-1.44.12l-1.73,3.2-1.74-3.2c-.3-.54-1-.36-1.44-.12-.22.12-.57.4-.42.7L723.3,573a.34.34,0,0,1,.05.17v3.13c0,.46.61.6,1,.6s1-.13,1-.6v-3.13a.34.34,0,0,1,.05-.17l2.57-4.27C728.08,568.44,727.7,568.14,727.49,568Z"/><path d="M677.52,603H689.2a2,2,0,0,0,1.95-1.95V589.39a2,2,0,0,0-1.95-1.94H677.52a1.94,1.94,0,0,0-1.94,1.94v11.68A1.94,1.94,0,0,0,677.52,603Zm2-11.68h7.78v7.78h-7.78Z"/><path d="M708.66,587.45H697a1.94,1.94,0,0,0-1.94,1.94v11.68A1.94,1.94,0,0,0,697,603h11.68a2,2,0,0,0,2-1.95V589.39A1.94,1.94,0,0,0,708.66,587.45Zm-1.94,11.67h-7.79v-7.78h7.79Z"/><path d="M728.13,587.45H716.45a1.94,1.94,0,0,0-2,1.94v11.68a2,2,0,0,0,2,1.95h11.68a1.94,1.94,0,0,0,1.94-1.95V589.39A1.94,1.94,0,0,0,728.13,587.45Zm-2,11.67h-7.79v-7.78h7.79Z"/><path d="M677.52,622.48H689.2a2,2,0,0,0,1.95-2V608.86a2,2,0,0,0-1.95-2H677.52a1.94,1.94,0,0,0-1.94,2v11.67A1.94,1.94,0,0,0,677.52,622.48Zm2-11.68h7.78v7.79h-7.78Z"/><path d="M708.66,606.91H697a1.94,1.94,0,0,0-1.94,2v11.67a1.94,1.94,0,0,0,1.94,2h11.68a2,2,0,0,0,2-2V608.86A2,2,0,0,0,708.66,606.91Zm-1.94,11.68h-7.79V610.8h7.79Z"/><path d="M728.13,606.91H716.45a2,2,0,0,0-2,2v11.67a2,2,0,0,0,2,2h11.68a1.94,1.94,0,0,0,1.94-2V608.86A1.94,1.94,0,0,0,728.13,606.91Zm-2,11.68h-7.79V610.8h7.79Z"/><path d="M708.66,628.32H677.52a1.94,1.94,0,0,0-1.94,1.94v15.57a1.94,1.94,0,0,0,1.94,1.95h31.14a2,2,0,0,0,2-1.95V630.26A1.94,1.94,0,0,0,708.66,628.32Zm-1.94,15.57H679.47V632.21h27.25Z"/><circle class="cls-66" cx="185.93" cy="670.17" r="149.17"/><text class="cls-25" transform="translate(0 845.38)">Matt can deposit c<tspan class="cls-26" x="150.37" y="0">r</tspan><tspan x="157.84" y="0">y</tspan><tspan class="cls-36" x="167.54" y="0">p</tspan><tspan class="cls-59" x="178.41" y="0">t</tspan><tspan x="183.42" y="0">o </tspan><tspan class="cls-29" x="199.67" y="0">t</tspan><tspan x="204.68" y="0">o </tspan><tspan class="cls-38" x="220.93" y="0">t</tspan><tspan x="226.18" y="0">his paper </tspan><tspan class="cls-33" x="307.4" y="0">w</tspan><tspan x="320.94" y="0">all</tspan><tspan class="cls-28" x="340.55" y="0">e</tspan><tspan x="350.59" y="0">t just </tspan><tspan x="0" y="21.44">li</tspan><tspan class="cls-33" x="8.9" y="21.44">k</tspan><tspan x="17.51" y="21.44">e a</tspan><tspan class="cls-67" x="43.62" y="21.44">n</tspan><tspan x="53.13" y="21.44">y no</tspan><tspan class="cls-35" x="88.89" y="21.44">r</tspan><tspan x="95.84" y="21.44">mal </tspan><tspan class="cls-33" x="130.65" y="21.44">w</tspan><tspan x="144.18" y="21.44">all</tspan><tspan class="cls-28" x="163.79" y="21.44">e</tspan><tspan x="173.84" y="21.44">t. </tspan></text><path class="cls-53" d="M311.5,623.46H296.91v-14.6a2.9,2.9,0,0,0-2.92-2.92H247.37a8.75,8.75,0,0,0-8.76,8.76v82.13a8.75,8.75,0,0,0,8.76,8.76h58.29a8.74,8.74,0,0,0,8.76-8.76V626.38A2.89,2.89,0,0,0,311.5,623.46Z"/><path class="cls-54" d="M314.42,626.38v70.45a8.74,8.74,0,0,1-8.76,8.76H276.47V605.94H294a2.9,2.9,0,0,1,2.92,2.92v14.6H311.5A2.89,2.89,0,0,1,314.42,626.38Z"/><path class="cls-53" d="M314.42,629.3H294a2.92,2.92,0,0,1-2.92-2.92V605.94h6.36a8.76,8.76,0,0,1,6.15,2.55l8.29,8.29a8.77,8.77,0,0,1,2.55,6.15v6.37Z"/><path class="cls-55" d="M294,641H253.21c-3.85,0-3.85-5.83,0-5.83H294C297.84,635.14,297.84,641,294,641Z"/><path class="cls-55" d="M282.31,652.65h-29.1c-3.85,0-3.85-5.84,0-5.84h29.1C286.16,646.81,286.16,652.65,282.31,652.65Z"/><path class="cls-55" d="M282.31,664.33h-29.1c-3.85,0-3.85-5.84,0-5.84h29.1C286.16,658.49,286.16,664.33,282.31,664.33Z"/><path class="cls-55" d="M282.31,676h-29.1c-3.85,0-3.85-5.84,0-5.84h29.1C286.16,670.17,286.16,676,282.31,676Z"/><path class="cls-55" d="M294,693.91H276.47c-3.85,0-3.85-5.84,0-5.84H294C297.84,688.07,297.84,693.91,294,693.91Z"/><path class="cls-56" d="M282.31,676h-5.84v-5.84h5.84C286.16,670.17,286.16,676,282.31,676Z"/><path class="cls-56" d="M282.31,664.33h-5.84v-5.84h5.84C286.16,658.49,286.16,664.33,282.31,664.33Z"/><path class="cls-56" d="M282.31,652.65h-5.84v-5.84h5.84C286.16,646.81,286.16,652.65,282.31,652.65Z"/><path class="cls-56" d="M294,693.91H276.47v-5.84H294C297.84,688.07,297.84,693.91,294,693.91Z"/><path class="cls-56" d="M294,641H276.47v-5.83H294C297.84,635.14,297.84,641,294,641Z"/><path class="cls-48" d="M211.28,645.49H179.16a5,5,0,0,0,0,10h32.12a5,5,0,0,0,0-10Z"/><path class="cls-48" d="M211.28,661.49H179.16a5,5,0,0,0,0,10h32.12a5,5,0,0,0,0-10Z"/><path class="cls-68" d="M149.41,638.33v13.84c0-1.85-1.79-3.37-4-3.37H60c-4.16,0-7.59-2.58-8.15-5.93a4.58,4.58,0,0,1-.09-1,6.39,6.39,0,0,1,2.41-4.9A9,9,0,0,1,60,635H145.4C147.62,635,149.41,636.47,149.41,638.33Z"/><circle class="cls-69" cx="88.13" cy="637.72" r="26.05"/><circle class="cls-70" cx="88.13" cy="637.72" r="22.23"/><path class="cls-71" d="M88.14,657.17a19.69,19.69,0,0,1-3.78-.37l.28-1.47a17.65,17.65,0,0,0,3.49.34v1.5Zm3.8-.38-.29-1.46a17.88,17.88,0,0,0,3.36-1l.57,1.39A19.11,19.11,0,0,1,91.94,656.79ZM80.71,655.7a19.42,19.42,0,0,1-3.37-1.79l.83-1.25a18.19,18.19,0,0,0,3.11,1.66Zm18.23-1.82-.83-1.24a18.13,18.13,0,0,0,2.72-2.23l1,1.05A18.47,18.47,0,0,1,98.94,653.88ZM74.4,651.49A19.08,19.08,0,0,1,72,648.55l1.24-.83a18.23,18.23,0,0,0,2.24,2.71Zm29.9-3-1.24-.83a18.48,18.48,0,0,0,1.66-3.1l1.38.57A19.74,19.74,0,0,1,104.3,648.52ZM70.17,645.2a19.45,19.45,0,0,1-1.11-3.65l1.46-.29a17.88,17.88,0,0,0,1,3.36Zm37-3.69-1.46-.29a18.54,18.54,0,0,0,.34-3.5v-.08h1.49v.08A19.25,19.25,0,0,1,107.2,641.51Zm-38.52-3.75v0A19.61,19.61,0,0,1,69,634l1.47.29a18.12,18.12,0,0,0-.34,3.46Zm37-3.62a18.34,18.34,0,0,0-1-3.36l1.38-.57a19.16,19.16,0,0,1,1.12,3.64Zm-34.2-3.25-1.38-.57A18.67,18.67,0,0,1,71.93,627l1.24.82A18.52,18.52,0,0,0,71.52,630.89Zm31.5-3.2a18.19,18.19,0,0,0-2.25-2.71l1.06-1.06a19.49,19.49,0,0,1,2.43,2.93ZM75.4,625.06l-1.06-1a19,19,0,0,1,2.94-2.43l.83,1.24A18.12,18.12,0,0,0,75.4,625.06Zm22.65-2.3a17.82,17.82,0,0,0-3.11-1.65l.57-1.39a20.42,20.42,0,0,1,3.36,1.79Zm-16.84-1.61-.58-1.38a20.15,20.15,0,0,1,3.64-1.12l.3,1.47A17.88,17.88,0,0,0,81.21,621.15Zm10.36-1a18.06,18.06,0,0,0-3.44-.33l0-1,0-.46a20.54,20.54,0,0,1,3.75.36Z"/><path class="cls-72" d="M92.7,637.72a6.24,6.24,0,0,0,2.48-5,6.32,6.32,0,0,0-6.31-6.31h-.71v-2.6h-1.3v2.6H85.34v-2.6H84v2.6h-3V629h1.67v7.41H81.07V639h1.67v7.41H81.07V649h3v2.6h1.3V649h1.52v2.6h1.3V649h.71a6.32,6.32,0,0,0,6.31-6.31A6.24,6.24,0,0,0,92.7,637.72Zm-3.83,8.71H85.34V639h3.53a3.71,3.71,0,1,1,0,7.41Zm0-10H85.34V629h3.53a3.71,3.71,0,1,1,0,7.41Z"/><circle class="cls-73" cx="118.22" cy="645.42" r="20.84"/><path class="cls-74" d="M136,645.42a17.78,17.78,0,0,1-31.43,11.4l25.85-24.33A17.68,17.68,0,0,1,136,645.42Z"/><path class="cls-75" d="M130.43,632.49l-25.84,24.33a17.78,17.78,0,0,1,25.84-24.33Z"/><path class="cls-76" d="M121.89,645.42a5,5,0,0,0-3.06-9.06h-.57v-2.08h-1v2.08H116v-2.08h-1v2.08h-2.38v2.09h1.34v5.93h-1.34v2.08h1.34v5.93h-1.34v2.08H115v2.09h1v-2.09h1.22v2.09h1v-2.09h.57a5,5,0,0,0,3.06-9.05Zm-3.06,7H116v-5.93h2.83a3,3,0,0,1,0,5.93Zm0-8H116v-5.93h2.83a3,3,0,0,1,0,5.93Z"/><path class="cls-77" d="M149.41,652.17v54.34c0,1.87-1.79,3.37-4,3.37H59.75c-4.42,0-8-3-8-6.73V642.86h.09c.56,3.35,4,5.93,8.15,5.93H145.4C147.62,648.8,149.41,650.32,149.41,652.17Z"/><polygon class="cls-78" points="149.41 687.24 128.07 687.24 122.27 679.34 128.07 671.44 149.41 671.44 149.41 687.24"/><circle class="cls-79" cx="134.15" cy="679.35" r="4.56"/><path class="cls-57" d="M36.77,491.77a30.16,30.16,0,1,0,30.16,30.16A30.16,30.16,0,0,0,36.77,491.77Z"/><path class="cls-8" d="M45.46,524.56A6.45,6.45,0,0,0,44,522.43a9.89,9.89,0,0,0-2.34-1.71,10.64,10.64,0,0,0,2.22-2.48,5.84,5.84,0,0,0,.77-3.06,6.17,6.17,0,0,0-.53-2.53,5.93,5.93,0,0,0-1.59-2.06,7.33,7.33,0,0,0-2.47-1.37,10.13,10.13,0,0,0-3.16-.47,10.93,10.93,0,0,0-3.58.56,8.41,8.41,0,0,0-2.68,1.49A7.23,7.23,0,0,0,29,512.75a4,4,0,0,0-.57,2,2,2,0,0,0,.6,1.54,1.83,1.83,0,0,0,1.31.58,2.59,2.59,0,0,0,1.07-.21,1.28,1.28,0,0,0,.64-.59c.2-.47.42-1,.67-1.48a6,6,0,0,1,.77-1.28,3,3,0,0,1,1.12-.8,4.36,4.36,0,0,1,1.79-.31,3.35,3.35,0,0,1,2.54,1,3.31,3.31,0,0,1,1,2.36,3.35,3.35,0,0,1-1.19,2.76,4.34,4.34,0,0,1-2.82,1h-.73a3,3,0,0,0-1.91.53,1.89,1.89,0,0,0-.1,2.74,2.13,2.13,0,0,0,1.51.49c.14,0,.46,0,1-.07s.87-.07,1.11-.07A4.19,4.19,0,0,1,39.93,524a4.52,4.52,0,0,1,1.14,3.27,4.65,4.65,0,0,1-.67,2.48,4.48,4.48,0,0,1-1.69,1.61,4.55,4.55,0,0,1-2.13.54,3.79,3.79,0,0,1-3-1.2,12.19,12.19,0,0,1-2-3.68,1.4,1.4,0,0,0-.61-.7,1.75,1.75,0,0,0-1-.3,2.33,2.33,0,0,0-1.66.64,2.16,2.16,0,0,0-.67,1.66,5.2,5.2,0,0,0,.56,2,8.77,8.77,0,0,0,4.44,4.29,9.22,9.22,0,0,0,3.83.77,10.53,10.53,0,0,0,3.84-.67,9,9,0,0,0,3-1.85,8.15,8.15,0,0,0,1.92-2.7,7.91,7.91,0,0,0,.65-3.13A6.58,6.58,0,0,0,45.46,524.56Z"/></g></g></svg>