<svg xmlns="http://www.w3.org/2000/svg" viewBox="0 0 252.99 278.79"><defs><style>.cls-1{fill:#d4e7ff;}.cls-2{fill:#707384;}.cls-3{fill:#63afdb;}.cls-4{fill:#468cbe;}.cls-5{fill:#464655;}.cls-6{fill:#ff6469;}.cls-7{fill:#00dccd;}.cls-8{fill:#ffdc69;}.cls-9{fill:#fff;}.cls-10{fill:#ffa055;}.cls-11{fill:#a0d778;}.cls-12{fill:#ff4f19;}.cls-13{fill:#5c546a;}.cls-14{fill:#b9bbc1;}.cls-15{fill:#ffd200;}.cls-16{fill:#53dcff;}.cls-17{fill:#e9001e;}.cls-18{fill:#8b8996;}.cls-19{fill:#7383bf;}.cls-20{fill:#434c6d;}.cls-21{fill:#edebda;}.cls-22{fill:#a4e869;}.cls-23{fill:#cec9ae;}.cls-24{fill:#e6e9ed;}.cls-25{fill:#ccd1d9;}.cls-26{fill:#edab37;}.cls-27{fill:#ffce54;}.cls-28{fill:#f6bb42;}.cls-29{fill:#aab2bd;}.cls-30{font-size:29px;fill:#00435f;font-family:Futura-Medium, Futura;}.cls-31{letter-spacing:0.04em;}.cls-32{letter-spacing:0.01em;}.cls-33{letter-spacing:0.01em;}</style></defs><title>Asset 2</title><g id="Layer_2" data-name="Layer 2"><g id="Layer_1-2" data-name="Layer 1"><path class="cls-1" d="M128.41,0A100.78,100.78,0,1,0,229.19,100.77,100.77,100.77,0,0,0,128.41,0Zm0,178.09a77.32,77.32,0,1,1,77.32-77.32A77.32,77.32,0,0,1,128.41,178.09Z"/><path class="cls-2" d="M145.8,156.82H110.11c-2.46,0-4.46,1.66-4.46,3.72V225c0,2,2,3.71,4.46,3.71H145.8c2.46,0,4.46-1.66,4.46-3.71V160.54C150.26,158.48,148.26,156.82,145.8,156.82Z"/><path class="cls-3" d="M108.62,203.9h11.9a1.51,1.51,0,0,1,3,0h3a1.51,1.51,0,0,1,3,0h3a1.52,1.52,0,0,1,3,0h11.89V166.73H108.62Zm26.77-31a1.37,1.37,0,0,1,1.48-1.24h5.95a1.38,1.38,0,0,1,1.49,1.24v4.95a1.39,1.39,0,0,1-1.49,1.24h-5.95a1.38,1.38,0,0,1-1.48-1.24Zm0,9.91a1.37,1.37,0,0,1,1.48-1.24h5.95a1.38,1.38,0,0,1,1.49,1.24v4.95a1.38,1.38,0,0,1-1.49,1.24h-5.95a1.37,1.37,0,0,1-1.48-1.24Zm0,9.91a1.37,1.37,0,0,1,1.48-1.24h5.95a1.38,1.38,0,0,1,1.49,1.24v4.95a1.38,1.38,0,0,1-1.49,1.24h-5.95a1.37,1.37,0,0,1-1.48-1.24Zm-11.9-19.82a1.38,1.38,0,0,1,1.49-1.24h6a1.37,1.37,0,0,1,1.48,1.24v4.95a1.38,1.38,0,0,1-1.48,1.24h-6a1.39,1.39,0,0,1-1.49-1.24Zm0,9.91A1.38,1.38,0,0,1,125,181.6h6a1.37,1.37,0,0,1,1.48,1.24v4.95a1.37,1.37,0,0,1-1.48,1.24h-6a1.38,1.38,0,0,1-1.49-1.24Zm0,9.91a1.38,1.38,0,0,1,1.49-1.24h6a1.37,1.37,0,0,1,1.48,1.24v4.95a1.37,1.37,0,0,1-1.48,1.24h-6a1.38,1.38,0,0,1-1.49-1.24ZM111.6,172.93a1.37,1.37,0,0,1,1.49-1.24H119a1.38,1.38,0,0,1,1.49,1.24v4.95a1.39,1.39,0,0,1-1.49,1.24h-5.94a1.38,1.38,0,0,1-1.49-1.24Zm0,9.91a1.37,1.37,0,0,1,1.49-1.24H119a1.38,1.38,0,0,1,1.49,1.24v4.95A1.38,1.38,0,0,1,119,189h-5.94a1.37,1.37,0,0,1-1.49-1.24Zm0,9.91a1.37,1.37,0,0,1,1.49-1.24H119a1.38,1.38,0,0,1,1.49,1.24v4.95a1.38,1.38,0,0,1-1.49,1.24h-5.94a1.37,1.37,0,0,1-1.49-1.24Z"/><path class="cls-4" d="M133.9,205.14a1.39,1.39,0,0,1-1.49-1.24h-3a1.51,1.51,0,0,1-3,0h-3a1.51,1.51,0,0,1-3,0h-11.9v14.86h38.66V203.9H135.39A1.39,1.39,0,0,1,133.9,205.14Zm-13.38,8.67a1.39,1.39,0,0,1-1.49,1.24h-6a1.38,1.38,0,0,1-1.48-1.24v-5a1.38,1.38,0,0,1,1.48-1.24h6a1.39,1.39,0,0,1,1.49,1.24Zm11.89,0a1.38,1.38,0,0,1-1.48,1.24h-6a1.39,1.39,0,0,1-1.49-1.24v-5a1.39,1.39,0,0,1,1.49-1.24h6a1.38,1.38,0,0,1,1.48,1.24Zm4.46-6.2h5.95a1.39,1.39,0,0,1,1.49,1.24v5a1.39,1.39,0,0,1-1.49,1.24h-5.95a1.38,1.38,0,0,1-1.48-1.24v-5A1.38,1.38,0,0,1,136.87,207.61Z"/><path class="cls-5" d="M123.49,163h8.92a1.38,1.38,0,0,0,1.49-1.23h0a1.38,1.38,0,0,0-1.49-1.24h-8.92a1.37,1.37,0,0,0-1.48,1.24h0A1.37,1.37,0,0,0,123.49,163Z"/><ellipse class="cls-5" cx="117.55" cy="161.78" rx="1.49" ry="1.24"/><ellipse class="cls-5" cx="127.95" cy="223.72" rx="2.97" ry="2.48"/><path class="cls-3" d="M130.93,207.61h-6a1.39,1.39,0,0,0-1.49,1.24v5a1.39,1.39,0,0,0,1.49,1.24h6a1.38,1.38,0,0,0,1.48-1.24v-5A1.38,1.38,0,0,0,130.93,207.61Zm-3,6.2a2.52,2.52,0,1,1,3-2.48A2.76,2.76,0,0,1,128,213.81Z"/><path class="cls-6" d="M135.39,213.81a1.38,1.38,0,0,0,1.48,1.24h5.95a1.39,1.39,0,0,0,1.49-1.24v-5a1.39,1.39,0,0,0-1.49-1.24h-5.95a1.38,1.38,0,0,0-1.48,1.24Z"/><path class="cls-7" d="M119,207.61h-6a1.38,1.38,0,0,0-1.48,1.24v5a1.38,1.38,0,0,0,1.48,1.24h6a1.39,1.39,0,0,0,1.49-1.24v-5A1.39,1.39,0,0,0,119,207.61Z"/><path class="cls-8" d="M125,198.94h6a1.37,1.37,0,0,0,1.48-1.24v-4.95a1.37,1.37,0,0,0-1.48-1.24h-6a1.38,1.38,0,0,0-1.49,1.24v4.95A1.38,1.38,0,0,0,125,198.94Z"/><path class="cls-9" d="M136.87,198.94h5.95a1.38,1.38,0,0,0,1.49-1.24v-4.95a1.38,1.38,0,0,0-1.49-1.24h-5.95a1.37,1.37,0,0,0-1.48,1.24v4.95A1.37,1.37,0,0,0,136.87,198.94Zm0-3.72a1.38,1.38,0,0,1,1.49-1.23h3a1.37,1.37,0,0,1,1.49,1.23h0a1.37,1.37,0,0,1-1.49,1.24h-3a1.38,1.38,0,0,1-1.49-1.24Z"/><path class="cls-4" d="M113.08,198.94h6a1.38,1.38,0,0,0,1.49-1.24v-4.95a1.38,1.38,0,0,0-1.49-1.24h-6a1.37,1.37,0,0,0-1.48,1.24v4.95A1.37,1.37,0,0,0,113.08,198.94Zm0-3.72a1.38,1.38,0,0,1,1.49-1.23h3a1.37,1.37,0,0,1,1.48,1.23h0a1.37,1.37,0,0,1-1.48,1.24h-3a1.38,1.38,0,0,1-1.49-1.24Z"/><path class="cls-5" d="M125,189h6a1.37,1.37,0,0,0,1.48-1.24v-4.95a1.37,1.37,0,0,0-1.48-1.24h-6a1.38,1.38,0,0,0-1.49,1.24v4.95A1.38,1.38,0,0,0,125,189Zm0-3.72a1.39,1.39,0,0,1,1.49-1.24h3a1.39,1.39,0,0,1,1.49,1.24h0a1.38,1.38,0,0,1-1.49,1.24h-3a1.38,1.38,0,0,1-1.49-1.24Z"/><path class="cls-10" d="M136.87,189h5.95a1.38,1.38,0,0,0,1.49-1.24v-4.95a1.38,1.38,0,0,0-1.49-1.24h-5.95a1.37,1.37,0,0,0-1.48,1.24v4.95A1.37,1.37,0,0,0,136.87,189Z"/><path class="cls-11" d="M113.08,189h6a1.38,1.38,0,0,0,1.49-1.24v-4.95A1.38,1.38,0,0,0,119,181.6h-6a1.37,1.37,0,0,0-1.48,1.24v4.95A1.37,1.37,0,0,0,113.08,189Zm3-6.19a2.52,2.52,0,1,1-3,2.47A2.76,2.76,0,0,1,116.06,182.84Z"/><path class="cls-6" d="M125,179.12h6a1.38,1.38,0,0,0,1.48-1.24v-4.95a1.37,1.37,0,0,0-1.48-1.24h-6a1.38,1.38,0,0,0-1.49,1.24v4.95A1.39,1.39,0,0,0,125,179.12Z"/><path class="cls-7" d="M136.87,179.12h5.95a1.39,1.39,0,0,0,1.49-1.24v-4.95a1.38,1.38,0,0,0-1.49-1.24h-5.95a1.37,1.37,0,0,0-1.48,1.24v4.95A1.38,1.38,0,0,0,136.87,179.12Zm3-6.19a2.52,2.52,0,1,1-3,2.47A2.75,2.75,0,0,1,139.85,172.93Z"/><path class="cls-8" d="M113.08,179.12h6a1.39,1.39,0,0,0,1.49-1.24v-4.95a1.38,1.38,0,0,0-1.49-1.24h-6a1.37,1.37,0,0,0-1.48,1.24v4.95A1.38,1.38,0,0,0,113.08,179.12Z"/><ellipse class="cls-8" cx="116.06" cy="185.31" rx="2.97" ry="2.48"/><ellipse class="cls-8" cx="127.95" cy="211.33" rx="2.97" ry="2.48"/><ellipse class="cls-6" cx="139.85" cy="175.4" rx="2.97" ry="2.48"/><path class="cls-4" d="M126.47,186.55h3a1.38,1.38,0,0,0,1.49-1.24h0a1.39,1.39,0,0,0-1.49-1.24h-3a1.39,1.39,0,0,0-1.49,1.24h0A1.38,1.38,0,0,0,126.47,186.55Z"/><path class="cls-6" d="M138.36,196.46h3a1.37,1.37,0,0,0,1.49-1.24h0a1.37,1.37,0,0,0-1.49-1.23h-3a1.38,1.38,0,0,0-1.49,1.23h0A1.38,1.38,0,0,0,138.36,196.46Z"/><path class="cls-9" d="M114.57,196.46h3a1.37,1.37,0,0,0,1.48-1.24h0a1.37,1.37,0,0,0-1.48-1.23h-3a1.38,1.38,0,0,0-1.49,1.23h0A1.38,1.38,0,0,0,114.57,196.46Z"/><ellipse class="cls-5" cx="122.01" cy="203.9" rx="1.49" ry="1.24"/><ellipse class="cls-9" cx="127.95" cy="203.9" rx="1.49" ry="1.24"/><ellipse class="cls-9" cx="133.9" cy="203.9" rx="1.49" ry="1.24"/><rect class="cls-9" x="7.27" y="44.93" width="63.03" height="39.88"/><rect class="cls-12" x="7.27" y="44.93" width="63.03" height="9.97"/><path class="cls-13" d="M69.57,40H8a5.67,5.67,0,0,0-5.59,5.73V91a1.24,1.24,0,0,0,1.22,1.25h70.3A1.23,1.23,0,0,0,75.15,91V45.68A5.66,5.66,0,0,0,69.57,40ZM7.27,83.56V46.18a1.24,1.24,0,0,1,1.21-1.25H69.09a1.23,1.23,0,0,1,1.21,1.25V83.56a1.23,1.23,0,0,1-1.21,1.25H8.48A1.24,1.24,0,0,1,7.27,83.56Z"/><path class="cls-14" d="M76.36,89.8H1.21A1.22,1.22,0,0,0,0,91H0a4.93,4.93,0,0,0,4.85,5H72.72a4.93,4.93,0,0,0,4.86-5h0A1.23,1.23,0,0,0,76.36,89.8Z"/><path class="cls-15" d="M21.82,51.16H13.33a1.25,1.25,0,0,1,0-2.49h8.49a1.25,1.25,0,0,1,0,2.49Z"/><path class="cls-9" d="M43.64,51.16H42.42a1.25,1.25,0,0,1,0-2.49h1.22a1.25,1.25,0,0,1,0,2.49Z"/><path class="cls-9" d="M49.7,51.16H48.48a1.25,1.25,0,0,1,0-2.49H49.7a1.25,1.25,0,0,1,0,2.49Z"/><path class="cls-9" d="M55.76,51.16H54.55a1.25,1.25,0,0,1,0-2.49h1.21a1.25,1.25,0,0,1,0,2.49Z"/><path class="cls-9" d="M61.82,51.16H60.61a1.25,1.25,0,0,1,0-2.49h1.21a1.25,1.25,0,0,1,0,2.49Z"/><path class="cls-16" d="M33.94,81.07H13.33a1.23,1.23,0,0,1-1.21-1.24V59.89a1.23,1.23,0,0,1,1.21-1.25H33.94a1.23,1.23,0,0,1,1.21,1.25V79.83A1.23,1.23,0,0,1,33.94,81.07Z"/><path class="cls-12" d="M63,61.13H40a1.25,1.25,0,0,1,0-2.49H63a1.25,1.25,0,0,1,0,2.49Z"/><path class="cls-14" d="M49.7,71.1H40a1.25,1.25,0,0,1,0-2.49h9.7a1.25,1.25,0,0,1,0,2.49Z"/><path class="cls-14" d="M49.7,76.09H40a1.25,1.25,0,0,1,0-2.5h9.7a1.25,1.25,0,0,1,0,2.5Z"/><path class="cls-14" d="M49.7,81.07H40a1.25,1.25,0,0,1,0-2.49h9.7a1.25,1.25,0,0,1,0,2.49Z"/><path class="cls-14" d="M64.24,71.1H54.55a1.25,1.25,0,0,1,0-2.49h9.69a1.25,1.25,0,0,1,0,2.49Z"/><path class="cls-14" d="M64.24,76.09H54.55a1.25,1.25,0,0,1,0-2.5h9.69a1.25,1.25,0,0,1,0,2.5Z"/><path class="cls-14" d="M64.24,81.07H54.55a1.25,1.25,0,0,1,0-2.49h9.69a1.25,1.25,0,0,1,0,2.49Z"/><path class="cls-17" d="M55.76,66.12H40a1.25,1.25,0,0,1,0-2.49H55.76a1.25,1.25,0,0,1,0,2.49Z"/><path class="cls-18" d="M33.94,92.29h9.7a2.46,2.46,0,0,0,2.42-2.49H31.51A2.47,2.47,0,0,0,33.94,92.29Z"/><path class="cls-19" d="M250.38,43.92H180a2.47,2.47,0,0,0-2.61,2.32V85.66A2.48,2.48,0,0,0,180,88h10.42L193,76.38h44.31L240,88h10.43A2.48,2.48,0,0,0,253,85.66V46.24a2.47,2.47,0,0,0-2.61-2.32"/><path class="cls-20" d="M177.39,71.74V85.66A2.48,2.48,0,0,0,180,88h10.42L193,76.38h44.31L240,88h10.43A2.48,2.48,0,0,0,253,85.66V71.74Z"/><path class="cls-20" d="M234.74,61.31h-39.1a5,5,0,0,1-5.22-4.64V43.92H240V56.67a5,5,0,0,1-5.21,4.64"/><path class="cls-21" d="M241,99.57H189.41a1.2,1.2,0,0,1-1.28-1.38L193,76.38h44.32l4.9,21.81A1.21,1.21,0,0,1,241,99.57"/><path class="cls-21" d="M236,43.92H194.33V33.48a1.24,1.24,0,0,1,1.31-1.16h39.1a1.24,1.24,0,0,1,1.3,1.16V43.92Z"/><polygon class="cls-22" points="219.1 56.67 234.74 56.67 234.74 49.71 219.1 49.71 219.1 56.67"/><path class="cls-23" d="M225.61,83.34H204.76a1.17,1.17,0,1,1,0-2.32h20.85a1.17,1.17,0,1,1,0,2.32"/><path class="cls-23" d="M229.52,89.14H200.85a1.17,1.17,0,1,1,0-2.32h28.67a1.17,1.17,0,1,1,0,2.32"/><path class="cls-23" d="M233.43,94.93H196.94a1.17,1.17,0,1,1,0-2.32h36.49a1.17,1.17,0,1,1,0,2.32"/><path class="cls-24" d="M143.45,95.11A24.57,24.57,0,0,1,129.7,117a26.06,26.06,0,0,1-8.75,2.61,26.84,26.84,0,0,1-3.13.19,26.16,26.16,0,0,1-11.48-2.62,24.57,24.57,0,0,1-14.14-22c0-13.61,11.48-24.65,25.62-24.64S143.44,81.5,143.45,95.11Z"/><path class="cls-25" d="M142.28,102.48l27.42,26.39v11.89l-17.51,3-5-4.81v-4.81h-5l-2.5-2.4V127h-5l-8.8-8.47a25.52,25.52,0,0,0,10-6,25.89,25.89,0,0,0,2.08-2.26A24,24,0,0,0,142.28,102.48Z"/><path class="cls-26" d="M120.37,84.94a3,3,0,1,1,0,6H113.5v-6h6.87Z"/><path class="cls-26" d="M120.37,91a4.21,4.21,0,1,1,0,8.42H113.5V91Z"/><path class="cls-27" d="M120.37,99.37a4.21,4.21,0,1,0,0-8.42,3,3,0,1,0,0-6H113.5V99.36h6.87Zm13.07-6.66a15,15,0,0,1-10,14,16.17,16.17,0,0,1-11.25,0,15,15,0,0,1-10-14c0-8.3,7-15,15.62-15S133.44,84.41,133.44,92.71Z"/><path class="cls-28" d="M117.82,77.68a15.91,15.91,0,0,0-2.5.21,15.21,15.21,0,0,1,13.13,14.82,15,15,0,0,1-10,14,16.35,16.35,0,0,1-3.13.81,17.09,17.09,0,0,0,2.5.2,16.11,16.11,0,0,0,5.63-1,15,15,0,0,0,10-14C133.44,84.41,126.45,77.68,117.82,77.68Z"/><path class="cls-26" d="M123.45,106.72a16.17,16.17,0,0,1-11.25,0,15,15,0,0,1-10-14v4.8a15,15,0,0,0,10,14,16.17,16.17,0,0,0,11.25,0,15,15,0,0,0,10-14v-4.8A15,15,0,0,1,123.45,106.72Z"/><path class="cls-25" d="M117.82,70.47c-.84,0-1.67,0-2.5.12,13,1.2,23.12,11.72,23.13,24.52A24.55,24.55,0,0,1,124.7,117a26.06,26.06,0,0,1-8.75,2.61c-.21,0-.43,0-.65.06.83.08,1.67.13,2.52.13a26.84,26.84,0,0,0,3.13-.19A26.06,26.06,0,0,0,129.7,117a24.57,24.57,0,0,0,13.75-21.85C143.44,81.5,132,70.46,117.82,70.47Z"/><path class="cls-29" d="M140.13,107.21l25.15,24.21.13,10.09,4.29-.75V128.87l-27.42-26.39A24.18,24.18,0,0,1,140.13,107.21Z"/><path d="M117.82,121a27.25,27.25,0,0,1-19-7.57,25.15,25.15,0,0,1,0-36.55,27.62,27.62,0,0,1,38,0,25.19,25.19,0,0,1,0,36.56A27.23,27.23,0,0,1,117.82,121Zm0-49.29a24.69,24.69,0,0,0-17.23,6.87,22.81,22.81,0,0,0,0,33.15,25.05,25.05,0,0,0,34.47,0,22.85,22.85,0,0,0,0-33.16A24.75,24.75,0,0,0,117.82,71.67Z"/><path d="M169.7,130.07a1.27,1.27,0,0,1-.88-.35l-27.43-26.39a1.17,1.17,0,0,1,0-1.7,1.29,1.29,0,0,1,1.77,0L170.58,128a1.17,1.17,0,0,1,0,1.7A1.27,1.27,0,0,1,169.7,130.07Z"/><path d="M152.19,145a1.27,1.27,0,0,1-.88-.35l-5-4.81a1.17,1.17,0,0,1-.37-.85v-3.61h-3.75a1.28,1.28,0,0,1-.88-.35l-2.5-2.41a1.18,1.18,0,0,1-.36-.85v-3.6H134.7a1.27,1.27,0,0,1-.89-.36l-8.8-8.46a1.18,1.18,0,0,1,0-1.7,1.29,1.29,0,0,1,1.77,0l8.43,8.11h4.48a1.22,1.22,0,0,1,1.25,1.2v4.31l1.77,1.7h4.48a1.23,1.23,0,0,1,1.25,1.21v4.31l4.64,4.46a1.18,1.18,0,0,1,0,1.7A1.32,1.32,0,0,1,152.19,145Z"/><path d="M169.7,142a1.23,1.23,0,0,1-1.25-1.2v-11.9a1.25,1.25,0,0,1,2.5,0v11.9A1.23,1.23,0,0,1,169.7,142Z"/><path d="M152.19,145a1.25,1.25,0,0,1-1.23-1,1.22,1.22,0,0,1,1-1.4l17.51-3a1.24,1.24,0,0,1,1.45,1,1.2,1.2,0,0,1-1,1.4l-17.5,3Z"/><path d="M161.75,134.32a1.27,1.27,0,0,1-.88-.35l-23.74-22.83a1.17,1.17,0,0,1,0-1.7,1.29,1.29,0,0,1,1.77,0l23.73,22.83a1.17,1.17,0,0,1,0,1.7A1.27,1.27,0,0,1,161.75,134.32Z"/><path d="M113.49,100.57a1.23,1.23,0,0,1-1.25-1.2V84.94a1.25,1.25,0,0,1,2.5,0V99.37A1.23,1.23,0,0,1,113.49,100.57Z"/><path d="M120.37,100.57a1.2,1.2,0,1,1,0-2.4,3,3,0,1,0,0-6,1.2,1.2,0,1,1,0-2.4,5.41,5.41,0,1,1,0,10.82Z"/><path d="M120.37,92.15a1.2,1.2,0,1,1,0-2.4,1.81,1.81,0,1,0,0-3.61,1.2,1.2,0,1,1,0-2.4,4.21,4.21,0,1,1,0,8.41Z"/><path d="M120.37,86.14h-8.13a1.2,1.2,0,1,1,0-2.4h8.13a1.2,1.2,0,1,1,0,2.4Z"/><path d="M120.37,92.15h-6.88a1.2,1.2,0,1,1,0-2.4h6.88a1.2,1.2,0,1,1,0,2.4Z"/><path d="M120.37,100.57h-8.13a1.2,1.2,0,1,1,0-2.4h8.13a1.2,1.2,0,1,1,0,2.4Z"/><path d="M117.24,86.14a1.22,1.22,0,0,1-1.25-1.2v-1.2a1.25,1.25,0,0,1,2.5,0v1.2A1.22,1.22,0,0,1,117.24,86.14Z"/><path d="M117.24,101.77a1.22,1.22,0,0,1-1.25-1.2v-1.2a1.25,1.25,0,0,1,2.5,0v1.2A1.22,1.22,0,0,1,117.24,101.77Z"/><path d="M117.82,108.94c-9.3,0-16.87-7.28-16.87-16.23s7.57-16.23,16.87-16.23,16.88,7.28,16.88,16.23S127.13,108.94,117.82,108.94Zm0-30.06c-7.92,0-14.37,6.2-14.37,13.83s6.45,13.83,14.37,13.83,14.38-6.21,14.38-13.83S125.75,78.88,117.82,78.88Z"/><path d="M117.82,113.75c-9.3,0-16.87-7.28-16.87-16.23a1.25,1.25,0,0,1,2.5,0c0,7.62,6.45,13.83,14.37,13.83s14.38-6.21,14.38-13.83a1.25,1.25,0,0,1,2.5,0C134.7,106.47,127.13,113.75,117.82,113.75Z"/><path d="M133.45,98.72a1.22,1.22,0,0,1-1.25-1.2V92.71a1.25,1.25,0,0,1,2.5,0v4.81A1.23,1.23,0,0,1,133.45,98.72Z"/><path d="M102.2,98.72a1.23,1.23,0,0,1-1.25-1.2V92.71a1.25,1.25,0,0,1,2.5,0v4.81A1.23,1.23,0,0,1,102.2,98.72Z"/><path d="M112.2,112.74a1.22,1.22,0,0,1-1.25-1.2v-4.81a1.25,1.25,0,0,1,2.5,0v4.81A1.22,1.22,0,0,1,112.2,112.74Z"/><path d="M123.45,112.74a1.22,1.22,0,0,1-1.25-1.2v-4.81a1.25,1.25,0,0,1,2.5,0v4.81A1.22,1.22,0,0,1,123.45,112.74Z"/><text class="cls-30" transform="translate(23.05 267.2)">Multi-Sig-C<tspan class="cls-31" x="140.5" y="0">r</tspan><tspan x="152.62" y="0">y</tspan><tspan class="cls-32" x="168.38" y="0">p</tspan><tspan class="cls-33" x="186.02" y="0">t</tspan><tspan x="194.15" y="0">o</tspan></text></g></g></svg>