<?xml version="1.0" encoding="iso-8859-1"?>
<!-- Generator: Adobe Illustrator 19.0.0, SVG Export Plug-In . SVG Version: 6.00 Build 0)  -->
<svg version="1.1" id="Capa_1" xmlns="http://www.w3.org/2000/svg" xmlns:xlink="http://www.w3.org/1999/xlink" x="0px" y="0px"
	 viewBox="0 0 468.293 468.293" style="enable-background:new 0 0 468.293 468.293;" xml:space="preserve">
<path style="fill:#3A556A;" d="M467.012,127.087v66.003c0-8.833-8.532-16.059-19.103-16.059H40.568
	c-19.803,0-36.168-12.312-38.842-28.264c-0.319-1.552-0.446-3.105-0.446-4.711c0-9.154,4.393-17.397,11.526-23.339
	c7.067-5.995,16.874-9.689,27.762-9.689h407.341C458.48,111.028,467.012,118.254,467.012,127.087z"/>
<circle style="fill:#D15241;" cx="174.792" cy="124.197" r="124.197"/>
<circle style="fill:#E56353;" cx="174.792" cy="124.197" r="105.978"/>
<path style="fill:#CE412D;" d="M174.851,216.927c-6.123,0-12.165-0.587-18.039-1.743l1.376-6.997
	c5.432,1.068,11.019,1.609,16.607,1.609l0.085,6.447l-0.002,0.684C174.868,216.927,174.859,216.927,174.851,216.927z
	 M192.969,215.149l-1.393-6.997c5.489-1.092,10.886-2.732,16.043-4.875l2.738,6.586
	C204.768,212.186,198.917,213.965,192.969,215.149z M139.412,209.938c-5.597-2.313-10.991-5.191-16.031-8.558l3.96-5.932
	c4.653,3.105,9.631,5.763,14.794,7.896L139.412,209.938z M226.37,201.274l-3.971-5.925c4.639-3.11,8.998-6.694,12.955-10.656
	l5.047,5.04C236.117,194.024,231.396,197.906,226.37,201.274z M109.326,189.871c-4.289-4.275-8.176-8.991-11.555-14.016l5.921-3.981
	c3.119,4.641,6.71,8.997,10.67,12.946L109.326,189.871z M251.927,175.691l-5.928-3.967c3.112-4.653,5.775-9.629,7.912-14.787
	l6.59,2.731C258.184,165.256,255.3,170.648,251.927,175.691z M89.164,159.849c-2.332-5.594-4.115-11.444-5.301-17.384l6.994-1.397
	c1.095,5.481,2.739,10.876,4.89,16.036L89.164,159.849z M265.765,142.275l-6.997-1.383c1.08-5.465,1.627-11.083,1.627-16.696v-0.374
	h7.133v0.374C267.527,130.272,266.935,136.355,265.765,142.275z M82.062,124.384v-0.188c0-6.017,0.58-12.036,1.724-17.887
	l7.001,1.369c-1.055,5.402-1.592,10.959-1.592,16.518L82.062,124.384z M258.698,107.147c-1.108-5.477-2.764-10.867-4.927-16.024
	l6.579-2.759c2.344,5.589,4.14,11.433,5.338,17.372L258.698,107.147z M95.611,91.621l-6.597-2.717
	c2.304-5.597,5.178-10.994,8.539-16.041l5.939,3.953C100.388,81.475,97.738,86.456,95.611,91.621z M245.798,76.367
	c-3.126-4.629-6.724-8.976-10.698-12.922l5.026-5.061c4.302,4.27,8.199,8.979,11.583,13.991L245.798,76.367z M114.108,63.826
	l-5.057-5.03c4.274-4.296,8.986-8.189,14.007-11.571l3.985,5.918C122.406,56.265,118.054,59.859,114.108,63.826z M222.098,52.843
	c-4.666-3.1-9.65-5.745-14.813-7.865l2.71-6.6c5.596,2.299,10.996,5.165,16.05,8.523L222.098,52.843z M141.803,45.185l-2.752-6.583
	c5.589-2.335,11.435-4.124,17.375-5.319l1.407,6.994C152.352,41.378,146.958,43.029,141.803,45.185z M191.224,40.171
	c-5.378-1.045-10.905-1.574-16.429-1.574l-0.197-4.974l0.131-2.159c5.912,0.026,12.032,0.573,17.858,1.707L191.224,40.171z"/>
<path style="fill:#E1E6E9;" d="M196.607,124.195c7.469-5.684,11.845-14.403,11.845-23.881c0-16.592-13.499-30.091-30.091-30.091
	h-3.383v-12.42h-6.21v12.42h-7.245v-12.42h-6.21v12.42h-6.21h-7.967v12.42h7.967v35.342h-7.967v12.42h7.967v35.342h-7.967v12.42
	h7.967h6.21v12.42h6.21v-12.42h7.245v12.42h6.21v-12.42h3.383c16.592,0,30.091-13.499,30.091-30.091
	C208.452,138.598,204.076,129.879,196.607,124.195z M178.362,165.747h-16.837v-35.342h16.837c9.743,0,17.671,7.928,17.671,17.671
	C196.033,157.819,188.105,165.747,178.362,165.747z M178.362,117.985h-16.837V82.643h16.837c9.743,0,17.671,7.928,17.671,17.671
	C196.033,110.058,188.105,117.985,178.362,117.985z"/>
<circle style="fill:#31978C;" cx="318.314" cy="160.905" r="99.359"/>
<path style="fill:#3EA69B;" d="M403.132,160.915c0,46.817-37.967,84.784-84.784,84.784c-26.151,0-49.545-11.843-65.072-30.443
	L376.531,99.234C392.905,114.681,403.132,136.592,403.132,160.915z"/>
<path style="fill:#44C4A1;" d="M376.531,99.234L253.277,215.256c-12.32-14.705-19.712-33.648-19.712-54.341
	c0-46.843,37.941-84.784,84.784-84.784C340.843,76.131,361.323,84.9,376.531,99.234z"/>
<path style="fill:#EBF0F3;" d="M335.787,160.904c5.975-4.547,9.476-11.522,9.476-19.105c0-13.273-10.799-24.073-24.073-24.073
	h-2.706v-9.936h-4.968v9.936h-5.796v-9.936h-4.968v9.936h-4.968h-6.374v9.936h6.374v28.274h-6.374v9.936h6.374v28.274h-6.374v9.936
	h6.374h4.968v9.936h4.968v-9.936h5.796v9.936h4.968v-9.936h2.706c13.273,0,24.073-10.799,24.073-24.073
	C345.263,172.426,341.762,165.451,335.787,160.904z M321.19,194.146h-13.47v-28.274h13.47c7.795,0,14.137,6.342,14.137,14.137
	C335.327,187.803,328.985,194.146,321.19,194.146z M321.19,155.936h-13.47v-28.274h13.47c7.795,0,14.137,6.342,14.137,14.137
	C335.327,149.594,328.985,155.936,321.19,155.936z"/>
<path style="fill:#64798A;" d="M467.012,193.09v259.143c0,8.886-8.532,16.059-19.103,16.059H39.486
	c-21.077,0-38.206-14.346-38.206-32.118V148.713l0.446,0.054c2.674,15.952,19.039,28.264,38.842,28.264h407.341
	C458.48,177.031,467.012,184.258,467.012,193.09z"/>
<polygon style="fill:#27A2DB;" points="467.012,360.342 365.263,360.342 337.579,322.662 365.263,284.982 467.012,284.982 "/>
<circle style="fill:#1C75A1;" cx="394.24" cy="322.685" r="21.735"/>
<g>
</g>
<g>
</g>
<g>
</g>
<g>
</g>
<g>
</g>
<g>
</g>
<g>
</g>
<g>
</g>
<g>
</g>
<g>
</g>
<g>
</g>
<g>
</g>
<g>
</g>
<g>
</g>
<g>
</g>
</svg>
