<?xml version="1.0" encoding="iso-8859-1"?>
<!-- Generator: Adobe Illustrator 19.0.0, SVG Export Plug-In . SVG Version: 6.00 Build 0)  -->
<svg version="1.1" id="Capa_1" xmlns="http://www.w3.org/2000/svg" xmlns:xlink="http://www.w3.org/1999/xlink" x="0px" y="0px"
	 viewBox="0 0 507.568 507.568" style="enable-background:new 0 0 507.568 507.568;" xml:space="preserve">
<path style="fill:#ED6362;" d="M439.664,138.528H114.08l38.128,230.16h258.896c15.584,0,28.896-11.216,31.536-26.576l28.544-166.16
	C474.56,156.4,459.504,138.528,439.664,138.528z M241.616,329.984c-8.672,0.816-16.592-5.552-17.408-14.448l-13.072-108.912
	c-0.816-8.816,5.664-16.592,14.448-17.424c8.784-0.816,16.592,5.648,17.408,14.448l13.072,108.912
	C256.88,321.376,250.4,329.168,241.616,329.984z M321.472,314.048c0,8.848-7.168,16-16,16s-16-7.152-16-16V205.136
	c0-8.848,7.168-16,16-16s16,7.152,16,16V314.048z M386.736,315.536c-0.816,8.896-8.736,15.264-17.408,14.448
	c-8.8-0.832-15.28-8.608-14.448-17.424l13.072-108.912c0.8-8.8,8.592-15.296,17.408-14.448c8.8,0.832,15.28,8.608,14.448,17.424
	L386.736,315.536z"/>
<path style="fill:#CACACA;" d="M438.128,423.2H155.632c-7.824,0-14.496-5.664-15.776-13.36L83.12,70.736H16c-8.832,0-16-7.152-16-16
	s7.168-16,16-16h80.672c7.824,0,14.496,5.664,15.776,13.36l56.72,339.104h268.944c8.832,0,16,7.152,16,16
	S446.96,423.2,438.128,423.2z"/>
<path style="fill:#D3D3D3;" d="M100.8,54.816c0,8.8-7.2,16-16,16H16c-8.8,0-16-7.2-16-16c0-8.96,7.2-16,16-16h68.8
	C93.6,38.816,100.8,45.856,100.8,54.816z"/>
<circle style="fill:#464646;" cx="222.752" cy="453.136" r="45.936"/>
<circle style="fill:#CACACA;" cx="222.752" cy="453.136" r="24.464"/>
<circle style="fill:#464646;" cx="380.784" cy="453.136" r="45.936"/>
<circle style="fill:#CACACA;" cx="380.784" cy="453.136" r="24.464"/>
<g>
	<path style="fill:#EF7071;" d="M178.72,267.808c-8.976,1.488-15.04,9.952-13.552,18.928l2.08,12.576
		c1.488,8.976,9.952,15.04,18.928,13.552c8.976-1.488,15.04-9.952,13.552-18.928l-2.08-12.576
		C196.16,272.384,187.696,266.32,178.72,267.808z"/>
	<path style="fill:#EF7071;" d="M159.04,148.784c-8.976,1.488-15.04,9.952-13.552,18.928l12.816,77.504
		c1.488,8.976,9.952,15.04,18.928,13.552c8.96-1.488,15.04-9.952,13.552-18.928l-12.816-77.504
		C176.48,153.376,168,147.312,159.04,148.784z"/>
</g>
<g style="opacity:0.07;">
	<path style="fill:#010101;" d="M439.664,138.528h-64.72l-9.984,14.096l94.08,94.08l12.16-70.752
		C474.56,156.4,459.504,138.528,439.664,138.528z"/>
</g>
<circle style="fill:#FDBC4B;" cx="423.568" cy="92.496" r="84"/>
<circle style="fill:#FFCC5B;" cx="377.344" cy="58.336" r="22.528"/>
<path style="fill:#FFFFFF;" d="M472.32,94.064c-6.256-6.256-16.384-6.256-22.624,0l-10.128,10.128V42.16c0-8.848-7.168-16-16-16
	s-16,7.152-16,16v62.032L397.44,94.064c-6.256-6.256-16.384-6.256-22.624,0c-6.256,6.256-6.256,16.368,0,22.624l37.44,37.44
	c3.12,3.12,7.216,4.688,11.312,4.688s8.192-1.568,11.312-4.688l37.44-37.44C478.576,110.448,478.576,100.32,472.32,94.064z"/>
<g>
</g>
<g>
</g>
<g>
</g>
<g>
</g>
<g>
</g>
<g>
</g>
<g>
</g>
<g>
</g>
<g>
</g>
<g>
</g>
<g>
</g>
<g>
</g>
<g>
</g>
<g>
</g>
<g>
</g>
</svg>
