<?xml version="1.0" encoding="iso-8859-1"?>
<!-- Generator: Adobe Illustrator 19.0.0, SVG Export Plug-In . SVG Version: 6.00 Build 0)  -->
<svg version="1.1" id="Layer_1" xmlns="http://www.w3.org/2000/svg" xmlns:xlink="http://www.w3.org/1999/xlink" x="0px" y="0px"
	 viewBox="0 0 512 512" style="enable-background:new 0 0 512 512;" xml:space="preserve">
<path style="fill:#FA6E51;" d="M0,256.006C0,397.402,114.606,512.004,255.996,512C397.394,512.004,512,397.402,512,256.006
	C512.009,114.61,397.394,0,255.996,0C114.606,0,0,114.614,0,256.006z"/>
<path style="fill:#E8573F;" d="M511.393,272.788l-119.43-119.43h-0.001l-61.725-61.725c-0.634-0.636-1.394-1.142-2.235-1.494
	c-0.837-0.35-1.743-0.539-2.669-0.539h-124.8c-3.828,0-6.933,3.105-6.933,6.933V131.2h-76.267c-3.828,0-6.933,3.104-6.933,6.933
	v277.333c0,2.347,1.243,4.32,3.027,5.574c0.463,0.658,82.754,82.949,83.412,83.412c0.217,0.309,0.526,0.521,0.783,0.783
	c18.758,4.377,38.282,6.765,58.373,6.764C391.75,512.004,502.742,406.351,511.393,272.788z"/>
<path style="fill:#F4F6F9;" d="M401.061,163.197c-0.352-0.842-0.859-1.6-1.494-2.235l-69.329-69.329
	c-0.635-0.635-1.393-1.142-2.235-1.494c-0.838-0.35-1.744-0.539-2.67-0.539h-124.8c-3.829,0-6.933,3.104-6.933,6.933V131.2h-76.267
	c-3.829,0-6.933,3.104-6.933,6.933v277.333c0,3.829,3.104,6.933,6.933,6.933h194.133c3.829,0,6.933-3.104,6.933-6.933V380.8h76.267
	c3.829,0,6.933-3.104,6.933-6.933v-208C401.6,164.941,401.411,164.035,401.061,163.197z M332.267,113.27l45.663,45.663h-45.663
	V113.27z M304.533,408.533H124.267V145.067H235.2v62.4c0,3.829,3.104,6.933,6.933,6.933h62.4V408.533z M294.73,200.533h-45.663
	V154.87L294.73,200.533z M318.4,366.933V207.467c0-0.926-0.189-1.831-0.539-2.67c-0.352-0.842-0.859-1.6-1.494-2.235l-69.329-69.329
	c-0.635-0.635-1.393-1.142-2.235-1.494c-0.838-0.35-1.744-0.539-2.67-0.539h-34.667v-27.733H318.4v62.4
	c0,3.829,3.104,6.933,6.933,6.933h62.4v194.133H318.4z"/>
<g>
</g>
<g>
</g>
<g>
</g>
<g>
</g>
<g>
</g>
<g>
</g>
<g>
</g>
<g>
</g>
<g>
</g>
<g>
</g>
<g>
</g>
<g>
</g>
<g>
</g>
<g>
</g>
<g>
</g>
</svg>
