<?xml version="1.0" encoding="iso-8859-1"?>
<!-- Generator: Adobe Illustrator 19.0.0, SVG Export Plug-In . SVG Version: 6.00 Build 0)  -->
<svg version="1.1" id="Layer_1" xmlns="http://www.w3.org/2000/svg" xmlns:xlink="http://www.w3.org/1999/xlink" x="0px" y="0px"
	 viewBox="0 0 491.52 491.52" style="enable-background:new 0 0 491.52 491.52;" xml:space="preserve">
<circle style="fill:#E05B49;" cx="245.76" cy="245.76" r="245.76"/>
<path style="opacity:0.1;enable-background:new    ;" d="M342.17,150.538l-39.322-39.322c-0.768-1.075-1.741-2.047-2.816-2.817
	c-2.714-2.15-6.144-3.43-9.83-3.43H132.864c-8.858,0-16.026,7.168-16.026,16.026v249.549c0,3.789,1.331,7.322,3.584,10.086
	l0.102,0.102l2.15,2.15l108.143,108.143c4.947,0.296,9.921,0.494,14.942,0.494c128.756,0,234.315-99.035,244.829-225.075
	L374.682,150.538H342.17z"/>
<path style="fill:#D5D6DB;" d="M290.226,114.841H132.854c-8.847,0-16.018,7.172-16.018,16.018v239.683
	c0,8.847,7.172,16.018,16.018,16.018h157.372c8.847,0,16.018-7.172,16.018-16.018V130.859
	C306.245,122.013,299.073,114.841,290.226,114.841z"/>
<path style="fill:#EBF0F3;" d="M290.226,104.96H132.854c-8.847,0-16.018,7.172-16.018,16.018v239.683
	c0,8.846,7.172,16.018,16.018,16.018h157.372c8.847,0,16.018-7.172,16.018-16.018V120.978
	C306.245,112.132,299.073,104.96,290.226,104.96z"/>
<g>
	<path style="fill:#64798A;" d="M286.481,331.583V136.201c0-1.456-1.251-2.637-2.794-2.637H139.393
		c-1.543,0-2.794,1.181-2.794,2.637v195.382c0,1.457,1.251,2.637,2.794,2.637h144.294
		C285.231,334.221,286.481,333.04,286.481,331.583z"/>
	<circle style="fill:#64798A;" cx="211.558" cy="356.403" r="13.399"/>
</g>
<rect x="218.25" y="150.518" style="fill:#FFFFFF;" width="156.436" height="156.436"/>
<g>
	<path style="fill:#64798A;" d="M268.124,200.394h-44.003v-44.006h44.003V200.394z M235.862,188.653h20.52V168.13h-20.52V188.653z"
		/>
	<path style="fill:#64798A;" d="M368.812,200.394h-44.003v-44.006h44.003V200.394z M336.551,188.653h20.519V168.13h-20.519V188.653z
		"/>
	<path style="fill:#64798A;" d="M268.124,301.083h-44.003v-44.006h44.003V301.083z M235.862,289.341h20.52v-20.523h-20.52V289.341z"
		/>
	<rect x="224.118" y="245.268" style="fill:#64798A;" width="11.131" height="11.74"/>
	<rect x="246.374" y="233.754" style="fill:#64798A;" width="11.131" height="11.74"/>
	<rect x="224.118" y="221.798" style="fill:#64798A;" width="11.131" height="11.74"/>
	<rect x="235.249" y="233.754" style="fill:#64798A;" width="11.131" height="11.74"/>
	<rect x="268.646" y="245.268" style="fill:#64798A;" width="11.131" height="11.74"/>
	<rect x="279.772" y="233.754" style="fill:#64798A;" width="11.131" height="11.74"/>
	<rect x="257.485" y="233.754" style="fill:#64798A;" width="11.131" height="11.74"/>
	<rect x="290.903" y="245.268" style="fill:#64798A;" width="11.131" height="11.74"/>
	<rect x="313.139" y="233.754" style="fill:#64798A;" width="11.131" height="11.74"/>
	<rect x="302.029" y="233.754" style="fill:#64798A;" width="11.131" height="11.74"/>
	<rect x="324.301" y="233.754" style="fill:#64798A;" width="11.131" height="11.74"/>
	<rect x="357.683" y="221.798" style="fill:#64798A;" width="11.131" height="11.74"/>
	<rect x="346.573" y="233.754" style="fill:#64798A;" width="11.131" height="11.74"/>
	<rect x="224.118" y="198.333" style="fill:#64798A;" width="11.131" height="11.74"/>
	<rect x="246.374" y="198.333" style="fill:#64798A;" width="11.131" height="11.74"/>
	<rect x="235.249" y="210.278" style="fill:#64798A;" width="11.131" height="11.74"/>
	<rect x="279.772" y="210.278" style="fill:#64798A;" width="11.131" height="11.74"/>
	<rect x="268.646" y="210.278" style="fill:#64798A;" width="11.131" height="11.74"/>
	<rect x="257.485" y="210.278" style="fill:#64798A;" width="11.131" height="11.74"/>
	<rect x="302.029" y="198.333" style="fill:#64798A;" width="11.131" height="11.74"/>
	<rect x="302.029" y="210.278" style="fill:#64798A;" width="11.131" height="11.74"/>
	<rect x="268.646" y="174.848" style="fill:#64798A;" width="11.131" height="11.74"/>
	<rect x="290.903" y="174.848" style="fill:#64798A;" width="11.131" height="11.74"/>
	<rect x="313.139" y="174.848" style="fill:#64798A;" width="11.131" height="11.74"/>
	<rect x="302.029" y="186.819" style="fill:#64798A;" width="11.131" height="11.74"/>
	<rect x="290.903" y="163.348" style="fill:#64798A;" width="11.131" height="11.74"/>
	<rect x="302.029" y="163.348" style="fill:#64798A;" width="11.131" height="11.74"/>
	<rect x="335.411" y="198.333" style="fill:#64798A;" width="11.131" height="11.74"/>
	<rect x="324.301" y="210.278" style="fill:#64798A;" width="11.131" height="11.74"/>
	<rect x="357.683" y="198.333" style="fill:#64798A;" width="11.131" height="11.74"/>
	<rect x="346.573" y="210.278" style="fill:#64798A;" width="11.131" height="11.74"/>
	<rect x="290.903" y="268.749" style="fill:#64798A;" width="11.131" height="11.74"/>
	<rect x="279.772" y="280.694" style="fill:#64798A;" width="11.131" height="11.74"/>
	<rect x="240.558" y="273.203" style="fill:#64798A;" width="11.131" height="11.74"/>
	<rect x="341.248" y="172.518" style="fill:#64798A;" width="11.131" height="11.74"/>
	<rect x="240.558" y="172.518" style="fill:#64798A;" width="11.131" height="11.74"/>
	<rect x="324.301" y="268.749" style="fill:#64798A;" width="11.131" height="11.74"/>
	<rect x="335.411" y="268.749" style="fill:#64798A;" width="11.131" height="11.74"/>
	<rect x="335.411" y="256.768" style="fill:#64798A;" width="11.131" height="11.74"/>
	<rect x="335.411" y="244.833" style="fill:#64798A;" width="11.131" height="11.74"/>
	<rect x="357.683" y="268.749" style="fill:#64798A;" width="11.131" height="11.74"/>
	<rect x="346.573" y="280.694" style="fill:#64798A;" width="11.131" height="11.74"/>
	<path style="fill:#64798A;" d="M236.833,115.721h-50.586c-2.469,0-4.471,2.001-4.471,4.471c0,2.469,2.002,4.471,4.471,4.471h50.586
		c2.469,0,4.47-2.002,4.47-4.471C241.303,117.722,239.303,115.721,236.833,115.721z"/>
</g>
<g>
</g>
<g>
</g>
<g>
</g>
<g>
</g>
<g>
</g>
<g>
</g>
<g>
</g>
<g>
</g>
<g>
</g>
<g>
</g>
<g>
</g>
<g>
</g>
<g>
</g>
<g>
</g>
<g>
</g>
</svg>
