<?xml version="1.0" encoding="iso-8859-1"?>
<!-- Generator: Adobe Illustrator 19.0.0, SVG Export Plug-In . SVG Version: 6.00 Build 0)  -->
<svg version="1.1" id="Layer_1" xmlns="http://www.w3.org/2000/svg" xmlns:xlink="http://www.w3.org/1999/xlink" x="0px" y="0px"
	 viewBox="0 0 512.003 512.003" style="enable-background:new 0 0 512.003 512.003;" xml:space="preserve">
<path style="fill:#0575A5;" d="M512.003,256.001c0,141.389-114.614,256-256.003,256S0,397.39,0,256.001
	c0-141.391,114.614-256,256-256S512.003,114.61,512.003,256.001z"/>
<path style="fill:#025E90;" d="M384.005,147.521l-256,110.922l231.631,231.639c84.311-37.386,144.612-118.93,151.606-215.316
	L384.005,147.521z"/>
<g>
	<path style="fill:#FFFFFF;" d="M217.523,345.146c-0.013,0-0.028,0-0.046,0c-0.655-0.028-1.17-0.576-1.142-1.234
		c0.067-1.764,0.046-3.574-0.064-5.376c-0.041-0.653,0.458-1.221,1.111-1.254c0.643-0.1,1.224,0.456,1.262,1.108
		c0.115,1.876,0.136,3.766,0.067,5.612C218.685,344.646,218.158,345.146,217.523,345.146z"/>
	<path style="fill:#FFFFFF;" d="M119.908,454.903c-0.343,0-0.681-0.156-0.919-0.435c-0.415-0.504-0.34-1.257,0.169-1.672
		c2.788-2.289,5.571-4.646,8.33-7.066c0.484-0.443,1.242-0.384,1.674,0.105c0.43,0.492,0.381,1.244-0.108,1.679
		c-2.78,2.437-5.583,4.818-8.389,7.114C120.44,454.821,120.174,454.903,119.908,454.903z M136.392,440.436
		c-0.317,0-0.632-0.125-0.87-0.379c-0.445-0.479-0.422-1.226,0.056-1.677c2.662-2.493,5.297-5.059,7.828-7.613
		c0.461-0.471,1.211-0.471,1.682-0.015c0.463,0.466,0.471,1.216,0.005,1.685c-2.55,2.578-5.204,5.171-7.887,7.685
		C136.973,440.332,136.678,440.436,136.392,440.436z M151.8,424.846c-0.287,0-0.576-0.1-0.801-0.31
		c-0.484-0.443-0.52-1.201-0.077-1.677c2.486-2.724,4.895-5.494,7.16-8.225c0.422-0.504,1.17-0.584,1.674-0.161
		s0.576,1.172,0.156,1.672c-2.291,2.767-4.728,5.571-7.235,8.315C152.443,424.718,152.123,424.846,151.8,424.846z M165.76,407.953
		c-0.243,0-0.492-0.077-0.707-0.238c-0.527-0.387-0.64-1.124-0.248-1.656c2.237-3.036,4.308-6.054,6.167-8.97
		c0.351-0.548,1.088-0.714,1.641-0.366c0.556,0.353,0.717,1.091,0.366,1.646c-1.882,2.962-3.988,6.019-6.257,9.101
		C166.484,407.779,166.129,407.953,165.76,407.953z M177.981,388.957l-0.607-0.008c-0.655-0.028-1.167-0.576-1.142-1.234
		c0.018-0.463,0.294-0.85,0.689-1.032c1.523-3.005,2.844-5.985,3.922-8.85c0.23-0.617,0.909-0.927,1.533-0.694
		c0.612,0.233,0.919,0.911,0.689,1.533c-0.963,2.563-2.109,5.194-3.42,7.872c2.801-0.141,5.568-0.617,8.233-1.426
		c0.637-0.189,1.288,0.166,1.487,0.786c0.189,0.632-0.164,1.293-0.794,1.49C185.155,388.43,181.588,388.957,177.981,388.957z
		 M166.63,387.214c-0.108,0-0.22-0.013-0.33-0.041c-3.622-1.047-7.104-2.481-10.355-4.25c-0.576-0.31-0.791-1.024-0.479-1.608
		c0.317-0.579,1.037-0.796,1.61-0.479c3.1,1.685,6.431,3.046,9.887,4.052c0.625,0.182,0.991,0.842,0.806,1.467
		C167.624,386.884,167.148,387.214,166.63,387.214z M198.062,382.714c-0.379,0-0.75-0.182-0.983-0.527
		c-0.366-0.54-0.225-1.277,0.317-1.651c2.872-1.946,5.519-4.339,7.869-7.114c0.425-0.504,1.175-0.563,1.674-0.133
		c0.502,0.42,0.563,1.172,0.141,1.669c-2.493,2.936-5.302,5.481-8.351,7.542C198.525,382.644,198.292,382.714,198.062,382.714z
		 M147.551,376.8c-0.282,0-0.563-0.097-0.786-0.294c-2.811-2.486-5.332-5.294-7.488-8.343c-0.379-0.535-0.253-1.277,0.282-1.656
		c0.535-0.379,1.28-0.253,1.656,0.287c2.051,2.895,4.449,5.571,7.122,7.931c0.492,0.435,0.54,1.188,0.105,1.669
		C148.204,376.667,147.881,376.8,147.551,376.8z M185.014,368.925c-0.077,0-0.154-0.008-0.23-0.028
		c-0.645-0.128-1.062-0.753-0.934-1.398c0.64-3.231,0.965-6.397,0.965-9.398c0-0.415-0.003-0.814-0.018-1.224
		c-0.02-0.66,0.499-1.208,1.152-1.226c0.765,0.028,1.208,0.497,1.224,1.157c0.013,0.43,0.02,0.858,0.02,1.293
		c0,3.151-0.34,6.474-1.011,9.861C186.066,368.534,185.567,368.925,185.014,368.925z M212.186,366.243
		c-0.182,0-0.361-0.044-0.532-0.128c-0.584-0.294-0.822-1.004-0.527-1.592c1.577-3.146,2.824-6.518,3.702-10.015
		c0.161-0.632,0.814-1.024,1.441-0.865c0.64,0.161,1.024,0.806,0.863,1.446c-0.919,3.661-2.227,7.194-3.884,10.501
		C213.038,366.007,212.621,366.243,212.186,366.243z M135.032,359.052c-0.474,0-0.924-0.287-1.106-0.758
		c-1.411-3.574-2.34-7.247-2.739-10.9c-0.074-0.653,0.399-1.242,1.05-1.313c0.622-0.064,1.239,0.392,1.313,1.052
		c0.379,3.443,1.249,6.902,2.588,10.291c0.238,0.617-0.059,1.298-0.671,1.546C135.324,359.023,135.176,359.052,135.032,359.052z
		 M184.535,347.188c-0.532,0-1.024-0.371-1.152-0.911c-0.845-3.561-2.051-6.938-3.592-10.043c-0.292-0.596-0.054-1.3,0.538-1.595
		c0.584-0.294,1.298-0.054,1.59,0.535c1.623,3.264,2.893,6.812,3.776,10.547c0.156,0.64-0.243,1.28-0.881,1.434
		C184.722,347.176,184.627,347.188,184.535,347.188z M132.859,337.548c-0.084,0-0.169-0.005-0.253-0.028
		c-0.645-0.141-1.05-0.765-0.914-1.413c0.837-3.876,2.353-7.38,4.513-10.435c0.379-0.527,1.121-0.653,1.656-0.274
		c0.538,0.379,0.663,1.119,0.284,1.656c-1.974,2.775-3.364,5.993-4.129,9.559C133.898,337.169,133.402,337.548,132.859,337.548z
		 M174.758,327.822c-0.323,0-0.645-0.136-0.886-0.394c-2.465-2.752-5.222-4.964-8.184-6.587c-0.576-0.315-0.786-1.039-0.474-1.615
		c0.315-0.563,1.039-0.788,1.615-0.471c3.2,1.748,6.167,4.129,8.814,7.086c0.443,0.484,0.399,1.236-0.092,1.679
		C175.327,327.715,175.048,327.822,174.758,327.822z M145.27,320.306c-0.425,0-0.837-0.233-1.047-0.632
		c-0.31-0.579-0.092-1.301,0.484-1.615c3.146-1.679,6.538-2.529,10.092-2.529c0.33-0.036,0.724,0.008,1.096,0.028
		c0.653,0.038,1.16,0.596,1.124,1.252c-0.036,0.66-0.576,1.254-1.249,1.121c-0.323-0.015-0.645,0.015-0.97-0.02
		c-3.156,0-6.172,0.758-8.97,2.248C145.649,320.257,145.459,320.306,145.27,320.306z"/>
	<path style="fill:#FFFFFF;" d="M108.564,463.684c-0.366,0-0.722-0.169-0.955-0.479c-0.392-0.535-0.279-1.272,0.246-1.664
		c1.446-1.075,2.9-2.179,4.357-3.295c0.525-0.392,1.267-0.3,1.669,0.212c0.399,0.525,0.302,1.27-0.218,1.669
		c-1.467,1.132-2.931,2.24-4.388,3.315C109.059,463.607,108.81,463.684,108.564,463.684z"/>
</g>
<polygon style="fill:#B8D1E6;" points="183.327,274.198 216.617,346.932 384,147.521 "/>
<polygon style="fill:#F28124;" points="242.03,237.139 183.327,274.198 216.617,346.932 265.582,288.595 "/>
<g>
	<polygon style="fill:#F2F9FF;" points="208.133,281.248 298.916,307.073 384,147.521 	"/>
	<polygon style="fill:#F2F9FF;" points="128,258.444 183.327,274.198 384,147.521 	"/>
</g>
<polygon style="fill:#FF8E31;" points="216.617,346.932 208.133,281.248 259.507,295.843 "/>
<g>
	<polygon style="fill:#FF9D4D;" points="128,258.444 242.03,237.139 183.327,274.198 	"/>
	<polygon style="fill:#FF9D4D;" points="259.507,242.195 208.133,281.248 298.916,307.073 	"/>
</g>
<g>
</g>
<g>
</g>
<g>
</g>
<g>
</g>
<g>
</g>
<g>
</g>
<g>
</g>
<g>
</g>
<g>
</g>
<g>
</g>
<g>
</g>
<g>
</g>
<g>
</g>
<g>
</g>
<g>
</g>
</svg>
