<?xml version="1.0" encoding="iso-8859-1"?>
<!-- Generator: Adobe Illustrator 19.0.0, SVG Export Plug-In . SVG Version: 6.00 Build 0)  -->
<svg version="1.1" id="Capa_1" xmlns="http://www.w3.org/2000/svg" xmlns:xlink="http://www.w3.org/1999/xlink" x="0px" y="0px"
	 viewBox="0 0 512 512" style="enable-background:new 0 0 512 512;" xml:space="preserve">
<rect x="44" y="448" style="fill:#63CE68;" width="64" height="54"/>
<rect x="278.98" y="342.75" style="fill:#44C5CB;" width="64" height="159.25"/>
<rect x="396" y="292" style="fill:#FEB756;" width="64" height="210"/>
<rect x="162" y="384" style="fill:#F25353;" width="64" height="118"/>
<circle style="fill:#FEDBAB;" cx="183.85" cy="130" r="120"/>
<circle style="fill:#FEB756;" cx="183.85" cy="130" r="87.77"/>
<path d="M502,492h-32V292c0-5.523-4.477-10-10-10h-64c-5.523,0-10,4.477-10,10v66.086c0,5.523,4.477,10,10,10s10-4.477,10-10V302h44
	v190h-44v-54.914c0-5.523-4.477-10-10-10s-10,4.477-10,10V492h-33.016V342.75c0-5.523-4.477-10-10-10h-64c-5.523,0-10,4.477-10,10
	V492H236V384c0-5.523-4.477-10-10-10h-64c-5.523,0-10,4.477-10,10v108h-34v-44c0-5.523-4.477-10-10-10H44c-5.523,0-10,4.477-10,10
	v44H20V10c0-5.523-4.477-10-10-10S0,4.477,0,10v492c0,5.523,4.477,10,10,10h492c5.523,0,10-4.477,10-10S507.523,492,502,492z
	 M54,492v-34h44v34H54z M172,492v-98h44v98H172z M288.984,492V352.75h44V492H288.984z"/>
<path d="M396,405.779c2.63,0,5.21-1.07,7.07-2.93c1.86-1.86,2.93-4.44,2.93-7.07s-1.07-5.21-2.93-7.07
	c-1.86-1.86-4.44-2.93-7.07-2.93s-5.21,1.07-7.07,2.93c-1.86,1.86-2.93,4.44-2.93,7.07s1.07,5.21,2.93,7.07
	C390.79,404.709,393.37,405.779,396,405.779z"/>
<path d="M415.79,174h29.292C353.128,283.452,219.257,346,76,346c-5.523,0-10,4.477-10,10s4.477,10,10,10
	c77.48,0,151.781-17.18,220.838-51.064C357.623,285.112,412.682,242.399,457,190.848v24.362c0,5.523,4.477,10,10,10s10-4.477,10-10
	V164c0-5.523-4.477-10-10-10h-51.21c-5.523,0-10,4.477-10,10S410.267,174,415.79,174z"/>
<path d="M183.854,260c71.682,0,130-58.318,130-130s-58.318-130-130-130s-130,58.318-130,130S112.172,260,183.854,260z M183.854,20
	c60.654,0,110,49.346,110,110s-49.346,110-110,110s-110-49.346-110-110S123.2,20,183.854,20z"/>
<path d="M108.971,152.025c-7.928-27.351-0.358-56.835,19.755-76.949c30.414-30.412,79.897-30.412,110.309,0
	c14.732,14.732,22.846,34.32,22.846,55.154s-8.113,40.422-22.846,55.154c-20.472,20.472-50.401,27.91-78.104,19.411
	c-5.278-1.619-10.873,1.348-12.493,6.628s1.348,10.874,6.628,12.493c9.516,2.918,19.235,4.34,28.869,4.34
	c25.597,0,50.556-10.044,69.242-28.729c18.51-18.51,28.704-43.12,28.704-69.297s-10.194-50.787-28.704-69.297
	c-38.21-38.209-100.382-38.209-138.593,0c-25.269,25.269-34.78,62.307-24.822,96.66c1.538,5.305,7.086,8.358,12.389,6.82
	C107.455,162.876,110.508,157.33,108.971,152.025z"/>
<path d="M224.17,108.338c0-17.238-13.702-31.328-30.786-31.969v-3.36c0-5.523-4.477-10-10-10s-10,4.477-10,10v3.329h-19.797
	c-5.523,0-10,4.477-10,10c0,5.122,3.853,9.338,8.818,9.924v68.152c-4.965,0.586-8.818,4.802-8.818,9.924c0,5.523,4.477,10,10,10
	h19.797v3.186c0,5.523,4.477,10,10,10s10-4.477,10-10v-3.217c17.084-0.642,30.786-14.731,30.786-31.969
	c0-8.517-3.351-16.26-8.795-22C220.82,124.599,224.17,116.855,224.17,108.338z M192.17,164.338h-19.765v-24h19.765
	c6.617,0,12,5.383,12,12S198.787,164.338,192.17,164.338z M192.17,120.338h-19.765v-24h19.765c6.617,0,12,5.383,12,12
	S198.787,120.338,192.17,120.338z"/>
<path d="M114.501,185.465c-3.888,3.922-3.861,10.253,0.061,14.142c1.95,1.933,4.496,2.898,7.04,2.898
	c2.574,0,5.146-0.987,7.102-2.959l0.057-0.057c3.888-3.922,3.833-10.225-0.089-14.113
	C124.75,181.488,118.391,181.542,114.501,185.465z"/>
<g>
</g>
<g>
</g>
<g>
</g>
<g>
</g>
<g>
</g>
<g>
</g>
<g>
</g>
<g>
</g>
<g>
</g>
<g>
</g>
<g>
</g>
<g>
</g>
<g>
</g>
<g>
</g>
<g>
</g>
</svg>
