<?xml version="1.0" encoding="iso-8859-1"?>
<!-- Generator: Adobe Illustrator 19.0.0, SVG Export Plug-In . SVG Version: 6.00 Build 0)  -->
<svg version="1.1" id="Capa_1" xmlns="http://www.w3.org/2000/svg" xmlns:xlink="http://www.w3.org/1999/xlink" x="0px" y="0px"
	 viewBox="0 0 512.003 512.003" style="enable-background:new 0 0 512.003 512.003;" xml:space="preserve">
<g>
	<polygon style="fill:#828282;" points="401.047,426.702 452.257,426.702 452.257,358.422 418.117,358.422 401.047,358.422 	"/>
	<path style="fill:#828282;" d="M328.26,426.702h72.787v-68.28h17.07v-68.28h-53.25c14.86,97.146-51.859,187.942-149.005,202.801
		c-9.329,1.425-18.751,2.108-28.191,2.04h110.956l0,0h51.21v-68.28L328.26,426.702L328.26,426.702z"/>
	<path style="fill:#828282;" d="M340.141,221.861h9.696v-68.28h-86.204c54.573,25.588,92.614,76.909,101.234,136.561h36.18v-68.28
		H340.141z"/>
	<rect x="349.837" y="426.702" style="fill:#828282;" width="51.21" height="68.28"/>
	<polygon style="fill:#828282;" points="349.837,153.581 349.837,221.861 401.047,221.861 401.047,153.581 375.442,153.581 	"/>
	<polygon style="fill:#828282;" points="375.442,85.3 375.442,153.581 401.047,153.581 426.652,153.581 426.652,85.3 401.047,85.3 	
		"/>
	<path style="fill:#828282;" d="M263.633,153.581h9.389V85.3h-51.21l0,0h-51.21l0,0h-51.21v64.755
		C165.813,130.835,218.201,132.115,263.633,153.581z"/>
	<polygon style="fill:#828282;" points="426.652,85.3 426.652,153.581 452.257,153.581 477.862,153.581 477.862,85.3 452.257,85.3 	
		"/>
	<polygon style="fill:#828282;" points="401.047,290.141 418.117,290.141 452.257,290.141 452.257,221.861 401.047,221.861 	"/>
	<polygon style="fill:#828282;" points="418.117,290.141 418.117,358.422 452.257,358.422 469.327,358.422 469.327,290.141 
		452.257,290.141 	"/>
	<rect x="401.047" y="426.702" style="fill:#828282;" width="51.21" height="68.28"/>
	<rect x="452.257" y="426.702" style="fill:#828282;" width="51.21" height="68.28"/>
	<polygon style="fill:#828282;" points="452.257,426.702 503.468,426.702 503.468,358.422 469.327,358.422 452.257,358.422 	"/>
	<polygon style="fill:#828282;" points="401.047,153.581 401.047,221.861 452.257,221.861 452.257,153.581 426.652,153.581 	"/>
	<polygon style="fill:#828282;" points="324.232,85.3 298.627,85.3 273.021,85.3 273.021,153.581 324.232,153.581 	"/>
	<polygon style="fill:#828282;" points="349.837,153.581 375.442,153.581 375.442,85.3 349.837,85.3 324.232,85.3 324.232,153.581 	
		"/>
	<polygon style="fill:#828282;" points="469.327,290.141 503.468,290.141 503.468,221.861 452.257,221.861 452.257,290.141 	"/>
</g>
<path style="fill:#F06E17;" d="M366.907,315.747c-0.068-8.569-0.751-17.13-2.04-25.605l0,0
	c-8.62-59.651-46.661-110.973-101.234-136.561l0,0c-45.432-21.466-97.812-22.746-144.242-3.525l0,0
	C27.869,187.764-15.762,292.531,21.946,384.052s142.475,135.152,233.997,97.436C323.105,453.826,366.915,388.371,366.907,315.747z"
	/>
<g>
	<polygon style="fill:#828282;" points="196.206,85.3 196.206,17.02 144.996,17.02 144.996,85.3 170.601,85.3 	"/>
	<polygon style="fill:#828282;" points="426.652,85.3 452.257,85.3 452.257,17.02 401.047,17.02 401.047,85.3 	"/>
	<polygon style="fill:#828282;" points="324.232,85.3 349.837,85.3 349.837,17.02 298.627,17.02 298.627,85.3 	"/>
	<polygon style="fill:#828282;" points="273.021,85.3 298.627,85.3 298.627,17.02 247.416,17.02 247.416,85.3 	"/>
	<polygon style="fill:#828282;" points="221.811,85.3 247.416,85.3 247.416,17.02 196.206,17.02 196.206,85.3 	"/>
	<polygon style="fill:#828282;" points="452.257,85.3 477.862,85.3 503.468,85.3 503.468,17.02 452.257,17.02 	"/>
	<polygon style="fill:#828282;" points="375.442,85.3 401.047,85.3 401.047,17.02 349.837,17.02 349.837,85.3 	"/>
</g>
<path style="fill:#FFCD3A;" d="M187.671,170.651c-80.135,0-145.096,64.96-145.096,145.096s64.96,145.096,145.096,145.096
	s145.096-64.96,145.096-145.096S267.807,170.651,187.671,170.651z"/>
<path style="fill:#FFF8D1;" d="M247.416,268.804c0-25.929-21.013-46.943-46.943-46.943h-64.013v34.14h17.07v119.491h-17.07v34.14
	h64.013c25.929,0,46.943-21.013,46.943-46.943s-8.211-46.943-34.14-46.943C239.206,315.747,247.416,294.733,247.416,268.804z
	 M196.206,375.492h-8.535v-34.14h8.535c9.431,0,17.07,7.639,17.07,17.07S205.637,375.492,196.206,375.492z M196.206,290.141h-8.535
	v-34.14h8.535c9.431,0,17.07,7.639,17.07,17.07S205.637,290.141,196.206,290.141z"/>
<path d="M503.468,8.485H144.996c-4.711,0-8.535,3.824-8.535,8.535v59.745h-17.07c-4.711,0-8.535,3.824-8.535,8.535v59.173
	C16.262,186.978-25.961,298.122,16.543,392.716c30.282,67.384,97.248,110.751,171.128,110.802h315.797
	c4.711,0,8.535-3.824,8.535-8.535V358.422c0-4.711-3.824-8.535-8.535-8.535h-25.605v-51.21h25.605c4.711,0,8.535-3.824,8.535-8.535
	v-68.28c0-4.711-3.824-8.535-8.535-8.535h-42.675v-51.21h17.07c4.711,0,8.535-3.824,8.535-8.535V93.836h17.07
	c4.711,0,8.535-3.824,8.535-8.535V17.02C512.003,12.309,508.179,8.485,503.468,8.485z M409.582,76.765v-51.21h34.14v51.21H409.582z
	 M383.977,145.046v-51.21h34.14v51.21H383.977z M443.722,281.606h-34.14v-51.21h34.14V281.606z M358.372,76.765v-51.21h34.14v51.21
	H358.372z M332.767,145.046v-51.21h34.14v51.21H332.767z M315.697,93.836v51.21h-34.14v-51.21
	C281.556,93.835,315.697,93.835,315.697,93.836z M341.302,76.765h-34.14v-51.21h34.14V76.765z M290.092,76.765h-34.14v-51.21h34.14
	V76.765z M238.881,76.765h-34.14v-51.21h34.14V76.765z M213.276,93.836v35.933c-8.484-1.178-17.036-1.784-25.605-1.792
	c-2.859,0-5.701,0.085-8.535,0.213V93.835C179.136,93.835,213.276,93.835,213.276,93.836z M230.346,93.836h34.14v50.638
	c-10.976-4.942-22.413-8.817-34.14-11.548V93.836z M341.302,162.116v45.867c-12.538-17.813-28.055-33.329-45.867-45.867H341.302z
	 M392.512,230.396v51.21h-20.237c-3.295-17.83-9.167-35.079-17.437-51.21H392.512z M368.281,366.957h24.231v51.21h-47.583
	C355.257,402.377,363.126,385.111,368.281,366.957z M392.512,435.237v51.21h-34.14v-51.21H392.512z M409.582,435.237h34.14v51.21
	h-34.14V435.237z M409.582,418.167v-51.21h34.14v51.21H409.582z M372.275,349.887c2.091-11.258,3.149-22.686,3.167-34.14
	c0-5.761-0.299-11.445-0.811-17.07h34.951v51.21H372.275z M358.372,213.326v-51.21h34.14v51.21H358.372z M153.531,25.555h34.14
	v51.21h-34.14V25.555z M127.926,93.836h34.14v35.933c-11.608,1.588-23.036,4.276-34.14,8.006
	C127.926,137.774,127.926,93.836,127.926,93.836z M16.97,315.747c0-94.278,76.423-170.701,170.701-170.701
	s170.701,76.423,170.701,170.701s-76.423,170.701-170.701,170.701C93.444,486.336,17.081,409.973,16.97,315.747z M290.092,473.005
	v13.443H265.75C274.182,482.572,282.325,478.083,290.092,473.005z M307.162,486.447v-25.964
	c9.192-7.605,17.642-16.054,25.247-25.247h8.894v51.21H307.162z M494.932,486.447h-34.14v-51.21h34.14V486.447z M494.932,418.167
	h-34.14v-51.21h34.14V418.167z M460.792,349.887h-34.14v-51.21h34.14V349.887z M494.932,281.606h-34.14v-51.21h34.14V281.606z
	 M443.722,213.326h-34.14v-51.21h34.14V213.326z M469.327,145.046h-34.14v-51.21h34.14V145.046z M494.932,76.765h-34.14v-51.21
	h34.14V76.765z"/>
<path d="M221.811,273.071c0-14.143-11.463-25.605-25.605-25.605h-8.535c-4.711,0-8.535,3.824-8.535,8.535v34.14
	c0,4.711,3.824,8.535,8.535,8.535h8.535C210.349,298.676,221.811,287.214,221.811,273.071z M196.206,281.606v-17.07
	c4.711,0,8.535,3.824,8.535,8.535C204.741,277.783,200.917,281.606,196.206,281.606z"/>
<path d="M187.671,332.817c-4.711,0-8.535,3.824-8.535,8.535v34.14c0,4.711,3.824,8.535,8.535,8.535h8.535
	c14.143,0,25.605-11.463,25.605-25.605s-11.463-25.605-25.605-25.605H187.671z M204.741,358.422c0,4.711-3.824,8.535-8.535,8.535
	v-17.07C200.917,349.887,204.741,353.71,204.741,358.422z"/>
<path d="M255.951,268.804c-0.026-28.968-22.328-53.037-51.21-55.264v-17.283h-17.07v17.07h-17.07v-17.07h-17.07v17.07h-17.07
	c-4.711,0-8.535,3.824-8.535,8.535v34.14c0,4.711,3.824,8.535,8.535,8.535h8.535v102.42h-8.535c-4.711,0-8.535,3.824-8.535,8.535
	v34.14c0,4.711,3.824,8.535,8.535,8.535h25.605v17.07h17.07v-17.07h8.535v17.07h17.07v-17.283
	c28.883-2.228,51.185-26.296,51.21-55.264c0-25.306-7.349-39.329-16.643-46.943C248.603,308.133,255.951,294.11,255.951,268.804z
	 M213.276,324.282c6.999,0,25.605,0,25.605,38.408c-0.026,21.201-17.207,38.382-38.408,38.408h-55.478v-17.07h8.535
	c4.711,0,8.535-3.824,8.535-8.535V256.001c0-4.711-3.824-8.535-8.535-8.535h-8.535v-17.07h55.478
	c21.201,0.026,38.382,17.207,38.408,38.408c0,38.408-18.606,38.408-25.605,38.408c-4.711,0-8.535,3.824-8.535,8.535
	S208.565,324.282,213.276,324.282z"/>
<path d="M187.671,162.116c-84.847,0-153.631,68.784-153.631,153.631s68.784,153.631,153.631,153.631s153.631-68.784,153.631-153.631
	C341.199,230.942,272.475,162.218,187.671,162.116z M187.671,452.307c-75.424,0-136.561-61.137-136.561-136.561
	s61.136-136.561,136.561-136.561s136.561,61.137,136.561,136.561C324.138,391.128,263.053,452.222,187.671,452.307z"/>
<g>
</g>
<g>
</g>
<g>
</g>
<g>
</g>
<g>
</g>
<g>
</g>
<g>
</g>
<g>
</g>
<g>
</g>
<g>
</g>
<g>
</g>
<g>
</g>
<g>
</g>
<g>
</g>
<g>
</g>
</svg>
