<?xml version="1.0" encoding="iso-8859-1"?>
<!-- Generator: Adobe Illustrator 19.0.0, SVG Export Plug-In . SVG Version: 6.00 Build 0)  -->
<svg version="1.1" id="Capa_1" xmlns="http://www.w3.org/2000/svg" xmlns:xlink="http://www.w3.org/1999/xlink" x="0px" y="0px"
	 viewBox="0 0 512 512" style="enable-background:new 0 0 512 512;" xml:space="preserve">
<path style="fill:#0A4EAF;" d="M471,301V20H41v281L0,462v30h512v-30L471,301z"/>
<g>
	<polygon style="fill:#063E8B;" points="471,301 471,20 256,20 256,492 512,492 512,462 	"/>
	<polygon style="fill:#063E8B;" points="41,301 0,462 512,462 471,301 	"/>
</g>
<polygon style="fill:#032E68;" points="256,462 512,462 471,301 256,301 "/>
<rect x="71" y="50" style="fill:#DCF4FF;" width="370" height="221"/>
<rect x="256" y="50" style="fill:#CCEFFF;" width="185" height="221"/>
<rect x="226" y="402" style="fill:#0A4EAF;" width="60" height="30"/>
<g>
	<circle style="fill:#39C453;" cx="256" cy="223" r="20"/>
	<path style="fill:#39C453;" d="M291.355,187.645C281.912,178.201,269.355,173,256,173s-25.912,5.201-35.355,14.645l-21.213-21.213
		C214.541,151.321,234.631,143,256,143s41.459,8.321,56.568,23.432L291.355,187.645z"/>
	<path style="fill:#39C453;" d="M333.782,145.218C313.006,124.442,285.382,113,256,113s-57.006,11.442-77.782,32.218l-21.213-21.213
		C183.447,97.563,218.604,83,256,83s72.553,14.563,98.995,41.005L333.782,145.218z"/>
</g>
<g>
	<path style="fill:#00A621;" d="M256,173c13.355,0,25.912,5.201,35.355,14.645l21.213-21.213C297.459,151.321,277.369,143,256,143
		V173z"/>
	<path style="fill:#00A621;" d="M256,203v40c5.118,0,10.237-1.953,14.142-5.858c7.811-7.81,7.811-20.474,0-28.284
		C266.237,204.953,261.118,203,256,203z"/>
	<path style="fill:#00A621;" d="M256,83v30c29.382,0,57.006,11.442,77.782,32.218l21.213-21.213C328.553,97.563,293.396,83,256,83z"
		/>
</g>
<rect x="256" y="402" style="fill:#063E8B;" width="30" height="30"/>
<g>
</g>
<g>
</g>
<g>
</g>
<g>
</g>
<g>
</g>
<g>
</g>
<g>
</g>
<g>
</g>
<g>
</g>
<g>
</g>
<g>
</g>
<g>
</g>
<g>
</g>
<g>
</g>
<g>
</g>
</svg>
