<?xml version="1.0" encoding="iso-8859-1"?>
<!-- Generator: Adobe Illustrator 19.0.0, SVG Export Plug-In . SVG Version: 6.00 Build 0)  -->
<svg version="1.1" id="Capa_1" xmlns="http://www.w3.org/2000/svg" xmlns:xlink="http://www.w3.org/1999/xlink" x="0px" y="0px"
	 viewBox="0 0 512 512" style="enable-background:new 0 0 512 512;" xml:space="preserve">
<path style="fill:#DDEDE5;" d="M389.832,6.181v378.21L262.234,512H31.288c-3.414,0-6.181-2.767-6.181-6.181V6.181
	C25.107,2.767,27.874,0,31.288,0h352.363C387.065,0,389.832,2.767,389.832,6.181z"/>
<path style="fill:#AFC3C3;" d="M389.832,90.553v129.721l-22.52,22.52c-4.832,4.821-12.651,4.821-17.482,0l-0.732-0.731
	L182.924,408.237c-1.071,1.071-2.33,1.937-3.715,2.553l-45.078,20.063c-2.895,1.298-5.934,1.947-9.045,1.947
	c-7.489,0-14.423-3.791-18.553-10.147c-4.069-6.284-4.677-14.134-1.617-21.016l20.073-45.079c0.616-1.383,1.481-2.642,2.552-3.713
	L389.832,90.553z"/>
<path style="fill:#35696A;" d="M124.401,427.134H82.309c-4.268,0-7.726-3.459-7.726-7.726s3.459-7.726,7.726-7.726h42.092
	c4.268,0,7.726,3.459,7.726,7.726S128.668,427.134,124.401,427.134z"/>
<path style="fill:#AFC3C3;" d="M389.832,370.999v13.392L262.234,512h-13.392l-0.896-116.802c-0.051-6.367,2.39-12.362,6.871-16.885
	c4.471-4.523,10.446-7.016,16.802-7.036L389.832,370.999z"/>
<path style="fill:#35696A;" d="M389.837,384.395l-118.184,0.277c-5.734,0.013-10.362,4.689-10.318,10.422L262.232,512
	L389.837,384.395z"/>
<circle style="fill:#FF9900;" cx="113.57" cy="119.6" r="37.26"/>
<g>
	<path style="fill:#35696A;" d="M143.319,233.552h-61.01c-4.268,0-7.726-3.459-7.726-7.726s3.459-7.726,7.726-7.726h61.01
		c4.268,0,7.726,3.459,7.726,7.726S147.587,233.552,143.319,233.552z"/>
	<path style="fill:#35696A;" d="M207.472,264.884H82.309c-4.268,0-7.726-3.459-7.726-7.726c0-4.268,3.459-7.726,7.726-7.726h125.163
		c4.268,0,7.726,3.459,7.726,7.726C215.199,261.426,211.74,264.884,207.472,264.884z"/>
	<path style="fill:#35696A;" d="M338.64,296.215H160.79c-4.268,0-7.726-3.459-7.726-7.726s3.459-7.726,7.726-7.726h177.85
		c4.268,0,7.726,3.459,7.726,7.726S342.908,296.215,338.64,296.215z"/>
	<path style="fill:#35696A;" d="M126.807,296.215H82.309c-4.268,0-7.726-3.459-7.726-7.726s3.459-7.726,7.726-7.726h44.498
		c4.268,0,7.726,3.459,7.726,7.726S131.075,296.215,126.807,296.215z"/>
	<path style="fill:#35696A;" d="M338.64,341.743h-89.977c-4.268,0-7.726-3.459-7.726-7.726c0-4.268,3.459-7.726,7.726-7.726h89.977
		c4.268,0,7.726,3.459,7.726,7.726C346.367,338.285,342.908,341.743,338.64,341.743z"/>
</g>
<path style="fill:#1F4C68;" d="M173.591,398.632l-44.902,19.991c-7.315,3.257-14.793-4.222-11.536-11.536l19.991-44.902
	l10.654-10.654l36.448,36.448L173.591,398.632z"/>
<path style="fill:#4E7693;" d="M485.083,87.144L182.784,389.442l-36.452-36.452L448.631,50.692c2.414-2.414,6.328-2.414,8.741,0
	l27.71,27.71C487.497,80.816,487.497,84.73,485.083,87.144z"/>
<path style="fill:#618BAA;" d="M462.608,55.927l-306.67,306.67l-9.606-9.606L448.631,50.692c2.414-2.414,6.328-2.414,8.741,0
	L462.608,55.927z"/>
<path style="fill:#385F82;" d="M469.574,102.652L339.633,232.593l-10.198-10.198c-4.83-4.83-4.83-12.653,0-17.483L441.893,92.454
	c4.822-4.822,12.653-4.83,17.483,0L469.574,102.652z"/>
<path style="fill:#DDEDE5;" d="M344.002,218.022L354.2,228.22c2.414,2.414,6.328,2.414,8.741,0l102.256-102.256
	c2.414-2.414,2.414-6.328,0-8.741L455,107.025c-2.414-2.414-6.328-2.414-8.741,0L344.002,209.281
	C341.589,211.695,341.589,215.608,344.002,218.022z"/>
<path style="fill:#FF9900;" d="M325.851,110.809H188.709c-3.414,0-6.181-2.767-6.181-6.181V88.53c0-3.414,2.767-6.181,6.181-6.181
	h137.142c3.414,0,6.181,2.767,6.181,6.181v16.099C332.032,108.042,329.265,110.809,325.851,110.809z"/>
<g>
	<path style="fill:#35696A;" d="M279.105,147.316h-89.969c-4.268,0-7.726-3.459-7.726-7.726s3.459-7.726,7.726-7.726h89.969
		c4.268,0,7.726,3.459,7.726,7.726S283.373,147.316,279.105,147.316z"/>
	<path style="fill:#35696A;" d="M138.313,475.439h-56.31c-4.268,0-7.726-3.459-7.726-7.726s3.459-7.726,7.726-7.726h56.31
		c4.268,0,7.726,3.459,7.726,7.726S142.581,475.439,138.313,475.439z"/>
</g>
<g>
</g>
<g>
</g>
<g>
</g>
<g>
</g>
<g>
</g>
<g>
</g>
<g>
</g>
<g>
</g>
<g>
</g>
<g>
</g>
<g>
</g>
<g>
</g>
<g>
</g>
<g>
</g>
<g>
</g>
</svg>
