<?xml version="1.0" encoding="iso-8859-1"?>
<!-- Generator: Adobe Illustrator 19.0.0, SVG Export Plug-In . SVG Version: 6.00 Build 0)  -->
<svg version="1.1" id="Capa_1" xmlns="http://www.w3.org/2000/svg" xmlns:xlink="http://www.w3.org/1999/xlink" x="0px" y="0px"
	 viewBox="0 0 508.1 508.1" style="enable-background:new 0 0 508.1 508.1;" xml:space="preserve">
<path style="fill:#F2F2F2;" d="M417,0.05H169.7l-99.8,99.8v387c0,11.7,9.5,21.2,21.2,21.2h326c11.7,0,21.2-9.5,21.2-21.2V21.25
	C438.2,9.55,428.7,0.05,417,0.05z"/>
<g>
	<path style="fill:#CDD6E0;" d="M169.7,78.75V0.05l-99.8,99.8h78.7C160.2,99.85,169.7,90.45,169.7,78.75z"/>
	<rect x="135" y="117.15" style="fill:#CDD6E0;" width="95.5" height="23.1"/>
</g>
<g>
	<rect x="135" y="180.45" style="fill:#84DBFF;" width="238.5" height="23.1"/>
	<rect x="135" y="307.05" style="fill:#84DBFF;" width="238.5" height="23.1"/>
	<rect x="135" y="370.35" style="fill:#84DBFF;" width="238.5" height="23.1"/>
</g>
<rect x="263.9" y="433.65" style="fill:#FFD15C;" width="109.5" height="23.1"/>
<path style="fill:#40596B;" d="M463.4,144.55h-73.6c-24.6,0-44.6,20-44.6,44.6v42.7H0v44.6h20.2v60.6h37.1v-26.1h25.8v-34.6h32.3
	v60.7H160v-60.8h185.3v42.7c0,24.6,20,44.6,44.6,44.6h73.6c24.6,0,44.6-20,44.6-44.6v-129.9C508,164.55,488,144.55,463.4,144.55z
	 M389.8,318.95v-129.9h73.6v129.9H389.8z"/>
<g>
</g>
<g>
</g>
<g>
</g>
<g>
</g>
<g>
</g>
<g>
</g>
<g>
</g>
<g>
</g>
<g>
</g>
<g>
</g>
<g>
</g>
<g>
</g>
<g>
</g>
<g>
</g>
<g>
</g>
</svg>
