<?xml version="1.0" encoding="iso-8859-1"?>
<!-- Generator: Adobe Illustrator 19.0.0, SVG Export Plug-In . SVG Version: 6.00 Build 0)  -->
<svg version="1.1" id="Capa_1" xmlns="http://www.w3.org/2000/svg" xmlns:xlink="http://www.w3.org/1999/xlink" x="0px" y="0px"
	 viewBox="0 0 512 512" style="enable-background:new 0 0 512 512;" xml:space="preserve">
<path style="fill:#303C42;" d="M469.333,21.333H42.667C19.135,21.333,0,40.469,0,64v298.667c0,23.531,19.135,42.667,42.667,42.667
	h149.362c-0.46,17.052-3.728,44.306-15.893,57.104c-4.469,4.708-9.604,6.896-16.135,6.896c-5.896,0-10.667,4.771-10.667,10.667
	c0,5.896,4.771,10.667,10.667,10.667h192c5.896,0,10.667-4.771,10.667-10.667c0-5.896-4.771-10.667-10.667-10.667
	c-6.531,0-11.667-2.188-16.135-6.896c-12.165-12.798-15.434-40.052-15.893-57.104h149.362c23.531,0,42.667-19.135,42.667-42.667V64
	C512,40.469,492.865,21.333,469.333,21.333z"/>
<g>
	<path id="SVGCleanerId_0" style="fill:#5C6671;" d="M42.667,42.667h426.667c11.76,0,21.333,9.573,21.333,21.333v234.667H21.333V64
		C21.333,52.24,30.906,42.667,42.667,42.667z"/>
</g>
<g>
	
		<linearGradient id="SVGCleanerId_0_3_" gradientUnits="userSpaceOnUse" x1="-45.8074" y1="643.4824" x2="-23.4397" y2="633.049" gradientTransform="matrix(21.3333 0 0 -21.3333 996.3334 13791.667)">
		<stop  offset="0" style="stop-color:#FFFFFF;stop-opacity:0.2"/>
		<stop  offset="1" style="stop-color:#FFFFFF;stop-opacity:0"/>
	</linearGradient>
	<path id="SVGCleanerId_0_1_" style="fill:url(#SVGCleanerId_0_3_);" d="M42.667,42.667h426.667c11.76,0,21.333,9.573,21.333,21.333
		v234.667H21.333V64C21.333,52.24,30.906,42.667,42.667,42.667z"/>
</g>
<g>
	
		<linearGradient id="SVGCleanerId_0_4_" gradientUnits="userSpaceOnUse" x1="-43.0562" y1="646.5446" x2="-26.3501" y2="629.8376" gradientTransform="matrix(21.3333 0 0 -21.3333 996.3334 13791.667)">
		<stop  offset="0" style="stop-color:#FFFFFF;stop-opacity:0.2"/>
		<stop  offset="1" style="stop-color:#FFFFFF;stop-opacity:0"/>
	</linearGradient>
	<path id="SVGCleanerId_0_2_" style="fill:url(#SVGCleanerId_0_4_);" d="M42.667,42.667h426.667c11.76,0,21.333,9.573,21.333,21.333
		v234.667H21.333V64C21.333,52.24,30.906,42.667,42.667,42.667z"/>
</g>
<g>
	<path style="fill:#F2F2F2;" d="M469.333,384H42.667c-11.76,0-21.333-9.573-21.333-21.333V320h469.333v42.667
		C490.667,374.427,481.094,384,469.333,384z"/>
	<path style="fill:#F2F2F2;" d="M314.271,469.333H197.729c12.882-19.749,15.374-48.188,15.695-64h85.151
		C298.897,421.146,301.389,449.585,314.271,469.333z"/>
</g>
<circle style="fill:#303C42;" cx="256" cy="352" r="21.333"/>
<linearGradient id="SVGID_1_" gradientUnits="userSpaceOnUse" x1="-35.701" y1="628.4822" x2="-31.8374" y2="624.6187" gradientTransform="matrix(21.3333 0 0 -21.3333 996.3334 13791.667)">
	<stop  offset="0" style="stop-color:#000000;stop-opacity:0.1"/>
	<stop  offset="1" style="stop-color:#000000;stop-opacity:0"/>
</linearGradient>
<path style="fill:url(#SVGID_1_);" d="M314.271,469.333c-12.882-19.749-15.374-48.188-15.695-64h-85.151l64,64H314.271z"/>
<path style="fill:#303C42;" d="M373.333,64c-29.672,0-55.145,17.533-67.177,42.667h-199.49C83.135,106.667,64,125.802,64,149.333
	V192c0,23.531,19.135,42.667,42.667,42.667h128v32c0,5.896,4.771,10.667,10.667,10.667h32c2.833,0,5.542-1.125,7.542-3.125
	l64.813-64.813c7.688,2.615,15.615,3.938,23.646,3.938c41.167,0,74.667-33.5,74.667-74.667S414.5,64,373.333,64z"/>
<path style="fill:#FFCA28;" d="M373.333,192c-7.438,0-14.802-1.615-21.865-4.802c-4.01-1.802-8.771-0.958-11.927,2.177L272.917,256
	H256v-16.917l66.625-66.625c3.135-3.135,4.01-7.885,2.177-11.927c-3.188-7.063-4.802-14.427-4.802-21.865
	c0-29.406,23.927-53.333,53.333-53.333s53.333,23.927,53.333,53.333S402.74,192,373.333,192z"/>
<circle style="fill:#303C42;" cx="384" cy="128" r="21.333"/>
<path style="fill:#0288D1;" d="M106.667,213.333c-11.76,0-21.333-9.573-21.333-21.333v-42.667c0-11.76,9.573-21.333,21.333-21.333
	h193.078c-0.509,3.514-1.078,7.014-1.078,10.667c0,8.031,1.323,15.958,3.938,23.646l-51.021,51.021H106.667z"/>
<linearGradient id="SVGID_2_" gradientUnits="userSpaceOnUse" x1="-47.6559" y1="641.8846" x2="-22.2407" y2="630.0325" gradientTransform="matrix(21.3333 0 0 -21.3333 996.3334 13791.667)">
	<stop  offset="0" style="stop-color:#FFFFFF;stop-opacity:0.2"/>
	<stop  offset="1" style="stop-color:#FFFFFF;stop-opacity:0"/>
</linearGradient>
<path style="fill:url(#SVGID_2_);" d="M469.333,21.333H42.667C19.135,21.333,0,40.469,0,64v298.667
	c0,23.531,19.135,42.667,42.667,42.667h149.362c-0.46,17.052-3.728,44.306-15.893,57.104c-4.469,4.708-9.604,6.896-16.135,6.896
	c-5.896,0-10.667,4.771-10.667,10.667c0,5.896,4.771,10.667,10.667,10.667h192c5.896,0,10.667-4.771,10.667-10.667
	c0-5.896-4.771-10.667-10.667-10.667c-6.531,0-11.667-2.188-16.135-6.896c-12.165-12.798-15.434-40.052-15.893-57.104h149.362
	c23.531,0,42.667-19.135,42.667-42.667V64C512,40.469,492.865,21.333,469.333,21.333z"/>
<g>
</g>
<g>
</g>
<g>
</g>
<g>
</g>
<g>
</g>
<g>
</g>
<g>
</g>
<g>
</g>
<g>
</g>
<g>
</g>
<g>
</g>
<g>
</g>
<g>
</g>
<g>
</g>
<g>
</g>
</svg>
