<?xml version="1.0" encoding="iso-8859-1"?>
<!-- Generator: Adobe Illustrator 19.0.0, SVG Export Plug-In . SVG Version: 6.00 Build 0)  -->
<svg version="1.1" id="Capa_1" xmlns="http://www.w3.org/2000/svg" xmlns:xlink="http://www.w3.org/1999/xlink" x="0px" y="0px"
	 viewBox="0 0 512 512" style="enable-background:new 0 0 512 512;" xml:space="preserve">
<circle style="fill:#EEBF00;" cx="316.5" cy="256" r="188"/>
<circle style="fill:#FED322;" cx="316.5" cy="256" r="136.41"/>
<rect y="318.44" width="116.78" height="15"/>
<rect x="21.441" y="271.81" width="89.34" height="15"/>
<rect x="42.614" y="225.19" width="68.17" height="15"/>
<rect x="64.08" y="178.56" width="52.704" height="15"/>
<path d="M316.501,60.501c-107.798,0-195.499,87.701-195.499,195.499s87.701,195.499,195.499,195.499
	C424.3,451.499,512,363.798,512,256S424.3,60.501,316.501,60.501z M316.501,436.499c-99.527,0-180.499-80.972-180.499-180.499
	S216.974,75.501,316.501,75.501S497,156.473,497,256S416.028,436.499,316.501,436.499z"/>
<path d="M316.501,85.96c-93.76,0-170.04,76.28-170.04,170.04s76.28,170.04,170.04,170.04c93.761,0,170.04-76.279,170.04-170.04
	S410.262,85.96,316.501,85.96z M316.501,411.04c-85.489,0-155.04-69.55-155.04-155.04s69.551-155.04,155.04-155.04
	s155.04,69.551,155.04,155.04S401.99,411.04,316.501,411.04z"/>
<path style="fill:#FFFFFF;" d="M394.739,271.415c-3.008-6.785-7.27-12.552-12.798-17.305c-5.525-4.749-12.265-8.726-20.213-11.925
	c-7.954-3.199-16.87-6.154-26.759-8.871l-5.449-1.362V192.08c4.121,0.785,8.216,1.875,12.285,3.278
	c5.33,1.845,10.179,3.781,14.543,5.817c4.362,2.036,7.948,3.927,10.761,5.672c2.809,1.745,4.509,3.009,5.09,3.781l20.941-39.556
	c-8.144-4.654-17.743-9.207-28.795-13.67c-10.858-4.38-22.471-7.163-34.824-8.362v-29.448h-0.66h-20.068h-0.66v29.455
	c-9.056,1.001-17.52,3.051-25.372,6.174c-8.048,3.199-15.029,7.612-20.941,13.234c-5.917,5.626-10.616,12.361-14.106,20.214
	c-3.49,7.853-5.235,16.824-5.235,26.903c0,7.757,1.113,14.543,3.345,20.36c2.227,5.817,5.621,10.957,10.18,15.415
	c4.554,4.462,10.325,8.389,17.305,11.779c6.98,3.395,15.22,6.544,24.723,9.453l10.102,2.946v39.198
	c-5.629-0.979-11.132-2.371-16.501-4.188c-6.594-2.227-12.507-4.554-17.742-6.98c-5.235-2.422-9.552-4.749-12.943-6.98
	c-3.395-2.227-5.48-3.826-6.253-4.799l-20.941,41.592c10.471,6.98,22.25,12.607,35.338,16.87
	c12.873,4.197,25.887,6.882,39.042,8.077v34.096h0.66h20.068h0.66v-33.776c9.066-0.431,17.72-1.868,25.954-4.325
	c8.434-2.518,15.896-6.253,22.395-11.198c6.495-4.944,11.679-11.293,15.561-19.051c3.876-7.753,5.817-17.16,5.817-28.212
	C399.248,286.348,397.744,278.205,394.739,271.415z M296.723,219.498c-3.395-2.808-5.09-6.639-5.09-11.489
	c0-9.069,5.512-14.521,16.501-16.373v33.951C303.25,223.774,299.434,221.747,296.723,219.498z M329.521,315.631v-33.203
	c5.01,1.943,9.165,4.041,12.43,6.293c4.072,2.813,6.107,6.739,6.107,11.78C348.058,309.318,341.864,314.351,329.521,315.631z"/>
<g>
</g>
<g>
</g>
<g>
</g>
<g>
</g>
<g>
</g>
<g>
</g>
<g>
</g>
<g>
</g>
<g>
</g>
<g>
</g>
<g>
</g>
<g>
</g>
<g>
</g>
<g>
</g>
<g>
</g>
</svg>
